<?xml version="1.0" encoding="iso-8859-1"?>
<svg version="1.1" id="&#x421;&#x43B;&#x43E;&#x439;_1"
	 xmlns="http://www.w3.org/2000/svg" xmlns:xlink="http://www.w3.org/1999/xlink" x="0px" y="0px" width="58" height="33" viewBox="0 0 58 33" fill="none">
	<path fill-rule="evenodd" clip-rule="evenodd" d="M58 9.80438L54.3291 7.58519L53.5949 5.36525L46.9873 0.186399V2.40559H41.1139L35.9747 0.186399L29.3671 1.66586C22.5275 0.183422 17.8772 -0.309235 15.4177 0.186399C12.9582 0.682033 10.5105 3.1483 8.07595 7.58519L0 32H8.07595C6.28236 30.6924 5.54818 29.9527 5.87342 29.7808C6.36164 29.5218 12.2637 26.9209 17.6203 23.8615C21.391 21.7085 25.3064 20.4754 29.3671 20.1621V27.5609L30.1013 32H37.443L35.2405 29.7808V24.6012L36.7089 21.6423L45.519 14.2435L51.3924 13.5038L56.5316 12.0236L58 9.80438ZM27 23L23.25 23.75L15 27.5L17.25 32H24L21.75 30.5L27 23ZM45.1429 17L41.5714 20.0476L38 23.0952L38.7143 27.6667L45.8571 33H53L50.1429 30.7143L45.1429 21.5714V17Z" fill="#F4F4F4"/>
</svg>
