<?xml version="1.0" standalone="no"?><!DOCTYPE svg PUBLIC "-//W3C//DTD SVG 1.1//EN" "http://www.w3.org/Graphics/SVG/1.1/DTD/svg11.dtd" ><svg xmlns="http://www.w3.org/2000/svg"><metadata></metadata><defs><font id="ThomasJunold: Actor: 2011" horiz-adv-x="1101"><font-face font-family="Actor" font-weight="400" font-stretch="normal" units-per-em="1000" panose-1="2 11 5 3 5 0 0 2 0 4" ascent="941" descent="-262" x-height="4" bbox="-43 -262 1062 941" underline-thickness="50" underline-position="-275" unicode-range="U+0020-fb02" /><missing-glyph horiz-adv-x="360"  /><glyph glyph-name="nonbreakingspace" unicode="  " d="" /><glyph glyph-name="B" unicode="b" d="M88 682 l182 0 q108 0 156.5 -40 q48.5 -40 48.5 -122 q0 -38 -10.5 -66 q-10.5 -28 -23.5 -47 q-15 -22 -33 -38 q24 -9 45 -23 q21 -14 37 -34 q16 -20 25.5 -47.5 q9.5 -27.5 9.5 -64.5 q0 -41 -11 -77.5 q-11 -36.5 -37 -63.5 q-26 -27 -69 -43 q-43 -16 -107 -16 l-213 0 l0 682 ZM172 386 l167 0 q14 11 25 29 q10 15 18 37.5 q8 22.5 8 54.5 q0 59 -30.5 79.5 q-30.5 20.5 -85.5 20.5 l-102 0 l0 -221 ZM172 75 l136 0 q66 0 99 34 q33 34 33 91 q0 25 -6.5 46 q-6.5 21 -22.5 36.5 q-16 15.5 -43 24.5 q-27 9 -67 9 l-129 0 l0 -241 Z" /><glyph glyph-name="C" unicode="c" d="M552 586 q-25 8 -53 14.5 q-28 6.5 -61.5 11 q-33.5 4.5 -70.5 4.5 q-60 0 -102 -26 q-42 -26 -68.5 -66.5 q-26.5 -40.5 -38.5 -90.5 q-12 -50 -12 -99 q0 -62 17.5 -112.5 q17.5 -50.5 48 -86 q30.5 -35.5 71 -54.5 q40.5 -19 85.5 -19 q42 0 77 4.5 q35 4.5 60 9.5 q29 6 52 14 l17 -71 q-27 -9 -60 -16 q-28 -6 -65 -11 q-37 -5 -81 -5 q-79 0 -138.5 26 q-59.5 26 -99 72.5 q-39.5 46.5 -59.5 110 q-20 63.5 -20 139.5 q0 87 24 153.5 q24 66.5 66 111.5 q42 45 100 68 q58 23 127 23 q42 0 78.5 -4.5 q36.5 -4.5 67 -11.5 q30.5 -7 56.5 -15 l-18 -74 Z" /><glyph glyph-name="D" unicode="d" d="M172 77 l135 0 q55 0 103.5 14 q48.5 14 85 45.5 q36.5 31.5 57.5 82.5 q21 51 21 124 q0 68 -19 117.5 q-19 49.5 -53.5 81.5 q-34.5 32 -84 47.5 q-49.5 15.5 -110.5 15.5 l-135 0 l0 -528 ZM88 682 l219 0 q81 0 146.5 -20 q65.5 -20 112.5 -62 q47 -42 72.5 -106 q25.5 -64 25.5 -151 q0 -88 -28 -152.5 q-28 -64.5 -76 -107 q-48 -42.5 -113 -63 q-65 -20.5 -140 -20.5 l-219 0 l0 682 Z" /><glyph glyph-name="E" unicode="e" d="M88 682 l418 0 l0 -77 l-334 0 l0 -218 l310 0 l0 -75 l-310 0 l0 -235 l344 0 l0 -77 l-428 0 l0 682 Z" /><glyph glyph-name="Eth" unicode="ð" d="M126 312 l-123 0 l0 80 l123 0 l0 290 l219 0 q81 0 146.5 -20 q65.5 -20 112.5 -62 q47 -42 72.5 -106 q25.5 -64 25.5 -151 q0 -88 -28 -152.5 q-28 -64.5 -76 -107 q-48 -42.5 -113 -63 q-65 -20.5 -140 -20.5 l-219 0 l0 312 ZM210 392 l158 0 l0 -80 l-158 0 l0 -235 l135 0 q55 0 103.5 14 q48.5 14 85 45.5 q36.5 31.5 57.5 82.5 q21 51 21 124 q0 68 -19 117.5 q-19 49.5 -53.5 81.5 q-34.5 32 -84 47.5 q-49.5 15.5 -110.5 15.5 l-135 0 l0 -213 Z" /><glyph glyph-name="Euro" unicode="&#x20ac;" d="M46 315 l88 0 l0 74 l-88 0 l0 65 l95 0 q21 126 83 181.5 q62 55.5 152 55.5 q53 0 158 -15 l-13 -70 q-91 14 -149 15 q-74 0 -107.5 -56.5 q-33.5 -56.5 -38.5 -110.5 l218 0 l0 -65 l-221 0 l0 -74 l221 0 l0 -65 l-217 0 q8 -79 31 -136 q23 -57 120 -56 q46 0 153 20 l12 -69 q-116 -21 -183 -21 q-97 -4 -149.5 65 q-52.5 69 -69.5 197 l-95 0 l0 65 Z" /><glyph glyph-name="F" unicode="f" d="M88 682 l418 0 l0 -77 l-334 0 l0 -218 l310 0 l0 -75 l-310 0 l0 -312 l-84 0 l0 682 Z" /><glyph glyph-name="G" unicode="g" d="M607 586 q-44 9 -93.5 17 q-49.5 8 -114.5 10 q-66 -1 -114 -20 q-48 -19 -78.5 -54.5 q-30.5 -35.5 -45.5 -84.5 q-15 -49 -15 -108 q0 -76 19.5 -130 q19.5 -54 54 -88.5 q34.5 -34.5 80.5 -50.5 q46 -16 99 -16 q34 0 61.5 4 q27.5 4 48 9.5 q20.5 5.5 37.5 12.5 l0 183 l-125 0 l0 75 l210 0 l0 -299 q-35 -23 -96.5 -41.5 q-61.5 -18.5 -135.5 -17.5 q-68 0 -130.5 16 q-62.5 16 -111 56.5 q-48.5 40.5 -77.5 110.5 q-29 70 -29 177 q0 87 27 151.5 q27 64.5 73.5 107 q46.5 42.5 108 64 q61.5 21.5 130.5 21.5 q45 0 87 -4.5 q42 -4.5 77 -10 q35 -5.5 67 -13.5 l-14 -77 Z" /><glyph glyph-name="H" unicode="h" d="M88 682 l84 0 l0 -295 l345 0 l0 295 l84 0 l0 -682 l-84 0 l0 312 l-345 0 l0 -312 l-84 0 l0 682 Z" /><glyph glyph-name="I" unicode="i" d="M88 682 l84 0 l0 -682 l-84 0 l0 682 Z" /><glyph glyph-name="Igrave" unicode="ì" d="M88 682 l84 0 l0 -682 l-84 0 l0 682 ZM-13 877 l52 61 l172 -125 l-34 -45 l-190 109 ZM88 682 l84 0 l0 -682 l-84 0 l0 682 ZM-13 877 l52 61 l172 -125 l-34 -45 l-190 109 Z" /><glyph glyph-name="J" unicode="j" d="M241 682 l0 -469 q0 -59 -10.5 -100.5 q-10.5 -41.5 -42.5 -66.5 q-23 -18 -59.5 -34.5 q-36.5 -16.5 -96.5 -24.5 l-11 71 q47 8 74.5 20.5 q27.5 12.5 41 30.5 q13.5 18 17 44 q3.5 26 3.5 61 l0 468 l84 0 Z" /><glyph glyph-name="K" unicode="k" d="M88 682 l84 0 l0 -315 l286 315 l105 0 l-262 -286 l302 -396 l-105 0 l-255 334 l-71 -78 l0 -256 l-84 0 l0 682 Z" /><glyph glyph-name="L" unicode="l" d="M88 682 l84 0 l0 -602 l310 0 l0 -80 l-394 0 l0 682 Z" /><glyph glyph-name="Lslash" unicode="&#x141;" d="M224 682 l0 -241 l117 56 l31 -69 l-148 -70 l0 -278 l311 0 l0 -80 l-394 0 l0 321 l-115 -54 l-31 69 l146 68 l0 278 l83 0 Z" /><glyph glyph-name="M" unicode="m" d="M107 682 l107 0 l154 -406 q13 -35 24 -64.5 q11 -29.5 19 -52.5 q10 -26 17 -48 l2 0 q6 22 15 48 q8 23 18 52.5 q10 29.5 24 64.5 l157 406 l107 0 l35 -682 l-85 0 l-17 375 q-2 49 -3 83 q-1 34 -1 56 l0 42 l-2 0 q-6 -15 -15 -41 q-8 -22 -20.5 -56.5 q-12.5 -34.5 -30.5 -83.5 l-141 -375 l-85 0 l-142 375 q-19 48 -31 82.5 q-12 34.5 -20 56.5 q-9 26 -14 42 l-2 0 q1 -16 2 -42 q1 -42 -3 -139 l-20 -375 l-85 0 l36 682 Z" /><glyph glyph-name="N" unicode="n" d="M88 682 l80 0 l358 -541 l2 0 q-2 29 -3 62 q-2 28 -2.5 64.5 q-0.5 36.5 -0.5 74.5 l0 340 l80 0 l0 -682 l-80 0 l-358 543 l-2 0 q1 -30 3 -63 q1 -29 2 -65 q1 -36 1 -74 l0 -341 l-80 0 l0 682 Z" /><glyph glyph-name="O" unicode="o" d="M51 341 q0 97 30.5 164 q30.5 67 78 108 q47.5 41 106 59.5 q58.5 18.5 114.5 18.5 q56 0 114.5 -15.5 q58.5 -15.5 106 -55 q47.5 -39.5 78 -107.5 q30.5 -68 30.5 -173 q0 -98 -30.5 -165 q-30.5 -67 -78 -109 q-47.5 -42 -106 -60.5 q-58.5 -18.5 -114.5 -18.5 q-56 0 -114.5 18 q-58.5 18 -106 59 q-47.5 41 -78 109 q-30.5 68 -30.5 168 ZM614 336 q0 135 -62.5 205 q-62.5 70 -167.5 70 q-53 0 -96.5 -16.5 q-43.5 -16.5 -75 -49.5 q-31.5 -33 -49 -82.5 q-17.5 -49.5 -17.5 -116.5 q0 -135 62.5 -207 q62.5 -72 167.5 -72 q52 0 96 16.5 q44 16.5 75.5 50.5 q31.5 34 49 84 q17.5 50 17.5 118 Z" /><glyph glyph-name="OE" unicode="&#x152;" d="M434 605 l-26 0 q-61 0 -110.5 -15.5 q-49.5 -15.5 -84 -47.5 q-34.5 -32 -53.5 -81.5 q-19 -49.5 -19 -117.5 q0 -73 21 -124 q21 -51 57.5 -82.5 q36.5 -31.5 85 -45.5 q48.5 -14 103.5 -14 l26 0 l0 528 ZM408 0 q-75 0 -140 20.5 q-65 20.5 -113 63 q-48 42.5 -76 107 q-28 64.5 -28 152.5 q0 87 25.5 151 q25.5 64 72.5 106 q47 42 112.5 62 q65.5 20 146.5 20 l444 0 l0 -77 l-334 0 l0 -218 l310 0 l0 -75 l-310 0 l0 -235 l344 0 l0 -77 l-454 0 Z" /><glyph glyph-name="Oslash" unicode="ø" d="M132 90 q-37 42 -59 103.5 q-22 61.5 -22 147.5 q0 97 30.5 164 q30.5 67 78 108 q47.5 41 106 59.5 q58.5 18.5 114.5 18.5 q52 0 106 -13 q54 -13 100 -47 l68 81 l54 -45 l-71 -84 q33 -41 52.5 -100 q19.5 -59 19.5 -143 q0 -98 -30.5 -165 q-30.5 -67 -78 -109 q-47.5 -42 -106 -60.5 q-58.5 -18.5 -114.5 -18.5 q-49 0 -99.5 13 q-50.5 13 -95.5 44 l-79 -95 l-54 45 l80 96 ZM146 346 q0 -114 46 -185 l337 402 q-59 48 -145 48 q-53 0 -96.5 -16.5 q-43.5 -16.5 -75 -49.5 q-31.5 -33 -49 -82.5 q-17.5 -49.5 -17.5 -116.5 ZM614 336 q0 53 -10 96 q-10 43 -29 76 l-335 -399 q54 -42 136 -42 q52 0 96 16.5 q44 16.5 75.5 50.5 q31.5 34 49 84 q17.5 50 17.5 118 Z" /><glyph glyph-name="P" unicode="p" d="M88 682 l157 0 q130 0 192.5 -46 q62.5 -46 62.5 -155 q0 -60 -23 -100 q-23 -40 -57.5 -64.5 q-34.5 -24.5 -74.5 -35 q-40 -10.5 -74 -10.5 l-99 0 l0 -271 l-84 0 l0 682 ZM172 346 l92 0 q34 0 61.5 6.5 q27.5 6.5 47.5 22 q20 15.5 31 42 q11 26.5 11 66.5 q0 40 -11.5 64.5 q-11.5 24.5 -34 37.5 q-22.5 13 -56.5 17.5 q-34 4.5 -79 4.5 l-62 0 l0 -261 Z" /><glyph glyph-name="Q" unicode="q" d="M614 336 q0 135 -62.5 205 q-62.5 70 -167.5 70 q-53 0 -96.5 -16.5 q-43.5 -16.5 -75 -49.5 q-31.5 -33 -49 -82.5 q-17.5 -49.5 -17.5 -116.5 q0 -135 62.5 -207 q62.5 -72 167.5 -72 q52 0 96 16.5 q44 16.5 75.5 50.5 q31.5 34 49 84 q17.5 50 17.5 118 ZM424 -11 q-13 -2 -21 -2 q-8 0 -20 0 q-53 0 -111.5 16 q-58.5 16 -107.5 56 q-49 40 -81 108.5 q-32 68.5 -32 173.5 q0 97 30 164 q30 67 78 108 q48 41 107 59.5 q59 18.5 117 18.5 q57 0 115 -15.5 q58 -15.5 105 -55.5 q47 -40 76.5 -107.5 q29.5 -67.5 29.5 -172.5 q0 -68 -16 -120.5 q-16 -52.5 -42 -92 q-26 -39.5 -60 -66 q-34 -26.5 -70 -42.5 q16 -9 39 -24 q23 -15 48 -29.5 q25 -14.5 49 -24.5 q24 -10 43 -10 q18 0 37.5 6 q19.5 6 36.5 17 l37 -65 q-23 -14 -52.5 -26 q-29.5 -12 -62.5 -12 q-23 0 -53 11.5 q-30 11.5 -65 30.5 q-35 19 -74 44 q-39 25 -80 52 Z" /><glyph glyph-name="R" unicode="r" d="M88 682 l168 0 q55 0 100.5 -9.5 q45.5 -9.5 77.5 -32 q32 -22.5 49 -59.5 q17 -37 17 -93 q-1 -62 -21 -100.5 q-20 -38.5 -49 -62 q-29 -23.5 -67 -34.5 l0 -2 q4 -4 12.5 -14.5 q8.5 -10.5 14.5 -18.5 l193 -256 l-99 0 l-198 271 l-114 0 l0 -271 l-84 0 l0 682 ZM415 474 q0 42 -10.5 68.5 q-10.5 26.5 -31 40.5 q-20.5 14 -50.5 19 q-30 5 -68 5 l-83 0 l0 -261 l99 0 q39 0 66 10 q27 10 44 27.5 q17 17.5 25 40.5 q8 23 9 50 Z" /><glyph glyph-name="S" unicode="s" d="M437 588 q-24 6 -50 11 q-23 5 -52.5 8.5 q-29.5 3.5 -61.5 3.5 q-74 0 -106 -22.5 q-32 -22.5 -32 -69.5 q1 -37 27 -62.5 q26 -25.5 65 -47 q39 -21.5 85.5 -42 q46.5 -20.5 85.5 -47 q39 -26.5 65.5 -62 q26.5 -35.5 26.5 -86.5 q0 -59 -25.5 -95 q-25.5 -36 -64.5 -56 q-39 -20 -85.5 -27 q-46.5 -7 -88.5 -7 q-40 0 -73 5 q-33 5 -57 11 q-28 7 -51 16 l20 81 q23 -10 49 -17 q23 -6 51.5 -11 q28.5 -5 60.5 -5 q39 0 71.5 5 q32.5 5 56.5 16 q24 11 37.5 29 q13.5 18 13.5 44 q-1 39 -25.5 63.5 q-24.5 24.5 -65 47 q-40.5 22.5 -87 43.5 q-46.5 21 -85.5 48 q-39 27 -65.5 64 q-26.5 37 -26.5 92 q0 32 11 63 q11 31 37.5 55 q26.5 24 69 39 q42.5 15 105.5 15 q36 0 68.5 -3.5 q32.5 -3.5 56.5 -7.5 q28 -5 53 -11 l-14 -81 Z" /><glyph glyph-name="T" unicode="t" d="M231 604 l-214 0 l0 78 l512 0 l0 -78 l-214 0 l0 -604 l-84 0 l0 604 Z" /><glyph glyph-name="U" unicode="u" d="M167 682 l0 -426 q0 -57 16.5 -93.5 q16.5 -36.5 43.5 -57.5 q27 -21 61.5 -29 q34.5 -8 70.5 -8 q36 0 70 8 q34 8 61 29 q27 21 43 57.5 q16 36.5 16 93.5 l0 426 l84 0 l0 -447 q0 -52 -19.5 -97 q-19.5 -45 -55.5 -78.5 q-36 -33.5 -87 -52.5 q-51 -19 -113 -19 q-133 0 -204 64.5 q-71 64.5 -71 182.5 l0 447 l84 0 Z" /><glyph glyph-name="V" unicode="v" d="M18 682 l85 0 l196 -602 l1 0 l193 602 l85 0 l-227 -682 l-106 0 l-227 682 Z" /><glyph glyph-name="W" unicode="w" d="M28 682 l85 0 l132 -602 l1 0 l175 602 l106 0 l173 -602 l1 0 l131 602 l85 0 l-157 -682 l-106 0 l-180 601 l-1 0 l-181 -601 l-106 0 l-158 682 Z" /><glyph glyph-name="X" unicode="x" d="M217 347 l-197 335 l95 0 l161 -277 l160 277 l95 0 l-202 -343 l203 -339 l-97 0 l-164 285 l-156 -285 l-95 0 l197 347 Z" /><glyph glyph-name="Y" unicode="y" d="M230 248 l-218 434 l93 0 l167 -331 l168 331 l93 0 l-218 -434 l0 -248 l-85 0 l0 248 Z" /><glyph glyph-name="Z" unicode="z" d="M36 36 l386 566 l-386 0 l0 80 l520 0 l0 -34 l-389 -568 l380 0 l0 -80 l-511 0 l0 36 Z" /><glyph glyph-name="a" unicode="a" d="M352 231 q-20 -1 -38 -2 q-18 -1 -35.5 -2.5 q-17.5 -1.5 -31.5 -3.5 q-72 -9 -102 -31.5 q-30 -22.5 -30 -64.5 q0 -35 21.5 -52.5 q21.5 -17.5 56.5 -17.5 q48 0 85.5 16.5 q37.5 16.5 73.5 43.5 l0 114 ZM351 47 q-47 -27 -87.5 -43.5 q-40.5 -16.5 -87.5 -16.5 q-67 0 -106.5 32.5 q-39.5 32.5 -39.5 107.5 q0 39 20 68 q20 29 52.5 48.5 q32.5 19.5 73.5 30.5 q41 11 84 14 q18 2 47 3.5 q29 1.5 45 2.5 q0 35 -2 62.5 q-2 27.5 -12 47 q-10 19.5 -29.5 29.5 q-19.5 10 -55.5 10 q-29 0 -56 -3.5 q-27 -3.5 -48 -7.5 q-25 -5 -46 -11 l-16 69 q25 6 54 11 q25 5 58 8.5 q33 3.5 71 3.5 q51 0 82.5 -15 q31.5 -15 49 -40.5 q17.5 -25.5 24 -58 q6.5 -32.5 6.5 -68.5 l0 -240 q0 -14 0.5 -29.5 q0.5 -15.5 2 -30.5 q1.5 -15 3.5 -31 l-77 -8 l-10 55 Z" /><glyph glyph-name="acute" unicode="´" d="M272 771 l52 -61 l-190 -109 l-34 45 l172 125 Z" /><glyph glyph-name="ae" unicode="æ" d="M176 -13 q-75 0 -110.5 35.5 q-35.5 35.5 -35.5 104.5 q0 40 18 69 q18 29 48.5 48.5 q30.5 19.5 70 30 q39.5 10.5 82.5 13.5 q15 1 33.5 2.5 q18.5 1.5 64.5 5.5 l4 27 q9 59 -13 89.5 q-22 30.5 -85 30.5 q-69 0 -149 -19 l-17 71 q92 18 183 18 q57 -1 90 -19.5 q33 -18.5 49 -48.5 q63 68 174 68 q49 0 84 -19 q35 -19 57.5 -51.5 q22.5 -32.5 33.5 -76 q11 -43.5 11 -91.5 l-15 -44 l-324 0 q0 -33 9.5 -64.5 q9.5 -31.5 29.5 -56 q20 -24.5 51.5 -39 q31.5 -14.5 75.5 -14.5 q75 0 133 22 l15 -65 q-80 -27 -163 -27 q-54 0 -99 17 q-45 17 -85 65 q-27 -23 -61 -41 q-29 -16 -69.5 -28.5 q-40.5 -12.5 -90.5 -12.5 ZM364 122 q-6 17 -10 35.5 q-4 18.5 -6 35.5 q-3 19 -4 38 q-54 -3 -97 -8 q-72 -9 -102.5 -31.5 q-30.5 -22.5 -30.5 -64.5 q0 -35 22 -52.5 q22 -17.5 57 -17.5 q48 0 91.5 19 q43.5 19 79.5 46 ZM686 295 q0 7 -3 31 q-3 24 -14 50 q-11 26 -33.5 46.5 q-22.5 20.5 -61.5 20.5 q-42 0 -69 -17 q-27 -17 -42.5 -41.5 q-15.5 -24.5 -22 -49.5 q-6.5 -25 -6.5 -40 l252 0 Z" /><glyph glyph-name="ampersand" unicode="&amp;" d="M652 -21 q-35 27 -70.5 57 q-35.5 30 -71.5 62 q-47 -49 -109.5 -80 q-62.5 -31 -143.5 -31 q-44 0 -81 11 q-37 11 -64 32.5 q-27 21.5 -42.5 54.5 q-15.5 33 -15.5 77 q0 44 17.5 78.5 q17.5 34.5 43.5 61.5 q26 27 55 47.5 q29 20.5 53 35.5 q-18 22 -38 45 q-20 23 -36.5 48.5 q-16.5 25.5 -27 54.5 q-10.5 29 -10.5 63 q0 28 10.5 56 q10.5 28 33 50 q22.5 22 59 36 q36.5 14 89.5 14 q54 0 89.5 -12.5 q35.5 -12.5 56.5 -33.5 q21 -21 29.5 -49.5 q8.5 -28.5 8.5 -60.5 q0 -36 -15 -68.5 q-15 -32.5 -38.5 -60.5 q-23.5 -28 -51.5 -51 q-28 -23 -54 -40 q48 -51 90.5 -93.5 q42.5 -42.5 82.5 -79.5 q27 40 47 84 q20 44 34 86 l66 -22 q-14 -47 -36.5 -98 q-22.5 -51 -56.5 -99 q37 -33 71.5 -63.5 q34.5 -30.5 69.5 -62.5 l-44 -49 ZM257 57 q60 0 109.5 24.5 q49.5 24.5 88.5 65.5 q-50 45 -97.5 92 q-47.5 47 -89.5 95 q-25 -17 -49 -35 q-24 -18 -43 -39 q-19 -21 -30.5 -46 q-11.5 -25 -11.5 -55 q0 -18 7.5 -36.5 q7.5 -18.5 23 -33 q15.5 -14.5 38.5 -23.5 q23 -9 54 -9 ZM191 596 q0 -24 6 -44 q6 -20 17.5 -40 q11.5 -20 29.5 -41.5 q18 -21.5 42 -49.5 q24 16 45.5 35.5 q21.5 19.5 38.5 41.5 q17 22 27 46 q10 24 10 50 q0 42 -21.5 65 q-21.5 23 -82.5 23 q-56 0 -84 -23 q-28 -23 -28 -63 Z" /><glyph glyph-name="approxequal" unicode="&#x2248;" d="M517 345 q-23 -19 -50.5 -33 q-27.5 -14 -66.5 -14 q-31 0 -56 7.5 q-25 7.5 -49 16 q-24 8.5 -49 16 q-25 7.5 -55 7.5 q-26 0 -47 -11 q-21 -11 -53 -28 l-31 60 q23 16 58 32.5 q35 16.5 73 16.5 q30 0 55 -7.5 q25 -7.5 49 -16 q24 -8.5 49 -16 q25 -7.5 56 -7.5 q23 0 45.5 13 q22.5 13 37.5 24 l34 -60 ZM533 198 q-23 -19 -49 -33.5 q-26 -14.5 -65 -14.5 q-31 0 -56 7.5 q-25 7.5 -49 16 q-24 8.5 -49 16 q-25 7.5 -55 7.5 q-26 0 -46.5 -10.5 q-20.5 -10.5 -53.5 -28.5 l-31 60 q23 16 58 32.5 q35 16.5 73 16.5 q30 0 55 -7.5 q25 -7.5 49 -16 q24 -8.5 49 -16 q25 -7.5 56 -7.5 q23 0 45.5 13 q22.5 13 37.5 24 l31 -59 Z" /><glyph glyph-name="asciicircum" unicode="^" d="M335 745 l231 -313 l-85 0 l-146 205 l-146 -205 l-89 0 l235 313 Z" /><glyph glyph-name="asciitilde" unicode="~" d="M509 282 q-29 -25 -56 -39.5 q-27 -14.5 -62 -14.5 q-31 0 -56 8.5 q-25 8.5 -49 19.5 q-24 11 -49 20 q-25 9 -55 9 q-23 -1 -43.5 -11 q-20.5 -10 -54.5 -32 l-34 57 q26 19 60 37 q34 18 72 19 q30 0 55 -9 q25 -9 49 -20 q24 -11 49 -19.5 q25 -8.5 56 -8.5 q22 0 45 14 q23 14 37 26 l36 -56 Z" /><glyph glyph-name="asterisk" unicode="*" d="M285 410 l74 -95 l-64 -48 l-72 104 l-70 -106 l-66 46 l76 100 l-115 40 l26 75 l114 -47 l-3 121 l80 0 l-4 -121 l112 42 l27 -75 l-115 -36 Z" /><glyph glyph-name="at" unicode="@" d="M515 438 q-8 2 -18 3.5 q-10 1.5 -21.5 2.5 q-11.5 1 -23.5 1 q-25 0 -49 -11 q-24 -11 -43.5 -33.5 q-19.5 -22.5 -31.5 -57.5 q-12 -35 -12 -82 q0 -11 1.5 -23 q1.5 -12 4.5 -22.5 q3 -10.5 8 -17 q5 -6.5 12 -6.5 q5 0 18.5 9.5 q13.5 9.5 30.5 25 q17 15.5 36 36 q19 20.5 35 41.5 q16 21 28 42 q12 21 15 38 l10 54 ZM567 297 q-3 -17 -2 -35 q1 -18 4 -33 q3 -15 6.5 -24.5 q3.5 -9.5 6.5 -9.5 q29 0 57 10.5 q28 10.5 50.5 32.5 q22.5 22 36 55.5 q13.5 33.5 13.5 79.5 q0 67 -19 114 q-19 47 -55.5 77 q-36.5 30 -89 43.5 q-52.5 13.5 -119.5 13.5 q-63 0 -123 -22.5 q-60 -22.5 -106 -65.5 q-46 -43 -74 -106.5 q-28 -63.5 -28 -145.5 q0 -149 72.5 -215 q72.5 -66 218.5 -66 q35 0 62.5 4.5 q27.5 4.5 47.5 9.5 q23 6 40 14 l20 -66 q-25 -9 -55 -15 q-26 -6 -61.5 -10.5 q-35.5 -4.5 -77.5 -4.5 q-79 0 -141.5 21 q-62.5 21 -106 63.5 q-43.5 42.5 -66.5 108.5 q-23 66 -23 156 q0 97 33.5 173.5 q33.5 76.5 89 129 q55.5 52.5 128 80 q72.5 27.5 150.5 27.5 q78 0 143 -17 q65 -17 111.5 -54.5 q46.5 -37.5 72.5 -98.5 q26 -61 26 -148 q0 -48 -14.5 -93.5 q-14.5 -45.5 -46.5 -81 q-32 -35.5 -82.5 -57 q-50.5 -21.5 -122.5 -21.5 q-4 0 -11 8.5 q-7 8.5 -13 26.5 q-6 18 -10.5 45.5 q-4.5 27.5 -3.5 65.5 l-2 0 q-52 -67 -96 -104 q-44 -37 -83 -37 q-45 0 -66 33 q-21 33 -21 87 q0 59 17.5 108.5 q17.5 49.5 49 85 q31.5 35.5 75 55 q43.5 19.5 95.5 19.5 q14 0 34.5 -2.5 q20.5 -2.5 88.5 -13.5 l-30 -200 Z" /><glyph glyph-name="b" unicode="b" d="M71 749 l80 9 l0 -298 q22 15 46 26 q20 10 45 18.5 q25 8.5 50 8.5 q41 0 77.5 -16 q36.5 -16 64 -48 q27.5 -32 43.5 -81 q16 -49 16 -116 q0 -74 -20.5 -124.5 q-20.5 -50.5 -55 -81.5 q-34.5 -31 -78.5 -45 q-44 -14 -90 -14 q-46 0 -79.5 6.5 q-33.5 6.5 -55.5 14.5 q-26 10 -43 22 l0 719 ZM151 74 q13 -5 28 -8.5 q15 -3.5 32.5 -6 q17.5 -2.5 37.5 -2.5 q46 0 77 13 q31 13 49 38 q18 25 25.5 60.5 q7.5 35.5 7.5 79.5 q0 35 -7.5 70 q-7.5 35 -23.5 62.5 q-16 27.5 -39.5 45 q-23.5 17.5 -54.5 17.5 q-21 0 -44 -8.5 q-23 -8.5 -43 -19.5 q-23 -12 -45 -27 l0 -314 Z" /><glyph glyph-name="backslash" unicode="\" d="M29 823 l75 26 l375 -1031 l-75 -26 l-375 1031 Z" /><glyph glyph-name="bar" unicode="|" d="M75 758 l80 0 l0 -986 l-80 0 l0 986 Z" /><glyph glyph-name="braceleft" unicode="{" d="M119 130 q0 31 -9 51.5 q-9 20.5 -22.5 33.5 q-13.5 13 -30 21 q-16.5 8 -31.5 14 l0 75 q19 7 36 15.5 q17 8.5 30 22 q13 13.5 20 35 q7 21.5 7 57.5 q0 28 -1 50.5 q-1 22.5 -2.5 45 q-1.5 22.5 -2.5 48 q-1 25.5 -1 58.5 q0 34 18 59 q18 25 44.5 42 q26.5 17 57 27.5 q30.5 10.5 55.5 16.5 l14 -70 q-31 -7 -54 -19 q-22 -11 -39 -29 q-17 -18 -17 -44 q0 -41 3.5 -84.5 q3.5 -43.5 3.5 -106.5 q1 -60 -17 -103.5 q-18 -43.5 -66 -58.5 q48 -14 65.5 -52.5 q17.5 -38.5 17.5 -98.5 q0 -63 -3.5 -106.5 q-3.5 -43.5 -3.5 -84.5 q1 -27 17.5 -44.5 q16.5 -17.5 37.5 -28.5 q24 -12 55 -19 l-14 -70 q-25 6 -55.5 16.5 q-30.5 10.5 -57.5 28 q-27 17.5 -44.5 42 q-17.5 24.5 -17.5 58.5 q0 33 1 58.5 q1 25.5 2.5 48 q1.5 22.5 2.5 45 q1 22.5 1 50.5 Z" /><glyph glyph-name="braceright" unicode="}" d="M206 130 q0 -28 1 -50.5 q1 -22.5 2.5 -45 q1.5 -22.5 2.5 -48 q1 -25.5 1 -58.5 q0 -34 -18 -59 q-18 -25 -44.5 -42 q-26.5 -17 -57 -28 q-30.5 -11 -55.5 -16 l-14 70 q30 7 55 19 q20 11 37.5 28.5 q17.5 17.5 17.5 44.5 q0 41 -3.5 84.5 q-3.5 43.5 -3.5 106.5 q0 60 17.5 98.5 q17.5 38.5 65.5 52.5 q-46 13 -65 57.5 q-19 44.5 -18 104.5 q0 63 3.5 106.5 q3.5 43.5 3.5 84.5 q0 26 -16.5 44 q-16.5 18 -38.5 29 q-25 12 -55 19 l14 70 q25 -6 55.5 -16.5 q30.5 -10.5 57 -27.5 q26.5 -17 44.5 -42 q18 -25 18 -59 q0 -33 -1 -58.5 q-1 -25.5 -2.5 -48 q-1.5 -22.5 -2.5 -45 q-1 -22.5 -1 -50.5 q0 -36 7 -57.5 q7 -21.5 20 -35 q13 -13.5 29.5 -21.5 q16.5 -8 36.5 -16 l0 -75 q-15 -6 -32 -14.5 q-17 -8.5 -30 -21 q-13 -12.5 -22 -33 q-9 -20.5 -9 -51.5 Z" /><glyph glyph-name="bracketleft" unicode="[" d="M74 790 l208 0 l0 -80 l-123 0 l0 -882 l123 0 l0 -80 l-208 0 l0 1042 Z" /><glyph glyph-name="bracketright" unicode="]" d="M237 -252 l-208 0 l0 80 l123 0 l0 882 l-123 0 l0 80 l208 0 l0 -1042 Z" /><glyph glyph-name="breve" unicode="&#x2d8;" d="M157 701 q8 -23 28 -38 q20 -15 46 -15 q25 0 45.5 15 q20.5 15 29.5 38 l58 0 q-5 -23 -18 -42.5 q-13 -19.5 -30.5 -34 q-17.5 -14.5 -39.5 -23 q-22 -8.5 -45 -8.5 q-24 0 -45.5 8.5 q-21.5 8.5 -39 23 q-17.5 14.5 -29.5 34 q-12 19.5 -17 42.5 l57 0 Z" /><glyph glyph-name="brokenbar" unicode="¦" d="M82 306 l70 0 l0 -306 l-70 0 l0 306 ZM82 682 l70 0 l0 -306 l-70 0 l0 306 Z" /><glyph glyph-name="bullet" unicode="&#x2022;" d="M46 267 q0 24 10 46 q10 22 26.5 38 q16.5 16 39 25.5 q22.5 9.5 48.5 9.5 q25 0 48 -9.5 q23 -9.5 40 -25.5 q17 -16 27.5 -38 q10.5 -22 10.5 -46 q0 -26 -10.5 -49.5 q-10.5 -23.5 -27.5 -41 q-17 -17.5 -40 -27.5 q-23 -10 -48 -10 q-26 0 -48.5 10 q-22.5 10 -39 27.5 q-16.5 17.5 -26.5 41 q-10 23.5 -10 49.5 Z" /><glyph glyph-name="c" unicode="c" d="M384 430 q-17 4 -47 8.5 q-30 4.5 -61 4.5 q-45 0 -73.5 -18 q-28.5 -18 -44.5 -46.5 q-16 -28.5 -22 -63 q-6 -34.5 -6 -67.5 q0 -51 13 -87.5 q13 -36.5 34.5 -59.5 q21.5 -23 49.5 -33.5 q28 -10.5 59 -10.5 q21 0 40.5 2.5 q19.5 2.5 36 6 q16.5 3.5 31.5 8.5 l16 -67 q-21 -6 -39 -10 q-18 -4 -42.5 -7 q-24.5 -3 -52.5 -3 q-55 0 -98 14 q-43 14 -72.5 45 q-29.5 31 -45 81 q-15.5 50 -15.5 122 q0 70 19.5 120.5 q19.5 50.5 51.5 82 q32 31.5 73.5 46.5 q41.5 15 86.5 15 q24 0 46.5 -2.5 q22.5 -2.5 39.5 -5.5 q20 -4 38 -8 l-16 -67 Z" /><glyph glyph-name="caron" unicode="&#x2c7;" d="M100 730 l40 33 l115 -97 l115 97 l40 -33 l-135 -137 l-40 0 l-135 137 Z" /><glyph glyph-name="cedilla" unicode="¸" d="M152 -59 l79 0 l0 -24 q0 -18 -2.5 -35 q-2.5 -17 -10 -36 q-7.5 -19 -22 -41 q-14.5 -22 -39.5 -49 l-57 47 q19 21 30 38 q11 17 15.5 30.5 q4.5 13.5 5.5 25 q1 11.5 1 20.5 l0 24 Z" /><glyph glyph-name="cent" unicode="¢" d="M225 102 q-44 3 -76.5 15.5 q-32.5 12.5 -54.5 39.5 q-22 27 -33 70 q-11 43 -11 106 q0 52 14.5 93 q14.5 41 38.5 70.5 q24 29.5 55.5 46.5 q31.5 17 66.5 22 l0 117 l80 0 l0 -118 q21 -3 41.5 -6.5 q20.5 -3.5 59.5 -13.5 l-16 -67 q-49 13 -80.5 17 q-31.5 4 -58.5 4 q-41 0 -64.5 -16.5 q-23.5 -16.5 -34.5 -41 q-11 -24.5 -14 -54 q-3 -29.5 -3 -54.5 q0 -44 6.5 -74.5 q6.5 -30.5 22 -50 q15.5 -19.5 41 -28 q25.5 -8.5 63.5 -8.5 q25 0 57 5 q32 5 72 19 l16 -67 q-22 -9 -50.5 -15 q-28.5 -6 -57.5 -9 l0 -124 l-80 0 l0 122 Z" /><glyph glyph-name="circumflex" unicode="&#x2c6;" d="M235 770 l40 0 l135 -137 l-40 -33 l-115 97 l-115 -97 l-40 33 l135 137 Z" /><glyph glyph-name="colon" unicode=":" d="M62 59 q0 24 17 41.5 q17 17.5 42 17.5 q26 0 44 -17.5 q18 -17.5 18 -41.5 q0 -25 -18 -42 q-18 -17 -44 -17 q-25 0 -42 17 q-17 17 -17 42 ZM62 394 q0 24 17 41.5 q17 17.5 42 17.5 q26 0 44 -17.5 q18 -17.5 18 -41.5 q0 -25 -18 -42 q-18 -17 -44 -17 q-25 0 -42 17 q-17 17 -17 42 Z" /><glyph glyph-name="comma" unicode="," d="M71 130 l85 0 l-56 -258 l-63 12 l34 246 Z" /><glyph glyph-name="copyright" unicode="©" d="M50 341 q0 70 26.5 132.5 q26.5 62.5 73 108.5 q46.5 46 108 73 q61.5 27 132.5 27 q70 0 132.5 -27 q62.5 -27 108.5 -73 q46 -46 73 -108.5 q27 -62.5 27 -132.5 q0 -71 -27 -132.5 q-27 -61.5 -73 -108 q-46 -46.5 -108.5 -73 q-62.5 -26.5 -132.5 -26.5 q-71 0 -132.5 26.5 q-61.5 26.5 -108 73 q-46.5 46.5 -73 108 q-26.5 61.5 -26.5 132.5 ZM107 341 q0 -58 22.5 -109.5 q22.5 -51.5 61 -90 q38.5 -38.5 90 -61 q51.5 -22.5 109.5 -22.5 q59 0 110.5 22.5 q51.5 22.5 90 61 q38.5 38.5 60.5 90 q22 51.5 22 109.5 q0 59 -22 110.5 q-22 51.5 -60.5 90 q-38.5 38.5 -90 60.5 q-51.5 22 -110.5 22 q-58 0 -109.5 -22 q-51.5 -22 -90 -60.5 q-38.5 -38.5 -61 -90 q-22.5 -51.5 -22.5 -110.5 ZM475 472 q-34 7 -51 8.5 q-17 1.5 -32 1.5 q-31 0 -51 -13.5 q-20 -13.5 -31 -34.5 q-11 -21 -15.5 -45.5 q-4.5 -24.5 -4.5 -46.5 q0 -36 9.5 -61.5 q9.5 -25.5 25 -42.5 q15.5 -17 35.5 -25 q20 -8 40 -8 q16 0 36 3 q20 3 46 11 l12 -59 q-32 -11 -56.5 -14.5 q-24.5 -3.5 -45.5 -3.5 q-38 0 -70.5 10 q-32.5 10 -56 33 q-23.5 23 -37 62 q-13.5 39 -13.5 96 q0 56 15.5 94.5 q15.5 38.5 40.5 62 q25 23.5 56.5 34 q31.5 10.5 64.5 10.5 q18 0 40 -2.5 q22 -2.5 57 -10.5 l-14 -59 Z" /><glyph glyph-name="d" unicode="d" d="M386 428 q-36 10 -56 12.5 q-20 2.5 -41 2.5 q-42 0 -72 -15 q-30 -15 -49.5 -41.5 q-19.5 -26.5 -28.5 -61 q-9 -34.5 -9 -73.5 q0 -35 7.5 -70 q7.5 -35 23.5 -63 q16 -28 39 -45 q23 -17 55 -17 q22 0 45.5 8 q23.5 8 43.5 18.5 q20 10.5 42 26.5 l0 318 ZM387 40 q-23 -16 -44.5 -26.5 q-21.5 -10.5 -47 -18.5 q-25.5 -8 -49.5 -8 q-94 0 -147.5 66.5 q-53.5 66.5 -53.5 194.5 q0 76 24.5 127 q24.5 51 61.5 81.5 q37 30.5 79.5 43.5 q42.5 13 78.5 13 q18 0 38 -2.5 q20 -2.5 59 -12.5 l0 251 l80 9 l0 -667 q0 -14 0.5 -29.5 q0.5 -15.5 2 -30.5 q1.5 -15 3.5 -31 l-77 -8 l-8 48 Z" /><glyph glyph-name="dagger" unicode="&#x2020;" d="M170 513 l-130 0 l0 70 l130 0 l0 166 l80 9 l0 -175 l140 0 l0 -70 l-140 0 l0 -513 l-80 0 l0 513 Z" /><glyph glyph-name="daggerdbl" unicode="&#x2021;" d="M52 583 l130 0 l0 166 l80 9 l0 -175 l140 0 l0 -70 l-140 0 l0 -119 l-80 0 l0 119 l-130 0 l0 70 ZM52 271 l130 0 l0 75 l80 0 l0 -75 l140 0 l0 -70 l-140 0 l0 -201 l-80 0 l0 201 l-130 0 l0 70 Z" /><glyph glyph-name="degree" unicode="°" d="M43 627 q0 27 10.5 51 q10.5 24 29 41.5 q18.5 17.5 43 28 q24.5 10.5 51.5 10.5 q27 0 51.5 -10.5 q24.5 -10.5 43.5 -28 q19 -17.5 30 -41.5 q11 -24 11 -51 q0 -27 -11 -52 q-11 -25 -30 -43.5 q-19 -18.5 -43.5 -29.5 q-24.5 -11 -51.5 -11 q-27 0 -51.5 11 q-24.5 11 -43 29.5 q-18.5 18.5 -29 43.5 q-10.5 25 -10.5 52 ZM107 627 q0 -33 19 -54.5 q19 -21.5 51 -21.5 q32 0 52 21.5 q20 21.5 20 54.5 q0 32 -20 52 q-20 20 -52 20 q-32 0 -51 -20 q-19 -20 -19 -52 Z" /><glyph glyph-name="dieresis" unicode="¨" d="M100 647 q0 23 15.5 38.5 q15.5 15.5 38.5 15.5 q24 0 40.5 -15.5 q16.5 -15.5 16.5 -38.5 q0 -23 -16.5 -38.5 q-16.5 -15.5 -40.5 -15.5 q-23 0 -38.5 15.5 q-15.5 15.5 -15.5 38.5 ZM271 647 q0 23 15.5 38.5 q15.5 15.5 38.5 15.5 q24 0 40.5 -15.5 q16.5 -15.5 16.5 -38.5 q0 -23 -16.5 -38.5 q-16.5 -15.5 -40.5 -15.5 q-23 0 -38.5 15.5 q-15.5 15.5 -15.5 38.5 Z" /><glyph glyph-name="divide" unicode="÷" d="M56 323 l440 0 l0 -80 l-440 0 l0 80 ZM276 395 q-25 0 -42 16.5 q-17 16.5 -17 41.5 q0 26 17 43 q17 17 42 17 q26 0 42.5 -17 q16.5 -17 16.5 -43 q0 -25 -16.5 -41.5 q-16.5 -16.5 -42.5 -16.5 ZM276 53 q-25 0 -42 16.5 q-17 16.5 -17 41.5 q0 26 17 43 q17 17 42 17 q26 0 42.5 -17 q16.5 -17 16.5 -43 q0 -25 -16.5 -41.5 q-16.5 -16.5 -42.5 -16.5 Z" /><glyph glyph-name="dollar" unicode="$" d="M234 -13 q-97 0 -184 32 l20 81 q84 -33 161 -33 q39 0 71.5 4.5 q32.5 4.5 56.5 15 q24 10.5 37.5 28.5 q13.5 18 13.5 46 q0 37 -26.5 63 q-26.5 26 -65.5 48 q-39 22 -85.5 43.5 q-46.5 21.5 -85.5 48.5 q-39 27 -65.5 64 q-26.5 37 -26.5 91 q0 66 48 112.5 q48 46.5 131 57.5 l0 93 l70 0 l0 -92 q75 -3 148 -19 l-10 -83 q-85 23 -164 23 q-74 0 -106 -22 q-32 -22 -32 -70 q0 -35 26.5 -60.5 q26.5 -25.5 65.5 -47.5 q39 -22 85.5 -43 q46.5 -21 85.5 -48 q39 -27 65.5 -62.5 q26.5 -35.5 26.5 -85.5 q0 -45 -16.5 -76 q-16.5 -31 -43.5 -51.5 q-27 -20.5 -61 -33 q-34 -12.5 -70 -19.5 l0 -93 l-70 0 l0 88 Z" /><glyph glyph-name="dotaccent" unicode="&#x2d9;" d="M100 647 q0 23 15.5 38.5 q15.5 15.5 38.5 15.5 q24 0 40.5 -15.5 q16.5 -15.5 16.5 -38.5 q0 -23 -16.5 -38.5 q-16.5 -15.5 -40.5 -15.5 q-23 0 -38.5 15.5 q-15.5 15.5 -15.5 38.5 Z" /><glyph glyph-name="dotlessi" unicode="&#x131;" d="M72 504 l80 9 l0 -513 l-80 0 l0 504 Z" /><glyph glyph-name="e" unicode="e" d="M444 12 q-23 -7 -47.5 -12 q-24.5 -5 -54 -9 q-29.5 -4 -61.5 -4 q-50 0 -93 14 q-43 14 -75 45 q-32 31 -50.5 80.5 q-18.5 49.5 -18.5 121.5 q0 65 18 114.5 q18 49.5 49.5 83 q31.5 33.5 74 50.5 q42.5 17 92.5 17 q49 0 85 -19 q36 -19 59.5 -51.5 q23.5 -32.5 35 -76 q11.5 -43.5 11.5 -91.5 l-15 -44 l-323 0 q0 -31 8 -62 q8 -31 27.5 -56 q19.5 -25 51 -40.5 q31.5 -15.5 78.5 -15.5 q30 0 55 3.5 q25 3.5 43.5 8 q18.5 4.5 34.5 10.5 l15 -67 ZM386 295 q0 7 -3 31 q-3 24 -14 50 q-11 26 -34 46.5 q-23 20.5 -61 20.5 q-42 0 -69 -17.5 q-27 -17.5 -43 -41.5 q-16 -24 -22 -49 q-6 -25 -6 -40 l252 0 Z" /><glyph glyph-name="eight" unicode="8" d="M273 -13 q-44 0 -82.5 9.5 q-38.5 9.5 -67.5 31.5 q-29 22 -46 57.5 q-17 35.5 -17 87.5 q0 37 13 66.5 q13 29.5 31.5 52 q18.5 22.5 40.5 39 q22 16.5 40 28.5 q-48 26 -76.5 62.5 q-28.5 36.5 -28.5 88.5 q0 46 18 80.5 q18 34.5 46.5 56.5 q28.5 22 63.5 33 q35 11 70 11 q44 0 80.5 -12.5 q36.5 -12.5 62.5 -36 q26 -23.5 40.5 -57 q14.5 -33.5 14.5 -75.5 q0 -26 -8.5 -49.5 q-8.5 -23.5 -22 -44.5 q-13.5 -21 -31 -39 q-17.5 -18 -35.5 -33 q22 -12 43 -26 q21 -14 37.5 -33.5 q16.5 -19.5 26.5 -47 q10 -27.5 10 -64.5 q0 -53 -18.5 -88.5 q-18.5 -35.5 -49.5 -57.5 q-31 -22 -71.5 -31 q-40.5 -9 -83.5 -9 ZM314 376 q13 12 27 25 q14 13 25 29 q11 16 18 35.5 q7 19.5 7 44.5 q0 21 -5.5 41 q-5.5 20 -18.5 35.5 q-13 15.5 -35 25 q-22 9.5 -54 9.5 q-28 0 -49 -10 q-21 -10 -35.5 -25.5 q-14.5 -15.5 -21.5 -35.5 q-7 -20 -7 -40 q0 -27 11.5 -46.5 q11.5 -19.5 32 -35 q20.5 -15.5 47.5 -28 q27 -12.5 58 -24.5 ZM145 173 q0 -51 31.5 -83.5 q31.5 -32.5 97.5 -32.5 q66 0 101.5 32 q35.5 32 35.5 84 q0 29 -11.5 50 q-11.5 21 -32.5 37.5 q-21 16.5 -51.5 31.5 q-30.5 15 -68.5 31 q-19 -12 -36.5 -26 q-17.5 -14 -32.5 -32 q-15 -18 -24 -40.5 q-9 -22.5 -9 -51.5 Z" /><glyph glyph-name="ellipsis" unicode="&#x2026;" d="M51 54 q0 23 15.5 38.5 q15.5 15.5 38.5 15.5 q24 0 40.5 -15.5 q16.5 -15.5 16.5 -38.5 q0 -23 -16.5 -38.5 q-16.5 -15.5 -40.5 -15.5 q-23 0 -38.5 15.5 q-15.5 15.5 -15.5 38.5 ZM282 54 q0 23 15.5 38.5 q15.5 15.5 38.5 15.5 q24 0 40.5 -15.5 q16.5 -15.5 16.5 -38.5 q0 -23 -16.5 -38.5 q-16.5 -15.5 -40.5 -15.5 q-23 0 -38.5 15.5 q-15.5 15.5 -15.5 38.5 ZM513 54 q0 23 15.5 38.5 q15.5 15.5 38.5 15.5 q24 0 40.5 -15.5 q16.5 -15.5 16.5 -38.5 q0 -23 -16.5 -38.5 q-16.5 -15.5 -40.5 -15.5 q-23 0 -38.5 15.5 q-15.5 15.5 -15.5 38.5 Z" /><glyph glyph-name="emdash" unicode="&#x2014;" d="M63 294 l670 0 l0 -80 l-670 0 l0 80 Z" /><glyph glyph-name="endash" unicode="&#x2013;" d="M63 294 l440 0 l0 -80 l-440 0 l0 80 Z" /><glyph glyph-name="equal" unicode="=" d="M69 220 l440 0 l0 -70 l-440 0 l0 70 ZM69 425 l440 0 l0 -70 l-440 0 l0 70 Z" /><glyph glyph-name="eth" unicode="ð" d="M183 490 l81 62 q-18 21 -38 42 q-20 21 -41 43 l58 54 q23 -25 43.5 -47.5 q20.5 -22.5 39.5 -44.5 l89 67 l36 -47 l-87 -67 q45 -60 71.5 -126.5 q26.5 -66.5 26.5 -157.5 q0 -70 -15.5 -122.5 q-15.5 -52.5 -44 -88 q-28.5 -35.5 -68.5 -53 q-40 -17.5 -89 -17.5 q-55 0 -95 14.5 q-40 14.5 -66.5 41 q-26.5 26.5 -39 64 q-12.5 37.5 -12.5 82.5 q0 56 22 95 q22 39 54.5 63.5 q32.5 24.5 70.5 35.5 q38 11 70 11 q22 0 43 -2.5 q21 -2.5 38 -4.5 q19 -4 37 -7 q-11 35 -27.5 65.5 q-16.5 30.5 -37.5 59.5 l-81 -63 l-38 48 ZM246 58 q65 0 96.5 48 q31.5 48 34.5 153 q1 24 -3 54 q-63 11 -113 11 q-72 0 -108 -36 q-36 -36 -36 -101 q0 -38 11 -62.5 q11 -24.5 29 -39.5 q18 -15 41.5 -21 q23.5 -6 47.5 -6 Z" /><glyph glyph-name="exclam" unicode="!" d="M73 728 l102 11 l-17 -557 l-65 0 l-20 546 ZM64 59 q0 24 17 41.5 q17 17.5 42 17.5 q26 0 44 -17.5 q18 -17.5 18 -41.5 q0 -25 -18 -42 q-18 -17 -44 -17 q-25 0 -42 17 q-17 17 -17 42 Z" /><glyph glyph-name="exclamdown" unicode="¡" d="M83 315 l65 0 l17 -557 l-102 11 l20 546 ZM54 434 q0 25 17 42 q17 17 42 17 q26 0 44 -17 q18 -17 18 -42 q0 -24 -18 -41.5 q-18 -17.5 -44 -17.5 q-25 0 -42 17.5 q-17 17.5 -17 41.5 Z" /><glyph glyph-name="f" unicode="f" d="M115 438 l-93 0 l0 65 l93 0 q0 70 9.5 118.5 q9.5 48.5 30.5 79 q21 30.5 54 44 q33 13.5 80 13.5 q38 0 71 -12.5 q33 -12.5 53 -30.5 l-35 -60 q-20 15 -41.5 24 q-21.5 9 -46.5 9 q-33 0 -52 -14.5 q-19 -14.5 -28.5 -39.5 q-9.5 -25 -12 -58.5 q-2.5 -33.5 -2.5 -72.5 l125 0 l0 -65 l-125 0 l0 -438 l-80 0 l0 438 Z" /><glyph glyph-name="fi" unicode="&#xfb01;" d="M115 438 l-93 0 l0 65 l92 0 q0 70 19.5 118.5 q19.5 48.5 51.5 79 q32 30.5 72.5 44 q40.5 13.5 81.5 13.5 q87 0 190 -65 l-36 -60 q-81 55 -153 55 q-41 0 -68.5 -14.5 q-27.5 -14.5 -45 -39.5 q-17.5 -25 -25 -58.5 q-7.5 -33.5 -7.5 -72.5 l141 0 q38 0 83 2 q45 2 110 8 l0 -513 l-80 0 l0 438 l-253 0 l0 -438 l-80 0 l0 438 Z" /><glyph glyph-name="five" unicode="5" d="M108 503 l317 0 l0 -70 l-243 0 l-18 -223 q11 3 23 5.5 q12 2.5 27 4 q15 1.5 33 1.5 q94 0 149 -50 q55 -50 55 -150 q0 -65 -20 -107 q-20 -42 -53 -66 q-33 -24 -74.5 -33.5 q-41.5 -9.5 -84.5 -9.5 q-98 2 -192 55 l27 67 q96 -52 166 -52 q78 0 112 37.5 q34 37.5 34 108.5 q0 29 -7 53 q-7 24 -22 41 q-15 17 -39.5 26.5 q-24.5 9.5 -59.5 9.5 q-24 0 -46 -3.5 q-22 -3.5 -40.5 -8.5 q-18.5 -5 -35.5 -12 l-39 6 l31 370 Z" /><glyph glyph-name="fl" unicode="&#xfb02;" d="M115 438 l-93 0 l0 65 l92 0 q0 139 63 202 q63 63 172 63 q84 0 179 -30 l0 -738 l-80 0 l0 683 q-46 15 -98 15 q-51 0 -82 -16 q-31 -16 -47 -43 q-16 -27 -21.5 -62 q-5.5 -35 -5.5 -74 l126 0 l0 -65 l-125 0 l0 -438 l-80 0 l0 438 Z" /><glyph glyph-name="four" unicode="4" d="M118 66 q35 1 71 2 q31 1 67 1.5 q36 0.5 70 0.5 l62 0 l0 105 q0 54 0.5 96 q0.5 42 1.5 71 q1 34 3 60 l-275 -336 ZM16 54 l372 449 l80 0 l0 -433 l70 0 l0 -70 l-70 0 l0 -195 l-80 0 l0 195 l-367 0 l-5 54 Z" /><glyph glyph-name="g" unicode="g" d="M466 -48 q0 -37 -8 -72 q-8 -35 -30.5 -62.5 q-22.5 -27.5 -63 -44 q-40.5 -16.5 -106.5 -16.5 q-42 1 -73 5 q-31 4 -59 11.5 q-28 7.5 -51 17.5 l21 70 q39 -17 79.5 -26 q40.5 -9 72.5 -9 q35 0 61 7 q26 7 43.5 23.5 q17.5 16.5 26 43.5 q8.5 27 8.5 67 l0 73 q-21 -14 -43.5 -25.5 q-22.5 -11.5 -48 -19.5 q-25.5 -8 -49.5 -8 q-93 0 -147 65.5 q-54 65.5 -54 195.5 q0 75 23.5 125.5 q23.5 50.5 59.5 81.5 q36 31 79 44.5 q43 13.5 82 13.5 q51 0 93.5 -8.5 q42.5 -8.5 83.5 -13.5 l0 -539 ZM255 57 q22 0 45 8 q23 8 44.5 19 q21.5 11 42.5 26 l0 319 q-12 3 -28 7 q-14 2 -32 4.5 q-18 2.5 -38 2.5 q-42 0 -72 -15 q-30 -15 -49.5 -41 q-19.5 -26 -28.5 -61 q-9 -35 -9 -74 q0 -35 7.5 -70 q7.5 -35 23.5 -63 q16 -28 39 -45 q23 -17 55 -17 Z" /><glyph glyph-name="germandbls" unicode="ß" d="M72 442 q0 79 9.5 138.5 q9.5 59.5 34.5 99.5 q25 40 68 59.5 q43 19.5 110 19.5 q35 0 71 -8.5 q36 -8.5 65 -29 q29 -20.5 47.5 -53 q18.5 -32.5 18.5 -80.5 q0 -44 -12.5 -72 q-12.5 -28 -32 -45.5 q-19.5 -17.5 -42 -28.5 q-22.5 -11 -41.5 -20 q-19 -9 -32 -20.5 q-13 -11.5 -13 -30.5 q0 -16 18.5 -30 q18.5 -14 47 -28.5 q28.5 -14.5 60.5 -31 q32 -16.5 60 -38 q28 -21.5 46.5 -49 q18.5 -27.5 18.5 -64.5 q0 -42 -18 -69.5 q-18 -27.5 -46.5 -44 q-28.5 -16.5 -62 -23 q-33.5 -6.5 -65.5 -6.5 q-29 0 -68.5 5 q-39.5 5 -80.5 17 l16 73 q46 -15 77 -19.5 q31 -4.5 57 -4.5 q18 0 37 3 q19 3 34 10.5 q15 7.5 25 21 q10 13.5 10 34.5 q-1 23 -19 40.5 q-18 17.5 -46 33 q-28 15.5 -60 31.5 q-32 16 -60.5 36 q-28.5 20 -47 45 q-18.5 25 -18.5 60 q0 31 14 50 q14 19 34.5 32 q20.5 13 44.5 22.5 q24 9.5 45 22 q21 12.5 34.5 31 q13.5 18.5 13.5 48.5 q0 31 -13.5 52 q-13.5 21 -34 33 q-20.5 12 -44.5 17 q-24 5 -45 5 q-49 0 -76.5 -19 q-27.5 -19 -40 -54 q-12.5 -35 -15.5 -86.5 q-3 -51.5 -3 -115.5 l0 -411 l-80 0 l0 442 Z" /><glyph glyph-name="grave" unicode="`" d="M100 710 l52 61 l172 -125 l-34 -45 l-190 109 Z" /><glyph glyph-name="greater" unicode="&gt;" d="M67 170 l259 135 l-259 125 l0 76 l373 -175 l0 -41 l-373 -206 l0 86 Z" /><glyph glyph-name="greaterequal" unicode="&#x2265;" d="M62 198 l225 144 l-225 134 l0 84 l343 -198 l0 -47 l-343 -204 l0 87 ZM62 70 l343 0 l0 -70 l-343 0 l0 70 Z" /><glyph glyph-name="guilsinglleft" unicode="&#x2039;" d="M283 73 l-53 -45 l-191 227 l191 227 l53 -45 l-152 -182 l152 -182 Z" /><glyph glyph-name="guilsinglright" unicode="&#x203a;" d="M196 255 l-152 182 l53 45 l191 -227 l-191 -227 l-53 45 l152 182 Z" /><glyph glyph-name="h" unicode="h" d="M72 749 l80 9 l0 -318 q30 20 59.5 35 q29.5 15 60.5 26.5 q31 11.5 60 11.5 q41 0 68.5 -9.5 q27.5 -9.5 44.5 -31.5 q17 -22 24.5 -58 q7.5 -36 7.5 -90 l0 -324 l-80 0 l0 315 q0 30 -1 53.5 q-1 23.5 -8.5 40 q-7.5 16.5 -23 25.5 q-15.5 9 -43.5 9 q-26 0 -56 -11.5 q-30 -11.5 -57 -26.5 q-27 -15 -56 -35 l0 -370 l-80 0 l0 749 Z" /><glyph glyph-name="hungarumlaut" unicode="&#x2dd;" d="M180 758 l95 0 l-89 -167 l-86 0 l80 167 ZM340 758 l95 0 l-85 -167 l-90 0 l80 167 Z" /><glyph glyph-name="hyphen" unicode="-­" d="M62 294 l267 0 l0 -74 l-267 0 l0 74 Z" /><glyph glyph-name="i" unicode="i" d="M72 504 l80 9 l0 -513 l-80 0 l0 504 ZM59 647 q0 23 15.5 38.5 q15.5 15.5 38.5 15.5 q24 0 40.5 -15.5 q16.5 -15.5 16.5 -38.5 q0 -23 -16.5 -38.5 q-16.5 -15.5 -40.5 -15.5 q-23 0 -38.5 15.5 q-15.5 15.5 -15.5 38.5 Z" /><glyph glyph-name="j" unicode="j" d="M152 514 l0 -505 q0 -90 -33 -148.5 q-33 -58.5 -103 -98.5 l-41 71 q30 18 49 39.5 q19 21.5 29.5 46 q10.5 24.5 14.5 50 q4 25.5 4 51.5 l0 482 l80 12 ZM56 647 q0 23 15.5 38.5 q15.5 15.5 38.5 15.5 q24 0 40.5 -15.5 q16.5 -15.5 16.5 -38.5 q0 -23 -16.5 -38.5 q-16.5 -15.5 -40.5 -15.5 q-23 0 -38.5 15.5 q-15.5 15.5 -15.5 38.5 Z" /><glyph glyph-name="k" unicode="k" d="M72 749 l80 9 l0 -451 l223 196 l110 0 l-218 -191 l226 -312 l-101 0 l-184 261 l-56 -49 l0 -212 l-80 0 l0 749 Z" /><glyph glyph-name="l" unicode="l" d="M72 749 l80 9 l0 -758 l-80 0 l0 749 Z" /><glyph glyph-name="less" unicode="&lt;" d="M41 290 l0 41 l373 175 l0 -76 l-259 -125 l259 -135 l0 -86 l-373 206 Z" /><glyph glyph-name="lessequal" unicode="&#x2264;" d="M52 362 l343 198 l0 -84 l-225 -134 l225 -144 l0 -87 l-343 204 l0 47 ZM52 70 l343 0 l0 -70 l-343 0 l0 70 Z" /><glyph glyph-name="logicalnot" unicode="¬" d="M69 294 l440 0 l0 -220 l-74 0 l0 146 l-366 0 l0 74 Z" /><glyph glyph-name="lslash" unicode="&#x142;" d="M5 326 l169 78 l0 345 l80 9 l0 -317 l150 70 l31 -69 l-181 -84 l0 -358 l-80 0 l0 321 l-138 -64 l-31 69 Z" /><glyph glyph-name="m" unicode="m" d="M73 412 q0 34 -6 82 l75 10 l11 -63 q27 20 53 35 q26 15 56 26 q30 11 61 11 q50 0 79 -17.5 q29 -17.5 43 -59.5 q41 29 85.5 53 q44.5 24 92.5 24 q37 0 63 -9.5 q26 -9.5 42 -31.5 q16 -22 23 -58 q7 -36 7 -90 l0 -324 l-80 0 l0 315 q0 30 -1 53.5 q-1 23.5 -7 40 q-6 16.5 -19.5 25.5 q-13.5 9 -38.5 9 q-23 0 -43.5 -6.5 q-20.5 -6.5 -42.5 -18.5 q-22 -12 -68 -49 l0 -369 l-80 0 l0 315 q0 30 -1 53.5 q-1 23.5 -7 40 q-6 16.5 -19.5 25.5 q-13.5 9 -38.5 9 q-26 0 -54 -11 q-28 -11 -53 -26 q-25 -15 -52 -35 l0 -371 l-80 0 l0 412 Z" /><glyph glyph-name="macron" unicode="¯&#x2c9;" d="M100 662 l406 0 l0 -70 l-406 0 l0 70 Z" /><glyph glyph-name="minus" unicode="&#x2212;" d="M69 327 l287 0 l0 -80 l-287 0 l0 80 Z" /><glyph glyph-name="multiply" unicode="×" d="M238 251 l-191 192 l42 43 l192 -192 l192 192 l42 -43 l-192 -192 l192 -191 l-42 -43 l-192 192 l-192 -192 l-42 43 l191 191 Z" /><glyph glyph-name="n" unicode="n" d="M73 403 q1 21 -5 91 l74 10 l11 -64 q30 20 59.5 35 q29.5 15 60.5 26.5 q31 11.5 60 11.5 q41 0 68.5 -9.5 q27.5 -9.5 44.5 -31.5 q17 -22 24.5 -58 q7.5 -36 7.5 -90 l0 -324 l-80 0 l0 315 q0 30 -1 53.5 q-1 23.5 -8.5 40 q-7.5 16.5 -23 25.5 q-15.5 9 -43.5 9 q-26 0 -55 -11.5 q-29 -11.5 -57 -26.5 q-28 -15 -57 -35 l0 -370 l-80 0 l0 403 Z" /><glyph glyph-name="nine" unicode="9" d="M62 -133 q134 45 208.5 109.5 q74.5 64.5 100.5 132.5 q-17 -2 -35 -4 q-16 -2 -36.5 -3 q-20.5 -1 -42.5 -1 q-39 0 -78 11 q-39 11 -69.5 35.5 q-30.5 24.5 -50 63.5 q-19.5 39 -19.5 95 q0 96 59 151 q59 55 162 56 q49 0 87.5 -16.5 q38.5 -16.5 65.5 -51.5 q27 -35 41.5 -89 q14.5 -54 14.5 -129 q0 -70 -18 -126.5 q-18 -56.5 -48.5 -101 q-30.5 -44.5 -70 -77.5 q-39.5 -33 -82 -57.5 q-42.5 -24.5 -85.5 -41.5 q-43 -17 -80 -28 l-24 72 ZM254 443 q-24 0 -47.5 -7.5 q-23.5 -7.5 -41.5 -23 q-18 -15.5 -29 -41.5 q-11 -26 -11 -63 q0 -65 36 -101 q36 -36 108 -36 q23 0 43 1 q20 1 36 3 q18 2 34 5 q1 5 2 13 q1 7 1 17.5 q0 10.5 0 25.5 q-4 207 -131 207 Z" /><glyph glyph-name="notequal" unicode="&#x2260;" d="M427 536 l-40 -111 l148 0 l0 -70 l-174 0 l-49 -135 l223 0 l0 -70 l-248 0 l-46 -127 l-66 24 l37 103 l-157 0 l0 70 l183 0 l49 135 l-232 0 l0 70 l257 0 l49 135 l66 -24 Z" /><glyph glyph-name="numbersign" unicode="#" d="M114 229 l-58 0 l0 70 l82 0 l25 74 l-90 0 l0 70 l114 0 l45 129 l70 -23 l-37 -106 l121 0 l46 134 l70 -23 l-39 -111 l59 0 l0 -70 l-83 0 l-25 -74 l69 0 l0 -70 l-93 0 l-49 -142 l-68 27 l39 115 l-121 0 l-50 -147 l-68 27 l41 120 ZM336 299 l26 74 l-121 0 l-26 -74 l121 0 Z" /><glyph glyph-name="o" unicode="o" d="M129 249 q0 -97 43.5 -144.5 q43.5 -47.5 117.5 -47.5 q73 0 114 47 q41 47 41 141 q0 100 -43.5 149 q-43.5 49 -118.5 49 q-75 0 -114.5 -48.5 q-39.5 -48.5 -39.5 -145.5 ZM44 250 q0 76 24 126.5 q24 50.5 61 81 q37 30.5 79.5 43 q42.5 12.5 80.5 12.5 q36 0 78.5 -11.5 q42.5 -11.5 78.5 -41 q36 -29.5 60 -79 q24 -49.5 24 -125.5 q0 -79 -24.5 -131 q-24.5 -52 -61.5 -82.5 q-37 -30.5 -80 -43 q-43 -12.5 -80 -12.5 q-38 0 -80 12 q-42 12 -77.5 41.5 q-35.5 29.5 -59 80.5 q-23.5 51 -23.5 129 Z" /><glyph glyph-name="oe" unicode="&#x153;" d="M836 14 q-83 -27 -163 -27 q-63 0 -113 23 q-50 23 -80 73 q-19 -27 -43.5 -45.5 q-24.5 -18.5 -50.5 -30 q-26 -11.5 -52.5 -16 q-26.5 -4.5 -50.5 -4.5 q-37 0 -79 11 q-42 11 -77.5 40.5 q-35.5 29.5 -59 81 q-23.5 51.5 -23.5 132.5 q0 72 22.5 121.5 q22.5 49.5 57.5 80.5 q35 31 77 45 q42 14 82 14 q24 0 50.5 -4 q26.5 -4 53 -14.5 q26.5 -10.5 51 -28.5 q24.5 -18 44.5 -47 q58 94 193 94 q49 0 84 -19 q35 -19 57.5 -51.5 q22.5 -32.5 33.5 -76 q11 -43.5 11 -91.5 l-15 -44 l-323 0 l0 -22 q3 -29 12.5 -56 q9.5 -27 29 -48.5 q19.5 -21.5 50 -34.5 q30.5 -13 73.5 -13 q72 0 133 22 l15 -65 ZM445 252 q0 97 -44 144 q-44 47 -118 47 q-78 0 -116 -49 q-38 -49 -38 -142 q0 -96 40 -145.5 q40 -49.5 114 -49.5 q77 0 119.5 45.5 q42.5 45.5 42.5 149.5 ZM778 295 q0 7 -3 31 q-3 24 -14 50 q-11 26 -33.5 46.5 q-22.5 20.5 -61.5 20.5 q-42 0 -69 -17.5 q-27 -17.5 -43 -41.5 q-16 -24 -22 -49 q-6 -25 -6 -40 l252 0 Z" /><glyph glyph-name="one" unicode="1" d="M168 411 l-131 -25 l-16 68 l178 49 l49 0 l0 -503 l-80 0 l0 411 Z" /><glyph glyph-name="ordfeminine" unicode="ª" d="M252 535 q-42 -2 -92 -11 q-22 -5 -37.5 -17.5 q-15.5 -12.5 -15.5 -36.5 q0 -23 12 -33 q12 -10 35 -10 q30 0 52.5 11 q22.5 11 45.5 30 l0 67 ZM251 416 q-34 -24 -57 -32 q-23 -8 -47 -8 q-22 0 -42 5.5 q-20 5.5 -34.5 16.5 q-14.5 11 -23 29 q-8.5 18 -8.5 43 q0 26 14.5 45.5 q14.5 19.5 37 32.5 q22.5 13 56 21.5 q33.5 8.5 105.5 12.5 q0 23 0 40 q0 17 -4.5 28 q-4.5 11 -16.5 16.5 q-12 5.5 -36 5.5 q-31 0 -58 -4 q-27 -4 -53 -10 l-11 57 q33 7 70 11 q37 4 63 4 q34 0 56 -10 q22 -10 34.5 -27.5 q12.5 -17.5 17.5 -39.5 q5 -22 5 -46 l0 -162 q0 -15 4 -61 l-65 -5 l-7 37 Z" /><glyph glyph-name="ordmasculine" unicode="º" d="M112 552 q0 -59 27 -89.5 q27 -30.5 77 -30.5 q50 0 75 30.5 q25 30.5 25 86.5 q0 60 -27 92 q-27 32 -78 32 q-51 0 -75 -31.5 q-24 -31.5 -24 -89.5 ZM44 552 q0 52 17.5 86 q17.5 34 43 54.5 q25.5 20.5 55.5 29 q30 8.5 55 8.5 q25 0 54 -8 q29 -8 54.5 -27.5 q25.5 -19.5 42.5 -53 q17 -33.5 17 -85.5 q0 -53 -17.5 -88 q-17.5 -35 -43.5 -56 q-26 -21 -55.5 -29.5 q-29.5 -8.5 -54.5 -8.5 q-26 0 -55.5 8 q-29.5 8 -54.5 28 q-25 20 -41.5 54.5 q-16.5 34.5 -16.5 87.5 Z" /><glyph glyph-name="oslash" unicode="ø" d="M101 65 q-26 30 -41.5 75.5 q-15.5 45.5 -15.5 109.5 q0 76 24 126.5 q24 50.5 61 81 q37 30.5 79.5 43 q42.5 12.5 80.5 12.5 q35 0 74.5 -10 q39.5 -10 74.5 -36 l53 63 l46 -38 l-56 -67 q22 -29 35.5 -70.5 q13.5 -41.5 13.5 -98.5 q0 -79 -24.5 -131 q-24.5 -52 -61.5 -82.5 q-37 -30.5 -80 -43 q-43 -12.5 -80 -12.5 q-33 0 -69.5 8.5 q-36.5 8.5 -68.5 29.5 l-49 -58 l-46 38 l50 60 ZM129 249 q0 -74 26 -120 l233 278 q-41 36 -105 36 q-75 0 -114.5 -48.5 q-39.5 -48.5 -39.5 -145.5 ZM445 245 q0 34 -5.5 61.5 q-5.5 27.5 -15.5 50.5 l-229 -273 q19 -14 43 -20.5 q24 -6.5 52 -6.5 q73 0 114 47 q41 47 41 141 Z" /><glyph glyph-name="p" unicode="p" d="M73 387 q0 36 -5 107 l74 10 l9 -54 q20 17 41.5 30.5 q21.5 13.5 47 23 q25.5 9.5 54.5 9.5 q41 0 77.5 -14 q36.5 -14 64 -45 q27.5 -31 43.5 -80.5 q16 -49.5 16 -121.5 q0 -73 -21.5 -123.5 q-21.5 -50.5 -56 -82 q-34.5 -31.5 -78 -45.5 q-43.5 -14 -88.5 -14 q-48 1 -98 12 l0 -217 l-80 -10 l0 615 ZM251 57 q42 0 72 15 q30 15 49.5 41.5 q19.5 26.5 28.5 61 q9 34.5 9 73.5 q0 35 -6.5 70 q-6.5 35 -21 62.5 q-14.5 27.5 -38.5 45 q-24 17.5 -59 17.5 q-26 0 -49 -9.5 q-23 -9.5 -43.5 -23 q-20.5 -13.5 -39.5 -30.5 l0 -307 q11 -4 24.5 -7.5 q13.5 -3.5 32 -6 q18.5 -2.5 41.5 -2.5 Z" /><glyph glyph-name="paragraph" unicode="¶" d="M359 612 l-72 0 l0 -346 l-48 0 q-51 0 -88.5 17.5 q-37.5 17.5 -62.5 47 q-25 29.5 -37 67 q-12 37.5 -12 76.5 q0 55 10 94 q10 39 32.5 64.5 q22.5 25.5 59 37.5 q36.5 12 89.5 12 l209 0 l0 -683 q0 -45 -6.5 -77.5 q-6.5 -32.5 -20.5 -59.5 q-14 -27 -37 -50.5 q-23 -23.5 -56 -48.5 l-56 60 q30 23 49 45.5 q19 22.5 29.5 45.5 q10.5 23 14 46.5 q3.5 23.5 3.5 49.5 l0 602 Z" /><glyph glyph-name="parenleft" unicode="(" d="M273 -262 q-45 36 -87 85 q-42 49 -74.5 113.5 q-32.5 64.5 -52.5 147 q-20 82.5 -20 187.5 q0 105 20 187 q20 82 52.5 146 q32.5 64 74.5 112 q42 48 87 84 l48 -46 q-58 -57 -94.5 -118.5 q-36.5 -61.5 -57.5 -123.5 q-21 -62 -28.5 -123 q-7.5 -61 -7.5 -119 q0 -58 7.5 -119 q7.5 -61 28.5 -123.5 q21 -62.5 57.5 -124 q36.5 -61.5 94.5 -119.5 l-48 -46 Z" /><glyph glyph-name="parenright" unicode=")" d="M14 -216 q58 58 94.5 119.5 q36.5 61.5 57.5 124 q21 62.5 28.5 123.5 q7.5 61 7.5 119 q0 58 -7.5 119 q-7.5 61 -28.5 123 q-21 62 -57.5 123.5 q-36.5 61.5 -94.5 118.5 l48 46 q45 -36 87 -84 q42 -48 74.5 -112 q32.5 -64 52.5 -146 q20 -82 20 -187 q0 -105 -20 -187.5 q-20 -82.5 -52.5 -147 q-32.5 -64.5 -74.5 -113.5 q-42 -49 -87 -85 l-48 46 Z" /><glyph glyph-name="percent" unicode="%" d="M46 540 q0 20 6 48.5 q6 28.5 23 54 q17 25.5 47.5 43.5 q30.5 18 78.5 18 q46 0 75 -18.5 q29 -18.5 44.5 -44.5 q15.5 -26 21 -54 q5.5 -28 5.5 -47 q0 -19 -5.5 -47 q-5.5 -28 -21 -54 q-15.5 -26 -44.5 -44.5 q-29 -18.5 -75 -18.5 q-48 0 -78.5 18 q-30.5 18 -47.5 43.5 q-17 25.5 -23 54 q-6 28.5 -6 48.5 ZM275 540 q0 17 -3 34.5 q-3 17.5 -11 32 q-8 14.5 -24 24 q-16 9.5 -41 9.5 q-23 0 -38 -9.5 q-15 -9.5 -24 -24 q-9 -14.5 -13 -32 q-4 -17.5 -4 -34.5 q0 -17 4 -34.5 q4 -17.5 13 -32 q9 -14.5 24 -24 q15 -9.5 38 -9.5 q25 0 41 9.5 q16 9.5 24 24 q8 14.5 11 32 q3 17.5 3 34.5 ZM420 151 q0 20 6 48.5 q6 28.5 23 54 q17 25.5 47.5 43.5 q30.5 18 78.5 18 q46 0 75 -18.5 q29 -18.5 44.5 -44.5 q15.5 -26 21 -54 q5.5 -28 5.5 -47 q0 -19 -5.5 -47 q-5.5 -28 -21 -54 q-15.5 -26 -44.5 -44.5 q-29 -18.5 -75 -18.5 q-48 0 -78.5 18 q-30.5 18 -47.5 43.5 q-17 25.5 -23 54 q-6 28.5 -6 48.5 ZM649 151 q0 17 -3 34.5 q-3 17.5 -11 32 q-8 14.5 -24 24 q-16 9.5 -41 9.5 q-23 0 -38 -9.5 q-15 -9.5 -24 -24 q-9 -14.5 -13 -32 q-4 -17.5 -4 -34.5 q0 -17 4 -34.5 q4 -17.5 13 -32 q9 -14.5 24 -24 q15 -9.5 38 -9.5 q25 0 41 9.5 q16 9.5 24 24 q8 14.5 11 32 q3 17.5 3 34.5 ZM602 743 l64 -48 l-519 -740 l-64 47 l519 741 Z" /><glyph glyph-name="period" unicode="." d="M51 59 q0 24 17 41.5 q17 17.5 42 17.5 q26 0 44 -17.5 q18 -17.5 18 -41.5 q0 -25 -18 -42 q-18 -17 -44 -17 q-25 0 -42 17 q-17 17 -17 42 Z" /><glyph glyph-name="periodcentered" unicode="·&#x2219;" d="M53 393 q0 25 17 42 q17 17 42 17 q25 0 42 -17 q17 -17 17 -42 q0 -25 -17 -42 q-17 -17 -42 -17 q-25 0 -42 17 q-17 17 -17 42 Z" /><glyph glyph-name="perthousand" unicode="&#x2030;" d="M49 540 q0 20 6 48.5 q6 28.5 23 54 q17 25.5 47.5 43.5 q30.5 18 78.5 18 q46 0 75 -18.5 q29 -18.5 44.5 -44.5 q15.5 -26 21 -54 q5.5 -28 5.5 -47 q0 -19 -5.5 -47 q-5.5 -28 -21 -54 q-15.5 -26 -44.5 -44.5 q-29 -18.5 -75 -18.5 q-48 0 -78.5 18 q-30.5 18 -47.5 43.5 q-17 25.5 -23 54 q-6 28.5 -6 48.5 ZM278 540 q0 17 -3 34.5 q-3 17.5 -11 32 q-8 14.5 -24 24 q-16 9.5 -41 9.5 q-23 0 -38 -9.5 q-15 -9.5 -24 -24 q-9 -14.5 -13 -32 q-4 -17.5 -4 -34.5 q0 -17 4 -34.5 q4 -17.5 13 -32 q9 -14.5 24 -24 q15 -9.5 38 -9.5 q25 0 41 9.5 q16 9.5 24 24 q8 14.5 11 32 q3 17.5 3 34.5 ZM423 151 q0 20 6 48.5 q6 28.5 23 54 q17 25.5 47.5 43.5 q30.5 18 78.5 18 q46 0 75 -18.5 q29 -18.5 44.5 -44.5 q15.5 -26 21 -54 q5.5 -28 5.5 -47 q0 -19 -5.5 -47 q-5.5 -28 -21 -54 q-15.5 -26 -44.5 -44.5 q-29 -18.5 -75 -18.5 q-48 0 -78.5 18 q-30.5 18 -47.5 43.5 q-17 25.5 -23 54 q-6 28.5 -6 48.5 ZM652 151 q0 17 -3 34.5 q-3 17.5 -11 32 q-8 14.5 -24 24 q-16 9.5 -41 9.5 q-23 0 -38 -9.5 q-15 -9.5 -24 -24 q-9 -14.5 -13 -32 q-4 -17.5 -4 -34.5 q0 -17 4 -34.5 q4 -17.5 13 -32 q9 -14.5 24 -24 q15 -9.5 38 -9.5 q25 0 41 9.5 q16 9.5 24 24 q8 14.5 11 32 q3 17.5 3 34.5 ZM761 151 q0 20 6 48.5 q6 28.5 23 54 q17 25.5 47.5 43.5 q30.5 18 78.5 18 q46 0 75 -18.5 q29 -18.5 44.5 -44.5 q15.5 -26 21 -54 q5.5 -28 5.5 -47 q0 -19 -5.5 -47 q-5.5 -28 -21 -54 q-15.5 -26 -44.5 -44.5 q-29 -18.5 -75 -18.5 q-48 0 -78.5 18 q-30.5 18 -47.5 43.5 q-17 25.5 -23 54 q-6 28.5 -6 48.5 ZM990 151 q0 17 -3 34.5 q-3 17.5 -11 32 q-8 14.5 -24 24 q-16 9.5 -41 9.5 q-23 0 -38 -9.5 q-15 -9.5 -24 -24 q-9 -14.5 -13 -32 q-4 -17.5 -4 -34.5 q0 -17 4 -34.5 q4 -17.5 13 -32 q9 -14.5 24 -24 q15 -9.5 38 -9.5 q25 0 41 9.5 q16 9.5 24 24 q8 14.5 11 32 q3 17.5 3 34.5 ZM605 743 l64 -48 l-519 -740 l-64 47 l519 741 Z" /><glyph glyph-name="plus" unicode="+" d="M44 294 l180 0 l0 180 l80 0 l0 -180 l180 0 l0 -74 l-180 0 l0 -180 l-80 0 l0 180 l-180 0 l0 74 Z" /><glyph glyph-name="plusminus" unicode="±" d="M56 74 l179 0 l0 146 l-180 0 l0 74 l180 0 l0 176 l80 0 l0 -176 l180 0 l0 -74 l-180 0 l0 -146 l181 0 l0 -74 l-440 0 l0 74 Z" /><glyph glyph-name="q" unicode="q" d="M386 40 q-29 -21 -68.5 -37 q-39.5 -16 -72.5 -16 q-41 0 -77.5 14 q-36.5 14 -64 45 q-27.5 31 -43.5 80.5 q-16 49.5 -16 121.5 q0 68 22.5 118 q22.5 50 58 82.5 q35.5 32.5 79 48.5 q43.5 16 84.5 16 q38 0 62 -4.5 q24 -4.5 42 -9.5 q18 -5 34 -9.5 q16 -4.5 39 -4.5 l0 -704 l-79 -10 l0 269 ZM254 57 q22 0 45 8 q23 8 44 19 q21 11 43 26 l0 319 q-9 3 -22 7 q-11 2 -30 4.5 q-19 2.5 -46 2.5 q-42 0 -72 -15 q-30 -15 -49.5 -41.5 q-19.5 -26.5 -28.5 -61 q-9 -34.5 -9 -73.5 q0 -35 7.5 -70 q7.5 -35 23.5 -63 q16 -28 39 -45 q23 -17 55 -17 Z" /><glyph glyph-name="question" unicode="?" d="M84 308 q0 33 15 52.5 q15 19.5 35.5 32 q20.5 12.5 45 24 q24.5 11.5 46 27 q21.5 15.5 35.5 39 q14 23.5 14 61.5 q0 51 -32 80 q-32 29 -86 29 q-15 0 -28.5 -2 q-13.5 -2 -48.5 -13 l-20 77 q42 13 61 15.5 q19 2.5 43 2.5 q43 0 79.5 -13 q36.5 -13 63.5 -36 q27 -23 42.5 -56.5 q15.5 -33.5 15.5 -73.5 q0 -49 -15 -81 q-15 -32 -37 -53.5 q-22 -21.5 -48.5 -36 q-26.5 -14.5 -48.5 -26 q-22 -11.5 -37 -24 q-15 -12.5 -15 -33.5 l0 -118 l-80 0 l0 126 ZM64 59 q0 24 17 41.5 q17 17.5 42 17.5 q26 0 44 -17.5 q18 -17.5 18 -41.5 q0 -25 -18 -42 q-18 -17 -44 -17 q-25 0 -42 17 q-17 17 -17 42 Z" /><glyph glyph-name="questiondown" unicode="¿" d="M342 434 q0 -24 -17 -41.5 q-17 -17.5 -42 -17.5 q-26 0 -44 17.5 q-18 17.5 -18 41.5 q0 25 18 42 q18 17 44 17 q25 0 42 -17 q17 -17 17 -42 ZM240 307 l80 0 l0 -128 q0 -35 -14 -54 q-14 -19 -35.5 -31.5 q-21.5 -12.5 -46 -22 q-24.5 -9.5 -46 -24 q-21.5 -14.5 -35.5 -38 q-14 -23.5 -14 -64.5 q0 -51 32 -80 q32 -29 86 -29 q37 0 77 15 l20 -77 q-45 -18 -104 -18 q-43 0 -79.5 13 q-36.5 13 -63.5 36 q-27 23 -42.5 56 q-15.5 33 -15.5 74 q0 47 14 79.5 q14 32.5 38 56.5 q24 24 70.5 46.5 q46.5 22.5 62.5 34 q16 11.5 16 27.5 l0 128 Z" /><glyph glyph-name="quotedbl" unicode="&quot;" d="M200 758 l80 0 l0 -245 l-80 0 l0 245 ZM60 758 l80 0 l0 -245 l-80 0 l0 245 Z" /><glyph glyph-name="quotedblbase" unicode="&#x201e;" d="M62 121 l82 9 l0 -77 q0 -24 -9 -54.5 q-9 -30.5 -20 -57.5 q-13 -32 -29 -64 l-62 11 q10 28 19 55 q7 23 13 50 q6 27 6 48 l0 80 ZM204 121 l82 9 l0 -77 q0 -24 -9 -54.5 q-9 -30.5 -20 -57.5 q-13 -32 -29 -64 l-62 11 q10 28 19 55 q7 23 13 50 q6 27 6 48 l0 80 Z" /><glyph glyph-name="quotedblleft" unicode="&#x201c;" d="M204 587 q0 24 9 54.5 q9 30.5 20 57.5 q12 32 29 64 l62 -11 q-11 -29 -19 -56 q-8 -23 -13.5 -49.5 q-5.5 -26.5 -5.5 -47.5 l0 -80 l-82 -9 l0 77 ZM58 587 q0 24 9 54.5 q9 30.5 20 57.5 q12 32 29 64 l62 -11 q-11 -29 -19 -56 q-8 -23 -13.5 -49.5 q-5.5 -26.5 -5.5 -47.5 l0 -80 l-82 -9 l0 77 Z" /><glyph glyph-name="quotedblright" unicode="&#x201d;" d="M235 758 l82 9 l0 -77 q0 -24 -9 -54.5 q-9 -30.5 -20 -57.5 q-13 -32 -29 -64 l-62 11 q10 28 19 55 q7 23 13 50 q6 27 6 48 l0 80 ZM82 758 l82 9 l0 -77 q0 -24 -9 -54.5 q-9 -30.5 -20 -57.5 q-13 -32 -29 -64 l-62 11 q10 28 19 55 q7 23 13 50 q6 27 6 48 l0 80 Z" /><glyph glyph-name="quoteleft" unicode="&#x2018;" d="M58 595 q0 24 9 54.5 q9 30.5 20 57.5 q12 32 29 64 l62 -11 q-11 -29 -19 -56 q-8 -23 -13.5 -49.5 q-5.5 -26.5 -5.5 -47.5 l0 -80 l-82 -9 l0 77 Z" /><glyph glyph-name="quoteright" unicode="&#x2019;" d="M84 761 l82 9 l0 -77 q0 -24 -9 -54.5 q-9 -30.5 -20 -57.5 q-13 -32 -29 -64 l-62 11 q10 28 19 55 q7 23 13 50 q6 27 6 48 l0 80 Z" /><glyph glyph-name="quotesinglbase" unicode="&#x201a;" d="M62 121 l82 9 l0 -77 q0 -24 -9 -54.5 q-9 -30.5 -20 -57.5 q-13 -32 -29 -64 l-62 11 q10 28 19 55 q7 23 13 50 q6 27 6 48 l0 80 Z" /><glyph glyph-name="quotesingle" unicode="&#39;" d="M60 758 l80 0 l0 -245 l-80 0 l0 245 Z" /><glyph glyph-name="r" unicode="r" d="M73 422 q0 23 -5 72 l74 10 l8 -73 l1 0 q18 23 35 40 q17 17 35.5 29.5 q18.5 12.5 35.5 12.5 q23 1 64 -5 l-18 -77 q-33 6 -46 5 q-17 0 -36 -16 q-19 -16 -33 -34 q-18 -22 -35 -50 l0 -336 l-80 0 l0 422 Z" /><glyph glyph-name="registered" unicode="®" d="M50 341 q0 70 26.5 132.5 q26.5 62.5 73 108.5 q46.5 46 108 73 q61.5 27 132.5 27 q70 0 132.5 -27 q62.5 -27 108.5 -73 q46 -46 73 -108.5 q27 -62.5 27 -132.5 q0 -71 -27 -132.5 q-27 -61.5 -73 -108 q-46 -46.5 -108.5 -73 q-62.5 -26.5 -132.5 -26.5 q-71 0 -132.5 26.5 q-61.5 26.5 -108 73 q-46.5 46.5 -73 108 q-26.5 61.5 -26.5 132.5 ZM107 341 q0 -58 22.5 -109.5 q22.5 -51.5 61 -90 q38.5 -38.5 90 -61 q51.5 -22.5 109.5 -22.5 q59 0 110.5 22.5 q51.5 22.5 90 61 q38.5 38.5 60.5 90 q22 51.5 22 109.5 q0 59 -22 110.5 q-22 51.5 -60.5 90 q-38.5 38.5 -90 60.5 q-51.5 22 -110.5 22 q-58 0 -109.5 -22 q-51.5 -22 -90 -60.5 q-38.5 -38.5 -61 -90 q-22.5 -51.5 -22.5 -110.5 ZM277 543 l94 0 q63 0 100.5 -26.5 q37.5 -26.5 37.5 -82.5 q0 -35 -11.5 -56.5 q-11.5 -21.5 -27.5 -35 q-16 -13.5 -37 -18.5 l-2 -4 q2 -1 4 -3 q2 -2 4 -5 q2 -3 6 -7 l110 -146 l-77 0 l-112 153 l-25 0 l0 -153 l-64 0 l0 384 ZM442 426 q0 33 -17.5 44.5 q-17.5 11.5 -53.5 11.5 l-30 0 l0 -109 l38 0 q34 0 48 14 q14 14 15 39 Z" /><glyph glyph-name="ring" unicode="&#x2da;" d="M100 675 q0 23 8 43 q8 20 22.5 34.5 q14.5 14.5 33.5 23 q19 8.5 42 8.5 q47 0 79 -31 q32 -31 32 -78 q0 -23 -8.5 -42.5 q-8.5 -19.5 -23.5 -34 q-15 -14.5 -35.5 -23 q-20.5 -8.5 -43.5 -8.5 q-23 0 -42 8.5 q-19 8.5 -33.5 23 q-14.5 14.5 -22.5 34 q-8 19.5 -8 42.5 ZM151 675 q0 -24 16.5 -40.5 q16.5 -16.5 40.5 -16.5 q24 0 41 16.5 q17 16.5 17 40.5 q0 24 -17 41 q-17 17 -41 17 q-24 0 -40.5 -17 q-16.5 -17 -16.5 -41 Z" /><glyph glyph-name="s" unicode="s" d="M344 421 q-42 13 -74.5 17.5 q-32.5 4.5 -59.5 4.5 q-35 0 -58.5 -17 q-23.5 -17 -23.5 -44 q1 -24 21 -41 q20 -17 46.5 -30.5 q26.5 -13.5 59 -29.5 q32.5 -16 61 -36 q28.5 -20 46.5 -48 q18 -28 19 -67 q-1 -42 -18.5 -69.5 q-17.5 -27.5 -45 -44 q-27.5 -16.5 -59.5 -23 q-32 -6.5 -60 -6.5 q-36 0 -74.5 4 q-38.5 4 -82.5 17 l15 72 q45 -12 82 -17.5 q37 -5.5 61 -5.5 q18 0 35.5 4 q17.5 4 31.5 11.5 q14 7.5 22.5 19.5 q8.5 12 8.5 27 q-1 28 -19 47.5 q-18 19.5 -46.5 35 q-28.5 15.5 -61 31 q-32.5 15.5 -61 36 q-28.5 20.5 -47.5 49 q-19 28.5 -19 70.5 q0 30 15.5 53.5 q15.5 23.5 40 39 q24.5 15.5 54 24 q29.5 8.5 57.5 8.5 q29 0 65 -4.5 q36 -4.5 83 -16.5 l-14 -71 Z" /><glyph glyph-name="section" unicode="§" d="M440 675 q-57 10 -92.5 13 q-35.5 3 -67.5 3 q-74 -1 -106 -23.5 q-32 -22.5 -32 -69.5 q0 -35 26.5 -60.5 q26.5 -25.5 65.5 -45.5 q39 -20 85.5 -40.5 q46.5 -20.5 85.5 -45.5 q39 -25 65.5 -60 q26.5 -35 26.5 -85 q0 -30 -8.5 -55 q-8.5 -25 -22 -45.5 q-13.5 -20.5 -31 -37 q-17.5 -16.5 -36.5 -29.5 q44 -27 71 -62.5 q27 -35.5 27 -89.5 q0 -59 -28 -95.5 q-28 -36.5 -69 -56.5 q-41 -20 -86.5 -26.5 q-45.5 -6.5 -80.5 -6.5 q-40 0 -87.5 7 q-47.5 7 -93.5 25 l20 81 q50 -19 89.5 -26 q39.5 -7 71.5 -7 q39 0 71.5 5 q32.5 5 56.5 16 q24 11 37.5 29 q13.5 18 13.5 44 q0 37 -26.5 62.5 q-26.5 25.5 -65.5 45.5 q-39 20 -85 40.5 q-46 20.5 -85.5 46 q-39.5 25.5 -66 62 q-26.5 36.5 -26.5 91.5 q0 25 8.5 47.5 q8.5 22.5 22.5 42 q14 19.5 32 36.5 q18 17 38 31 q-43 28 -72 66 q-29 38 -29 96 q0 32 14 63 q14 31 42 55.5 q28 24.5 69.5 39 q41.5 14.5 97.5 14.5 q36 0 78.5 -4 q42.5 -4 95.5 -16 l-14 -75 ZM411 250 q0 25 -17 46.5 q-17 21.5 -43.5 39.5 q-26.5 18 -58 33 q-31.5 15 -61.5 28 q-42 -26 -65.5 -56 q-23.5 -30 -23.5 -62 q0 -25 17.5 -46 q17.5 -21 44 -39 q26.5 -18 59 -34 q32.5 -16 62.5 -29 q40 25 63 56.5 q23 31.5 23 62.5 Z" /><glyph glyph-name="semicolon" unicode=";" d="M74 395 q0 24 17 41.5 q17 17.5 42 17.5 q26 0 44 -17.5 q18 -17.5 18 -41.5 q0 -25 -18 -42 q-18 -17 -44 -17 q-25 0 -42 17 q-17 17 -17 42 ZM82 119 l85 0 l-56 -258 l-63 12 l34 246 Z" /><glyph glyph-name="seven" unicode="7" d="M40 503 l391 0 l0 -38 l-160 -384 q-18 -43 -37.5 -81 q-19.5 -38 -41.5 -73 q-22 -35 -47.5 -68 q-25.5 -33 -55.5 -66 l-59 53 q33 38 58.5 72.5 q25.5 34.5 46 68.5 q20.5 34 37.5 68.5 q17 34.5 32 71.5 l127 306 l-291 0 l0 70 Z" /><glyph glyph-name="six" unicode="6" d="M459 620 q-134 -42 -208 -100.5 q-74 -58.5 -101 -132.5 l35 3 q16 2 36 3 q20 1 43 1 q39 0 78 -10.5 q39 -10.5 69.5 -34 q30.5 -23.5 50 -61.5 q19.5 -38 19.5 -94 q0 -48 -17.5 -86 q-17.5 -38 -47.5 -65 q-30 -27 -70.5 -41.5 q-40.5 -14.5 -85.5 -14.5 q-100 0 -154.5 65.5 q-54.5 65.5 -54.5 215.5 q0 70 18.5 126 q18.5 56 49 99.5 q30.5 43.5 70 76 q39.5 32.5 82 56 q42.5 23.5 85 39.5 q42.5 16 78.5 26 l25 -71 ZM266 57 q24 0 47.5 7 q23.5 7 42 23 q18.5 16 29.5 41.5 q11 25.5 11 63.5 q0 65 -36 98.5 q-36 33.5 -108 33.5 q-23 0 -43.5 -1 q-20.5 -1 -68.5 -6 q-5 -46 -4 -58 q3 -105 34 -153.5 q31 -48.5 96 -48.5 Z" /><glyph glyph-name="slash" unicode="/" d="M405 850 l75 -28 l-375 -1031 l-75 28 l375 1031 Z" /><glyph glyph-name="sterling" unicode="£" d="M50 59 l88 15 l-17 233 l-59 -6 l-7 71 l61 8 l-9 129 q-3 40 9 73.5 q12 33.5 39 57.5 q27 24 68 37.5 q41 13.5 97 13.5 q36 0 68 -4 q32 -4 55 -9 q27 -6 50 -13 l-21 -68 q-22 7 -47 12 q-21 5 -48.5 8.5 q-27.5 3.5 -56.5 3.5 q-29 0 -54 -5.5 q-25 -5.5 -42 -19.5 q-17 -14 -26 -37.5 q-9 -23.5 -6 -60.5 l8 -111 l238 0 l0 -75 l-233 0 l18 -232 l284 0 l0 -80 l-315 0 q-21 0 -46 -2 q-25 -2 -86 -11 l-10 72 Z" /><glyph glyph-name="t" unicode="t" d="M189 653 l0 -150 l145 0 l0 -65 l-145 0 l0 -267 q0 -33 1.5 -55 q1.5 -22 6.5 -35 q5 -13 14 -18.5 q9 -5.5 23 -5.5 q38 1 88 28 l24 -61 q-33 -22 -61.5 -29.5 q-28.5 -7.5 -56.5 -7.5 q-66 0 -92.5 37.5 q-26.5 37.5 -26.5 124.5 l0 289 l-92 0 l0 65 l92 0 l0 140 l80 10 Z" /><glyph glyph-name="three" unicode="3" d="M45 -92 q19 -9 36.5 -15.5 q17.5 -6.5 34 -10 q16.5 -3.5 34 -5.5 q17.5 -2 37.5 -2 q26 0 50 8 q24 8 42 24 q18 16 29 40.5 q11 24.5 11 57.5 q0 66 -53.5 102 q-53.5 36 -140.5 37 l0 70 q85 0 135.5 36 q50.5 36 50.5 105 q0 19 -4.5 35 q-4.5 16 -16 28 q-11.5 12 -30.5 18.5 q-19 6.5 -48 6.5 q-24 0 -45.5 -3 q-21.5 -3 -38.5 -6 q-19 -4 -37 -8 l-20 65 q19 6 43 11 q20 4 48 7.5 q28 3.5 61 3.5 q78 0 125.5 -37.5 q47.5 -37.5 47.5 -119.5 q0 -40 -13 -69.5 q-13 -29.5 -31.5 -50.5 q-18.5 -21 -40 -33.5 q-21.5 -12.5 -39.5 -18.5 l0 -3 q25 -9 49 -24 q24 -15 42.5 -37 q18.5 -22 29.5 -50.5 q11 -28.5 11 -64.5 q0 -59 -21.5 -97.5 q-21.5 -38.5 -53.5 -61.5 q-32 -23 -70.5 -32 q-38.5 -9 -71.5 -9 q-38 0 -68.5 5.5 q-30.5 5.5 -52.5 12.5 q-26 8 -46 18 l25 67 Z" /><glyph glyph-name="tilde" unicode="&#x2dc;" d="M454 663 q-27 -34 -52.5 -48.5 q-25.5 -14.5 -50.5 -14.5 q-25 0 -44.5 6 q-19.5 6 -36 13.5 q-16.5 7.5 -30 14 q-13.5 6.5 -25.5 6.5 q-20 0 -35 -10 q-15 -10 -28 -27 l-52 44 q26 35 55 46.5 q29 11.5 56 11.5 q21 0 39 -6.5 q18 -6.5 34 -14 q16 -7.5 29.5 -13.5 q13.5 -6 26.5 -6 q23 0 36.5 12.5 q13.5 12.5 23.5 26.5 l54 -41 Z" /><glyph glyph-name="trademark" unicode="&#x2122;" d="M157 709 l-112 0 l0 50 l283 0 l0 -50 l-112 0 l0 -360 l-59 0 l0 360 ZM394 759 l64 0 l128 -337 l1 0 l129 337 l64 0 l21 -410 l-51 0 l-17 265 q-1 11 -0.5 19 q0.5 8 1.5 14 q1 7 3 12 l-1 0 l-124 -310 l-51 0 l-125 310 l-1 0 q1 -5 2 -12 q1 -6 1.5 -14 q0.5 -8 0.5 -19 l-16 -265 l-51 0 l22 410 Z" /><glyph glyph-name="two" unicode="2" d="M43 38 q82 65 147 127 q28 26 54.5 54 q26.5 28 47.5 55 q21 27 33.5 51.5 q12.5 24.5 12.5 44.5 q0 32 -20.5 52.5 q-20.5 20.5 -80.5 20.5 q-31 0 -60 -5 q-29 -5 -52 -10 q-27 -7 -52 -15 l-24 64 q26 10 59 18 q27 7 63.5 12.5 q36.5 5.5 77.5 5.5 q33 0 64.5 -6.5 q31.5 -6.5 56 -22 q24.5 -15.5 39 -41.5 q14.5 -26 14.5 -66 q0 -23 -10 -48.5 q-10 -25.5 -25.5 -51 q-15.5 -25.5 -36 -51 q-20.5 -25.5 -41.5 -48.5 q-49 -54 -112 -107 q24 1 50 2 q23 1 52.5 1.5 q29.5 0.5 61.5 0.5 l76 0 l0 -75 l-395 0 l0 38 Z" /><glyph glyph-name="u" unicode="u" d="M373 55 l-2 0 q-9 -7 -26 -18.5 q-17 -11.5 -39 -22.5 q-22 -11 -48.5 -19 q-26.5 -8 -53.5 -8 q-37 0 -63 9.5 q-26 9.5 -42 31.5 q-16 22 -23 58 q-7 36 -7 90 l0 327 l80 0 l0 -315 q0 -30 1 -54 q1 -24 7 -41 q6 -17 19.5 -26.5 q13.5 -9.5 38.5 -9.5 q26 0 54 11 q28 11 51 25 q27 16 53 36 l0 374 l80 0 l0 -438 q1 -36 5 -65 l-79 -8 l-6 63 Z" /><glyph glyph-name="underscore" unicode="_" d="M59 -66 l441 0 l0 -60 l-441 0 l0 60 Z" /><glyph glyph-name="mu" unicode="µ&#x3bc;" d="M76 503 l80 0 l0 -315 q0 -30 1 -54 q1 -24 7 -41 q6 -17 19.5 -26.5 q13.5 -9.5 38.5 -9.5 q26 0 54 11 q28 11 51 25 q27 16 53 36 l0 374 l80 0 l0 -438 q0 -28 5 -65 l-79 -8 l-6 63 l-2 0 q-9 -7 -26 -18.5 q-17 -11.5 -39 -22.5 q-22 -11 -48.5 -19 q-26.5 -8 -53.5 -8 q-23 0 -33.5 3.5 q-10.5 3.5 -21.5 9.5 l0 -227 l-80 0 l0 730 Z" /><glyph glyph-name="v" unicode="v" d="M10 503 l88 0 l122 -355 l22 -79 l1 0 l23 79 l130 355 l84 0 l-195 -503 l-90 0 l-185 503 Z" /><glyph glyph-name="w" unicode="w" d="M18 503 l84 0 l59 -227 q8 -29 14.5 -61.5 q6.5 -32.5 12.5 -60.5 q6 -33 13 -65 l1 0 q7 32 16 65 q8 28 17 60.5 q9 32.5 18 61.5 l71 227 l107 0 l57 -227 q7 -29 14.5 -61.5 q7.5 -32.5 12.5 -60.5 q6 -33 12 -65 l1 0 q9 33 19 66 q8 28 18 60.5 q10 32.5 19 60.5 l70 227 l83 0 l-165 -503 l-89 0 l-72 276 q-10 38 -16.5 68.5 q-6.5 30.5 -11.5 51.5 q-5 25 -9 44 l-2 0 q-4 -19 -10 -44 q-5 -21 -14 -51.5 q-9 -30.5 -20 -68.5 l-85 -276 l-89 0 l-136 503 Z" /><glyph glyph-name="x" unicode="x" d="M204 264 l-186 239 l94 0 l147 -186 l139 186 l90 0 l-175 -236 l192 -267 l-94 0 l-153 213 l-155 -213 l-90 0 l191 264 Z" /><glyph glyph-name="y" unicode="y" d="M7 503 l85 0 l94 -227 q14 -33 25.5 -66 q11.5 -33 20.5 -59 q11 -31 19 -60 l1 0 q9 29 20 60 q9 26 21 59 q12 33 25 66 l87 227 l84 0 l-238 -600 q-14 -37 -36.5 -64 q-22.5 -27 -43.5 -45 q-25 -21 -52 -36 l-39 69 q21 10 39 25 q16 13 32 32.5 q16 19.5 26 46.5 l31 82 l-201 490 Z" /><glyph glyph-name="yen" unicode="¥" d="M265 107 l-198 0 l0 70 l198 0 l0 81 l-198 0 l0 70 l158 0 l-178 354 l95 0 l165 -326 l166 326 l95 0 l-178 -354 l158 0 l0 -70 l-198 0 l0 -81 l198 0 l0 -70 l-198 0 l0 -107 l-85 0 l0 107 Z" /><glyph glyph-name="z" unicode="z" d="M24 31 l287 410 q-42 -3 -59.5 -3.5 q-17.5 -0.5 -39.5 -0.5 l-163 0 l0 66 l375 0 l0 -35 l-282 -405 q36 2 48 2.5 q12 0.5 23 0.5 l210 0 l0 -66 l-399 0 l0 31 Z" /><glyph glyph-name="zero" unicode="0" d="M134 250 q0 -36 11 -69.5 q11 -33.5 33 -58.5 q22 -25 53 -40 q31 -15 72 -15 q40 0 71 15 q31 15 52.5 40 q21.5 25 32.5 58.5 q11 33.5 11 69.5 q0 37 -11 70.5 q-11 33.5 -32.5 58.5 q-21.5 25 -52.5 39.5 q-31 14.5 -71 14.5 q-41 0 -72 -14.5 q-31 -14.5 -53 -39.5 q-22 -25 -33 -58.5 q-11 -33.5 -11 -70.5 ZM49 250 q0 55 19 103 q19 48 53 83.5 q34 35.5 80.5 56 q46.5 20.5 101.5 20.5 q54 0 100.5 -20.5 q46.5 -20.5 80 -56 q33.5 -35.5 52.5 -83.5 q19 -48 19 -103 q0 -54 -19 -102 q-19 -48 -52.5 -84 q-33.5 -36 -80 -56.5 q-46.5 -20.5 -100.5 -20.5 q-55 0 -101.5 20.5 q-46.5 20.5 -80.5 56.5 q-34 36 -53 84 q-19 48 -19 102 Z" /><glyph glyph-name="infinity" unicode="&#x221e;" d="M420 439 q10 18 26 35.5 q16 17.5 35.5 31.5 q19.5 14 42.5 22.5 q23 8.5 48 8.5 q46 0 80.5 -18 q34.5 -18 56.5 -46.5 q22 -28.5 33 -63.5 q11 -35 11 -70 q0 -44 -12.5 -80.5 q-12.5 -36.5 -36 -62.5 q-23.5 -26 -57 -40.5 q-33.5 -14.5 -75.5 -14.5 q-26 0 -51.5 8.5 q-25.5 8.5 -48 22 q-22.5 13.5 -42 31 q-19.5 17.5 -34.5 35.5 q-26 -44 -66.5 -70.5 q-40.5 -26.5 -90.5 -26.5 q-47 0 -81 18 q-34 18 -56 46.5 q-22 28.5 -33 63.5 q-11 35 -11 70 q0 44 12.5 80.5 q12.5 36.5 36 62.5 q23.5 26 57 40.5 q33.5 14.5 75.5 14.5 q26 0 52 -8.5 q26 -8.5 49.5 -22 q23.5 -13.5 44 -31.5 q20.5 -18 35.5 -36 ZM385 368 q-12 15 -27 30 q-15 15 -33 27 q-18 12 -39.5 19.5 q-21.5 7.5 -46.5 7.5 q-21 0 -41 -5.5 q-20 -5.5 -35.5 -18.5 q-15.5 -13 -25 -35 q-9.5 -22 -9.5 -54 q0 -28 9.5 -49 q9.5 -21 25.5 -35.5 q16 -14.5 36 -21.5 q20 -7 40 -7 q27 0 48.5 10.5 q21.5 10.5 39 29.5 q17.5 19 32 45 q14.5 26 26.5 57 ZM433 309 q10 -16 24 -31 q14 -15 31 -26.5 q17 -11.5 38 -18.5 q21 -7 46 -7 q21 0 41 5.5 q20 5.5 35.5 18.5 q15.5 13 25 35 q9.5 22 9.5 54 q0 28 -10 49 q-10 21 -25.5 35.5 q-15.5 14.5 -35.5 21.5 q-20 7 -40 7 q-27 0 -47 -10.5 q-20 -10.5 -36.5 -29.5 q-16.5 -19 -30 -45.5 q-13.5 -26.5 -25.5 -57.5 Z" /><glyph glyph-name="Thorn" unicode="þ" d="M172 563 l83 0 q130 0 192.5 -46 q62.5 -46 62.5 -155 q0 -60 -23 -100 q-23 -40 -57.5 -64.5 q-34.5 -24.5 -74.5 -35 q-40 -10.5 -74 -10.5 l-109 0 l0 -152 l-84 0 l0 682 l84 0 l0 -119 ZM172 488 l0 -261 l102 0 q34 0 61.5 6.5 q27.5 6.5 47.5 22 q20 15.5 31 42 q11 26.5 11 66.5 q0 40 -11.5 64.5 q-11.5 24.5 -34 37.5 q-22.5 13 -56.5 17.5 q-34 4.5 -79 4.5 l-72 0 Z" /><glyph glyph-name="thorn" unicode="þ" d="M152 -228 l-80 0 l0 977 l80 9 l0 -298 q39 26 77.5 39.5 q38.5 13.5 63.5 13.5 q41 0 77.5 -16 q36.5 -16 64 -48 q27.5 -32 43.5 -81 q16 -49 16 -116 q0 -74 -20.5 -124.5 q-20.5 -50.5 -55 -81.5 q-34.5 -31 -78.5 -45 q-44 -14 -90 -14 q-52 0 -98 11 l0 -226 ZM284 443 q-21 0 -53 -12 q-32 -12 -79 -43 l0 -314 q52 -17 98 -17 q46 0 77 13 q31 13 49 38 q18 25 25.5 60.5 q7.5 35.5 7.5 79.5 q0 35 -7.5 70 q-7.5 35 -23.5 62.5 q-16 27.5 -39.5 45 q-23.5 17.5 -54.5 17.5 Z" /><glyph glyph-name="onesuperior" unicode="¹" d="M135 614 l-100 -22 l-12 46 l140 44 l39 0 l0 -367 l-67 0 l0 299 Z" /><glyph glyph-name="twosuperior" unicode="²" d="M51 356 q48 44 86 86 q16 18 31.5 37.5 q15.5 19.5 28 38.5 q12.5 19 20 36.5 q7.5 17.5 7.5 31.5 q0 26 -13.5 36 q-13.5 10 -48.5 10 q-17 0 -33 -2.5 q-16 -2.5 -30 -6 q-14 -3.5 -27 -7.5 l-17 53 q14 6 30.5 10.5 q16.5 4.5 38.5 8 q22 3.5 49 3.5 q24 0 45.5 -4.5 q21.5 -4.5 38.5 -16 q17 -11.5 27 -30.5 q10 -19 10 -48 q-1 -37 -25.5 -76 q-24.5 -39 -49.5 -68 q-33 -39 -75 -78 q9 1 22 2 q11 1 28.5 1.5 q17.5 0.5 41.5 0.5 l69 0 l0 -59 l-254 0 l0 41 Z" /><glyph glyph-name="threesuperior" unicode="³" d="M62 378 q24 -11 40.5 -13 q16.5 -2 28.5 -2 q71 0 71 59 q0 31 -25 45.5 q-25 14.5 -80 14.5 l0 48 q53 0 77 17 q24 17 24 44 q0 17 -11 28.5 q-11 11.5 -43 12.5 q-13 0 -24.5 -1 q-11.5 -1 -33.5 -7 l-18 55 q27 8 45.5 10 q18.5 2 36.5 2 q25 0 46.5 -5 q21.5 -5 37.5 -15.5 q16 -10.5 25 -26.5 q9 -16 9 -38 q0 -22 -7 -38.5 q-7 -16.5 -17 -28.5 q-10 -12 -22 -19.5 q-12 -7.5 -21 -10.5 l0 -2 q29 -10 50 -32 q21 -22 21 -59 q0 -32 -14 -53 q-14 -21 -35 -33 q-21 -12 -45.5 -17 q-24.5 -5 -46.5 -5 q-51 0 -91 19 l22 51 Z" /><glyph glyph-name="currency" unicode="¤" d="M396 67 q-25 -20 -55.5 -30.5 q-30.5 -10.5 -62.5 -10.5 q-69 0 -120 42 l-69 -82 l-39 33 l72 86 q-22 29 -34 66.5 q-12 37.5 -12 78.5 q0 42 12 79 q12 37 34 66 l-72 86 l39 33 l69 -82 q52 43 120 43 q66 0 119 -42 l68 81 l39 -33 l-72 -85 q23 -30 35.5 -67 q12.5 -37 12.5 -79 q0 -42 -13 -79 q-13 -37 -36 -67 l73 -85 l-39 -33 l-69 81 ZM140 250 q0 -35 11 -64.5 q11 -29.5 30 -51 q19 -21.5 44 -33.5 q25 -12 53 -12 q28 0 53.5 12 q25.5 12 44 33.5 q18.5 21.5 29.5 51 q11 29.5 11 64.5 q0 36 -11 65.5 q-11 29.5 -29.5 51 q-18.5 21.5 -44 33.5 q-25.5 12 -53.5 12 q-28 0 -53 -12 q-25 -12 -44 -33.5 q-19 -21.5 -30 -51 q-11 -29.5 -11 -65.5 Z" /><glyph glyph-name="fraction" unicode="&#x2044;" d="M298 757 l56 -20 l-296 -812 l-56 20 l296 812 Z" /><glyph glyph-name="fourinferior" unicode="&#x2084;" d="M102 138 q61 2 89 2 l33 0 l0 55 q0 56 3 99 l-125 -156 ZM29 131 l195 236 l67 0 l0 -227 l37 0 l0 -57 l-37 0 l0 -83 l-67 0 l0 83 l-195 0 l0 48 Z" /><glyph glyph-name="ogonek" unicode="&#x2db;" d="M165 0 q-22 -11 -36 -30 q-14 -19 -17 -38 q-3 -19 7.5 -33 q10.5 -14 34.5 -14 q22 0 44 6 l15 -57 q-39 -11 -66 -10 q-42 0 -70.5 18 q-28.5 18 -39 46 q-10.5 28 0 57.5 q10.5 29.5 47.5 54.5 l80 0 Z" /><glyph glyph-name="A" unicode="a" d="M253 682 l104 0 l234 -682 l-87 0 l-60 182 l-277 0 l-61 -182 l-87 0 l234 682 ZM417 262 l-110 340 l-3 0 l-111 -340 l224 0 Z" /><glyph glyph-name="AE" unicode="æ" d="M197 192 l-88 -192 l-96 0 l329 682 l466 0 l0 -77 l-334 0 l0 -218 l310 0 l0 -75 l-310 0 l0 -235 l344 0 l0 -77 l-428 0 l0 192 l-193 0 ZM234 272 l156 0 l0 330 l-4 0 l-152 -330 Z" /></font>
</defs>
</svg>
