<?xml version="1.0" standalone="no"?><!DOCTYPE svg PUBLIC "-//W3C//DTD SVG 1.1//EN" "http://www.w3.org/Graphics/SVG/1.1/DTD/svg11.dtd" ><svg xmlns="http://www.w3.org/2000/svg"><metadata></metadata><defs><font id="1.013;PYRS;Adamina-Regular" horiz-adv-x="1282"><font-face font-family="Adamina" font-weight="400" font-stretch="normal" units-per-em="1000" panose-1="2 0 5 3 0 0 0 2 0 4" ascent="1072" descent="-290" x-height="4" bbox="-91 -290 1227 1072" underline-thickness="50" underline-position="-75" unicode-range="U+0020-2212" /><missing-glyph horiz-adv-x="0"  /><glyph glyph-name="space" unicode=" " d="" /><glyph glyph-name="exclam" unicode="!" d="M114 189 l-37 610 q28 12 58 12 q28 0 49 -12 l-26 -610 q-11 -3 -21 -3 q-11 0 -23 3 ZM135 111 q27 0 45.5 -17.5 q18.5 -17.5 18.5 -43.5 q0 -26 -18.5 -44.5 q-18.5 -18.5 -44.5 -18.5 q-26 0 -44.5 18.5 q-18.5 18.5 -18.5 44.5 q0 26 18 43.5 q18 17.5 44 17.5 Z" /><glyph glyph-name="quotedbl" unicode="&quot;" d="M153 800 l-19 -246 q-23 -7 -46 0 l-17 246 q0 23 8 32 q8 9 33 9 q26 0 33.5 -8 q7.5 -8 7.5 -33 ZM323 800 l-19 -246 q-23 -7 -46 0 l-17 246 q0 23 8 32 q8 9 33 9 q26 0 33.5 -8 q7.5 -8 7.5 -33 Z" /><glyph glyph-name="numbersign" unicode="#" d="M119 530 l119 0 l77 269 q12 3 25 3 q11 0 25 -3 l-76 -269 l139 0 l77 269 q12 3 25 3 q11 0 25 -3 l-76 -269 l122 0 q2 -10 2 -13 q0 -18 -16 -37 l-122 0 l-56 -195 l122 0 q2 -10 2 -13 q0 -18 -16 -37 l-122 0 l-69 -246 q-15 -4 -28 -4 q-15 0 -22 4 l69 246 l-140 0 l-69 -246 q-15 -4 -28 -4 q-15 0 -22 4 l69 246 l-120 0 l0 5 q0 26 14 45 l120 0 l55 195 l-119 0 l0 5 q0 26 14 45 ZM275 480 l-56 -195 l140 0 l55 195 l-139 0 Z" /><glyph glyph-name="dollar" unicode="$" d="M305 -85 l0 65 q-125 2 -231 59 l0 192 q16 3 31 3 q14 0 26 -3 l32 -162 q53 -37 142 -40 l0 339 l-135 85 q-93 55 -93 178 q0 40 18 72 q18 32 49 55.5 q31 23.5 72.5 37 q41.5 13.5 88.5 18.5 l0 87 q13 5 25 5 q10 0 25 -5 l0 -85 q112 -3 219 -60 l0 -192 q-18 -3 -32 -3 q-15 0 -25 3 l-32 167 q-58 38 -130 41 l0 -294 l139 -85 q60 -37 91 -82.5 q31 -45.5 31 -102.5 q0 -47 -18.5 -86 q-18.5 -39 -53 -68.5 q-34.5 -29.5 -82.5 -48 q-48 -18.5 -107 -23.5 l0 -67 q-12 -4 -26 -4 q-13 0 -24 4 ZM409 303 l-54 34 l0 -308 q36 3 62.5 15 q26.5 12 44.5 31 q18 19 27 42.5 q9 23.5 9 50.5 q0 26 -5 45 q-5 19 -15.5 34.5 q-10.5 15.5 -27.5 28.5 q-17 13 -41 27 ZM186 656 q0 -74 64 -113 l55 -34 l0 260 q-54 -7 -86.5 -36 q-32.5 -29 -32.5 -77 Z" /><glyph glyph-name="percent" unicode="%" d="M729 -30 q-83 0 -131.5 63 q-48.5 63 -48.5 157 q0 104 48 170 q48 66 132 66 q85 0 133.5 -65.5 q48.5 -65.5 48.5 -170.5 q0 -94 -49 -157 q-49 -63 -133 -63 ZM729 8 q48 0 77.5 51 q29.5 51 29.5 145 q0 184 -107 184 q-105 0 -105 -184 q0 -94 29.5 -145 q29.5 -51 75.5 -51 ZM246 348 q-83 0 -131.5 63 q-48.5 63 -48.5 157 q0 104 48 170 q48 66 132 66 q85 0 133.5 -65.5 q48.5 -65.5 48.5 -170.5 q0 -94 -49 -157 q-49 -63 -133 -63 ZM246 386 q48 0 77.5 51 q29.5 51 29.5 145 q0 184 -107 184 q-105 0 -105 -184 q0 -94 29.5 -145 q29.5 -51 75.5 -51 ZM696 796 l-356 -821 q-11 -4 -29 -4 q-19 0 -31 4 l356 821 q25 7 60 0 Z" /><glyph glyph-name="ampersand" unicode="&amp;" d="M693 332 l-66 0 q-20 -95 -63 -169 l8 -9 q51 -67 80.5 -96.5 q29.5 -29.5 47.5 -29.5 q17 0 17 17 q0 15 -25 62 q32 40 72 40 q22 0 31.5 -15 q9.5 -15 9.5 -33 q0 -30 -44 -72 q-44 -42 -105 -42 q-42 0 -84 22 q-42 22 -72 62 l-4 5 q-93 -88 -235 -88 q-93 0 -155 48 q-62 48 -62 134 q0 75 43.5 128 q43.5 53 146.5 116 l-44 58 q-70 90 -70 161 q0 74 52.5 124.5 q52.5 50.5 146.5 50.5 q98 0 148 -39.5 q50 -39.5 50 -111.5 q0 -46 -32 -93 q-32 -47 -136 -122 l186 -240 q31 61 45 132 l-62 0 q-4 15 0 37 q55 -4 87 -4 q23 0 88 3 q6 -18 0 -36 ZM291 32 q106 0 179 75 l-209 270 q-98 -77 -98 -193 q0 -78 35 -115 q35 -37 93 -37 ZM217 674 q0 -66 59 -140 l48 -63 q40 32 67 79 q27 47 27 89 q0 134 -99 134 q-45 0 -73.5 -27 q-28.5 -27 -28.5 -72 Z" /><glyph glyph-name="quotesingle" unicode="&#39;" d="M152 800 l-19 -246 q-23 -7 -46 0 l-17 246 q0 23 8 32 q8 9 33 9 q26 0 33.5 -8 q7.5 -8 7.5 -33 Z" /><glyph glyph-name="parenleft" unicode="(" d="M221 900 q24 -11 30 -31 q-29 -54 -49 -103.5 q-20 -49.5 -32.5 -106.5 q-12.5 -57 -18 -129 q-5.5 -72 -5.5 -171 q0 -99 5.5 -171 q5.5 -72 18 -129 q12.5 -57 32.5 -106.5 q20 -49.5 49 -103.5 q-6 -21 -30 -31 q-35 40 -65 88.5 q-30 48.5 -52.5 112 q-22.5 63.5 -35.5 147 q-13 83.5 -13 193.5 q0 111 13 194.5 q13 83.5 35.5 147 q22.5 63.5 53 111.5 q30.5 48 64.5 88 Z" /><glyph glyph-name="parenright" unicode=")" d="M37 900 q34 -40 64.5 -88 q30.5 -48 53 -111.5 q22.5 -63.5 35.5 -147 q13 -83.5 13 -194.5 q0 -110 -13 -193.5 q-13 -83.5 -35.5 -147 q-22.5 -63.5 -52.5 -112 q-30 -48.5 -65 -88.5 q-24 10 -30 31 q29 54 49 103.5 q20 49.5 32.5 106.5 q12.5 57 18 129 q5.5 72 5.5 171 q0 99 -5.5 171 q-5.5 72 -18 129 q-12.5 57 -32.5 106.5 q-20 49.5 -49 103.5 q6 20 30 31 Z" /><glyph glyph-name="asterisk" unicode="*" d="M242 735 l-8 -135 l125 51 q22 -24 16 -55 l-129 -33 l86 -103 q-15 -29 -47 -32 l-71 112 l-72 -113 q-32 5 -45 34 l85 102 l-130 34 q-5 32 18 53 l124 -49 l-8 134 q14 7 28 7 q12 0 28 -7 Z" /><glyph glyph-name="plus" unicode="+" d="M312 635 l0 -220 l221 0 q8 -23 0 -50 l-221 0 l0 -221 q-22 -14 -50 0 l0 221 l-220 0 q-9 30 0 50 l220 0 l0 220 q23 10 50 0 Z" /><glyph glyph-name="comma" unicode="," d="M58 -146 q-22 3 -30 29 q67 37 88 104 l-3 0 q-26 0 -44.5 18.5 q-18.5 18.5 -18.5 44.5 q0 26 18 43.5 q18 17.5 44 17.5 q27 0 45.5 -18.5 q18.5 -18.5 18.5 -47.5 q0 -65 -31 -108.5 q-31 -43.5 -87 -82.5 Z" /><glyph glyph-name="hyphen" unicode="-" d="M367 345 l-297 0 q-9 30 0 50 l297 0 q8 -23 0 -50 Z" /><glyph glyph-name="period" unicode="." d="M112 111 q27 0 45.5 -17.5 q18.5 -17.5 18.5 -43.5 q0 -26 -18.5 -44.5 q-18.5 -18.5 -44.5 -18.5 q-26 0 -44.5 18.5 q-18.5 18.5 -18.5 44.5 q0 26 18 43.5 q18 17.5 44 17.5 Z" /><glyph glyph-name="slash" unicode="/" d="M494 799 l-395 -884 q-12 -4 -34 -4 q-25 0 -36 4 l395 884 q16 4 35 4 q19 0 35 -4 Z" /><glyph glyph-name="zero" unicode="0" d="M55 386 q0 96 18.5 175.5 q18.5 79.5 54.5 137 q36 57.5 88 89 q52 31.5 119 31.5 q69 0 121 -32.5 q52 -32.5 87.5 -91 q35.5 -58.5 53.5 -140 q18 -81.5 18 -179.5 q0 -81 -19 -153 q-19 -72 -55 -126 q-36 -54 -88 -85.5 q-52 -31.5 -118 -31.5 q-69 0 -121 32.5 q-52 32.5 -87.5 88 q-35.5 55.5 -53.5 129 q-18 73.5 -18 156.5 ZM335 25 q34 0 63.5 26.5 q29.5 26.5 51 76.5 q21.5 50 33.5 121.5 q12 71.5 12 161.5 q0 175 -39.5 269 q-39.5 94 -120.5 94 q-81 0 -120.5 -94 q-39.5 -94 -39.5 -269 q0 -190 41 -288 q41 -98 119 -98 Z" /><glyph glyph-name="one" unicode="1" d="M271 654 l0 -603 l119 -15 q4 -16 0 -40 q-63 3 -171 3 q-89 0 -173 -2 q-6 19 0 39 l119 11 q4 55 4 127 l0 549 l-132 -23 q-4 19 0 48 l229 68 q9 -10 10 -20 q-5 -26 -5 -92 l0 -50 Z" /><glyph glyph-name="two" unicode="2" d="M526 0 l-473 0 l0 76 q190 177 264 291.5 q74 114.5 74 244.5 q0 78 -32 120 q-32 42 -91 42 q-41 0 -68 -38.5 q-27 -38.5 -45 -129.5 q-91 -4 -110 26 q43 187 226 187 q116 0 173.5 -54.5 q57.5 -54.5 57.5 -155.5 q0 -241 -351 -510 l268 0 q55 3 109 14 q-2 -64 -2 -113 Z" /><glyph glyph-name="three" unicode="3" d="M265 24 q61 0 102 50.5 q41 50.5 41 146.5 q0 81 -59 133 q-59 52 -160 52 q-5 6 -5.5 23.5 q-0.5 17.5 5.5 26.5 l30 0 q78 0 122 43 q44 43 44 117 q0 81 -35 121.5 q-35 40.5 -85 40.5 q-94 0 -115 -151 q-45 -1 -67 3.5 q-22 4.5 -36 19.5 q13 81 72.5 125 q59.5 44 152.5 44 q99 0 158.5 -51.5 q59.5 -51.5 59.5 -132.5 q0 -68 -40.5 -121 q-40.5 -53 -121.5 -77 l0 -3 q90 -15 140.5 -67 q50.5 -52 50.5 -140 q0 -112 -69 -179.5 q-69 -67.5 -191 -67.5 q-96 0 -160 38.5 q-64 38.5 -64 112.5 q21 23 103 21 q14 -72 44.5 -100 q30.5 -28 82.5 -28 Z" /><glyph glyph-name="four" unicode="4" d="M348 560 l8 100 l-2 2 l-46 -79 l-225 -314 l265 0 l0 291 ZM450 806 l0 -537 q62 4 109 13 q-2 -64 -2 -84 l-107 0 l0 -147 l101 -15 q2 -12 2 -18 q0 -8 -2 -22 q-63 3 -156 3 q-66 0 -150 -2 q-3 9 -3 19 q0 10 3 20 l99 11 q4 55 4 151 l-322 0 q-10 35 -10 71 l373 538 l49 5 q6 -2 12 -6 Z" /><glyph glyph-name="five" unicode="5" d="M221 697 l-72 0 l-1 -183 q48 4 67 4 q146 0 214.5 -70.5 q68.5 -70.5 68.5 -190.5 q0 -127 -66 -202 q-66 -75 -194 -75 q-94 0 -155 38.5 q-61 38.5 -61 112.5 q21 23 103 21 q15 -78 44 -104 q29 -26 81 -26 q141 0 141 226 q0 217 -211 217 q-42 0 -94 -9 l0 340 l384 0 q0 -49 2 -113 q-47 9 -109 13 l-142 1 Z" /><glyph glyph-name="six" unicode="6" d="M43 347 q0 229 75 350.5 q75 121.5 207 121.5 q87 0 145.5 -40 q58.5 -40 68.5 -113 q-43 -28 -108 -31 q-13 73 -38 105.5 q-25 32.5 -78 32.5 q-79 0 -124 -96 q-45 -96 -45 -272 l2 0 q62 103 185 103 q112 0 169.5 -74 q57.5 -74 57.5 -176 q0 -117 -67 -197.5 q-67 -80.5 -174 -80.5 q-61 0 -109.5 21 q-48.5 21 -79.5 56 q-31 35 -51 83 q-20 48 -28 99 q-8 51 -8 108 ZM445 262 q0 83 -32.5 141 q-32.5 58 -94.5 58 q-76 0 -116 -50.5 q-40 -50.5 -40 -137.5 q0 -129 39 -188.5 q39 -59.5 117 -59.5 q127 0 127 237 Z" /><glyph glyph-name="seven" unicode="7" d="M487 796 q10 -33 10 -71 l-249 -725 l-122 0 l308 697 l-151 0 q-145 -6 -211 -32 l-26 0 l0 131 l441 0 Z" /><glyph glyph-name="eight" unicode="8" d="M55 197 q0 69 39.5 121 q39.5 52 106.5 83 q-58 38 -90.5 86 q-32.5 48 -32.5 119 q0 87 65.5 150 q65.5 63 165.5 63 q111 0 169 -55 q58 -55 58 -144 q0 -126 -130 -206 q84 -46 124 -93.5 q40 -47.5 40 -113.5 q0 -90 -69.5 -158.5 q-69.5 -68.5 -194.5 -68.5 q-120 0 -185.5 60 q-65.5 60 -65.5 157 ZM294 349 q-31 15 -56 30 q-34 -30 -54 -80.5 q-20 -50.5 -20 -104.5 q0 -73 37 -122.5 q37 -49.5 108 -49.5 q79 0 118 39.5 q39 39.5 39 109.5 q0 57 -38.5 92.5 q-38.5 35.5 -133.5 85.5 ZM184 632 q0 -61 42.5 -103.5 q42.5 -42.5 143.5 -95.5 q62 60 62 165 q0 82 -31 130 q-31 48 -92 48 q-57 0 -91 -34.5 q-34 -34.5 -34 -109.5 Z" /><glyph glyph-name="nine" unicode="9" d="M563 452 q0 -230 -74.5 -351 q-74.5 -121 -206.5 -121 q-87 0 -145.5 40 q-58.5 40 -68.5 113 q43 28 108 31 q13 -73 38 -105.5 q25 -32.5 78 -32.5 q79 0 124 96 q45 96 45 272 l-2 0 q-62 -103 -185 -103 q-108 0 -165 74.5 q-57 74.5 -57 175.5 q0 116 69.5 197 q69.5 81 172.5 81 q61 0 109 -21 q48 -21 77.5 -55.5 q29.5 -34.5 48.5 -83.5 q19 -49 26.5 -99 q7.5 -50 7.5 -108 ZM167 537 q0 -82 32 -140.5 q32 -58.5 90 -58.5 q76 0 116 50.5 q40 50.5 40 137.5 q0 129 -39 188.5 q-39 59.5 -117 59.5 q-60 0 -91 -64 q-31 -64 -31 -173 Z" /><glyph glyph-name="colon" unicode=":" d="M127 111 q27 0 45.5 -17.5 q18.5 -17.5 18.5 -43.5 q0 -26 -18.5 -44.5 q-18.5 -18.5 -44.5 -18.5 q-26 0 -44.5 18.5 q-18.5 18.5 -18.5 44.5 q0 26 18 43.5 q18 17.5 44 17.5 ZM127 500 q27 0 45.5 -17.5 q18.5 -17.5 18.5 -43.5 q0 -26 -18.5 -44.5 q-18.5 -18.5 -44.5 -18.5 q-26 0 -44.5 18.5 q-18.5 18.5 -18.5 44.5 q0 26 18 43.5 q18 17.5 44 17.5 Z" /><glyph glyph-name="semicolon" unicode=";" d="M87 -146 q-22 3 -30 29 q67 37 88 104 l-3 0 q-26 0 -44.5 18.5 q-18.5 18.5 -18.5 44.5 q0 26 18 43.5 q18 17.5 44 17.5 q27 0 45.5 -18.5 q18.5 -18.5 18.5 -47.5 q0 -65 -31 -108.5 q-31 -43.5 -87 -82.5 ZM136 500 q27 0 45.5 -17.5 q18.5 -17.5 18.5 -43.5 q0 -26 -18.5 -44.5 q-18.5 -18.5 -44.5 -18.5 q-26 0 -44.5 18.5 q-18.5 18.5 -18.5 44.5 q0 26 18 43.5 q18 17.5 44 17.5 Z" /><glyph glyph-name="less" unicode="&lt;" d="M121 406 l506 -222 q5 -18 5 -31 q0 -16 -5 -34 l-589 257 q-6 35 0 60 l589 257 q5 -18 5 -31 q0 -16 -5 -34 l-506 -222 Z" /><glyph glyph-name="equal" unicode="=" d="M472 425 l-391 0 q-9 30 0 50 l391 0 q8 -23 0 -50 ZM472 287 l-391 0 q-9 30 0 50 l391 0 q8 -23 0 -50 Z" /><glyph glyph-name="greater" unicode="&gt;" d="M82 628 q-5 18 -5 34 q0 13 5 31 l589 -257 q6 -25 0 -60 l-589 -257 q-5 18 -5 34 q0 13 5 31 l506 222 l-506 222 Z" /><glyph glyph-name="question" unicode="?" d="M205 111 q27 0 45.5 -17.5 q18.5 -17.5 18.5 -43.5 q0 -26 -18.5 -44.5 q-18.5 -18.5 -44.5 -18.5 q-26 0 -44.5 18.5 q-18.5 18.5 -18.5 44.5 q0 26 18 43.5 q18 17.5 44 17.5 ZM167 163 l-20 245 l11 0 q54 0 90 10.5 q36 10.5 58.5 33 q22.5 22.5 32 57.5 q9.5 35 9.5 84 q0 82 -28 133 q-28 51 -82 51 q-75 0 -100 -139 q-42 0 -67 4.5 q-25 4.5 -36 16.5 q0 40 15 70 q15 30 41.5 50 q26.5 20 61.5 30 q35 10 74 10 q118 0 178.5 -62 q60.5 -62 60.5 -170 q0 -208 -255 -227 l9 -197 q-7 -3 -13.5 -4 q-6.5 -1 -12.5 -1 q-16 0 -27 5 Z" /><glyph glyph-name="at" unicode="@" d="M562 196 q-78 -93 -173 -93 q-91 0 -91 137 q0 74 21.5 138 q21.5 64 59.5 111.5 q38 47.5 90 74.5 q52 27 114 27 q76 0 136 -22 l-63 -414 q49 0 95.5 19.5 q46.5 19.5 82.5 56.5 q36 37 57.5 91 q21.5 54 21.5 123 q0 72 -27 128 q-27 56 -75 94.5 q-48 38.5 -114 58 q-66 19.5 -144 19.5 q-95 0 -176.5 -33 q-81.5 -33 -141.5 -90.5 q-60 -57.5 -94.5 -137 q-34.5 -79.5 -34.5 -172.5 q0 -93 31 -170.5 q31 -77.5 88.5 -134 q57.5 -56.5 140 -87.5 q82.5 -31 186.5 -31 q115 0 213 54 l17 -33 q-32 -18 -59 -31 q-27 -13 -55 -21 q-28 -8 -58.5 -11.5 q-30.5 -3.5 -69.5 -3.5 q-96 0 -184 29.5 q-88 29.5 -154.5 88.5 q-66.5 59 -106.5 147 q-40 88 -40 205 q0 109 37 197 q37 88 103 150.5 q66 62.5 157 96.5 q91 34 199 34 q92 0 168 -25 q76 -25 131 -70.5 q55 -45.5 85 -110 q30 -64.5 30 -143.5 q0 -76 -27 -138.5 q-27 -62.5 -75 -107 q-48 -44.5 -112.5 -69 q-64.5 -24.5 -139.5 -24.5 q-26 0 -38 15 q-12 15 -12 53 q0 5 0 11.5 q0 6.5 1 13.5 ZM439 169 q34 0 62 18 q28 18 74 65 l44 295 q-28 4 -51 4 q-58 0 -100.5 -45.5 q-42.5 -45.5 -61.5 -110 q-19 -64.5 -19 -134.5 q0 -47 9.5 -69.5 q9.5 -22.5 42.5 -22.5 Z" /><glyph glyph-name="A" unicode="a" d="M122 44 l81 -10 q4 -15 0 -37 q-63 3 -106 3 q-24 0 -108 -2 q-6 18 0 36 l66 12 q16 24 40 89 l258 690 l35 0 l290 -781 l81 -10 q4 -15 0 -37 q-63 3 -141 3 q-58 0 -142 -2 q-6 18 0 36 l83 12 l-88 247 l-260 0 l-89 -249 ZM344 674 l-1 0 q-12 -47 -39 -123 l-75 -208 l224 0 l-73 208 q-21 61 -36 123 Z" /><glyph glyph-name="B" unicode="b" d="M52 799 q51 0 147 4 q96 4 127 4 l27 0 q131 0 195 -53.5 q64 -53.5 64 -140.5 q0 -124 -162 -172 l0 -3 q94 -14 148.5 -73.5 q54.5 -59.5 54.5 -142.5 q0 -111 -75.5 -173 q-75.5 -62 -221.5 -62 q-40 0 -129.5 6.5 q-89.5 6.5 -142.5 6.5 q-6 0 -19 -0.5 q-13 -0.5 -19 -0.5 q-6 18 0 36 l83 11 q4 38 4 117 l0 589 l-81 10 q-4 15 0 37 ZM320 406 l-80 0 l0 -362 q51 -9 81 -11 q121 0 167 45.5 q46 45.5 46 142.5 q0 78 -56.5 131.5 q-56.5 53.5 -157.5 53.5 ZM327 765 q-50 0 -83 -7 q-4 -38 -4 -125 l0 -177 l78 0 q93 0 135.5 38 q42.5 38 42.5 113 q0 76 -46.5 117 q-46.5 41 -122.5 41 Z" /><glyph glyph-name="C" unicode="c" d="M696 148 q17 -11 26 -38 q-139 -130 -282 -130 q-98 0 -171 35.5 q-73 35.5 -121 94 q-48 58.5 -71.5 133 q-23.5 74.5 -23.5 152.5 q0 79 27 154.5 q27 75.5 79 135 q52 59.5 128.5 95.5 q76.5 36 174.5 36 q129 0 240 -60 l0 -192 q-18 -3 -32 -3 q-15 0 -25 3 l-32 167 q-61 40 -163 40 q-63 0 -113.5 -28.5 q-50.5 -28.5 -86 -77 q-35.5 -48.5 -54.5 -114 q-19 -65.5 -19 -139.5 q0 -79 18.5 -146 q18.5 -67 52.5 -116 q34 -49 82.5 -76.5 q48.5 -27.5 108.5 -27.5 q72 0 139 28 q67 28 118 74 Z" /><glyph glyph-name="D" unicode="d" d="M46 -2 q-6 18 0 36 l83 12 q4 38 4 117 l0 589 l-81 10 q-4 15 0 37 q15 -1 47 -1 q64 0 165.5 5.5 q101.5 5.5 116.5 5.5 q196 0 297 -106 q101 -106 101 -285 q0 -182 -95 -302 q-95 -120 -266 -120 q-57 0 -151 1.5 q-94 1.5 -135 1.5 q-58 0 -86 -1 ZM380 44 q282 0 282 368 q0 159 -73.5 251 q-73.5 92 -211.5 98 q-12 1 -37 1 q-53 0 -96 -8 q-4 -38 -4 -121 l0 -586 q12 0 57.5 -1.5 q45.5 -1.5 82.5 -1.5 Z" /><glyph glyph-name="E" unicode="e" d="M133 162 l0 590 l-81 11 q-6 18 0 36 l137 -3 l404 0 l1 -232 q-22 -4 -37 0 l-47 181 l-270 0 l0 -300 l160 3 l23 98 q15 4 37 0 q-4 -56 -4 -129 q0 -67 3 -130 q-18 -6 -36 0 l-22 104 l-161 3 l0 -343 l300 0 l47 181 q15 4 37 0 l-1 -232 l-434 0 l-143 -3 q-6 18 0 36 l83 11 q4 51 4 118 Z" /><glyph glyph-name="F" unicode="f" d="M133 163 l0 589 l-81 11 q-6 18 0 36 l137 -3 l404 0 l1 -232 q-22 -4 -37 0 l-47 181 l-270 0 l0 -295 l160 3 l23 98 q15 4 37 0 q-4 -56 -4 -129 q0 -67 3 -130 q-18 -6 -36 0 l-22 104 l-161 3 l0 -355 l91 -10 q4 -15 0 -37 q-63 3 -142 3 q-59 0 -143 -2 q-6 18 0 36 l83 12 q4 38 4 117 Z" /><glyph glyph-name="G" unicode="g" d="M689 -18 l-26 82 q-116 -84 -224 -84 q-98 0 -171 35.5 q-73 35.5 -121 94 q-48 58.5 -71.5 133 q-23.5 74.5 -23.5 152.5 q0 79 27.5 154.5 q27.5 75.5 81 134.5 q53.5 59 130.5 95.5 q77 36.5 176 36.5 q138 0 254 -60 l0 -192 q-18 -3 -32 -3 q-15 0 -25 3 l-32 167 q-64 40 -177 40 q-63 0 -114 -28.5 q-51 -28.5 -88 -77 q-37 -48.5 -57 -114 q-20 -65.5 -20 -139.5 q0 -79 18.5 -146 q18.5 -67 52.5 -116 q34 -49 82.5 -76.5 q48.5 -27.5 108.5 -27.5 q97 0 191 53 l0 213 l-81 10 q-2 5 -2 16 q0 5 0 10 q0 5 2 11 q28 -2 61.5 -3 q33.5 -1 75.5 -1 q73 0 138 3 q3 -9 3 -18 q0 -9 -3 -18 l-83 -12 q-2 -19 -3 -48 q-1 -29 -1 -69 l0 -101 l-10 -110 q-4 -2 -8 -2 q-4 0 -9 0 q-5 0 -10 0 q-5 0 -10 2 Z" /><glyph glyph-name="H" unicode="h" d="M634 437 l0 315 l-81 10 q-4 15 0 37 q55 -4 137 -4 q74 0 138 3 q6 -18 0 -36 l-83 -12 q-4 -38 -4 -117 l0 -589 l81 -10 q4 -15 0 -37 q-63 3 -137 3 q-54 0 -138 -2 q-6 18 0 36 l83 12 q4 38 4 117 l0 224 l-394 0 l0 -343 l81 -10 q4 -15 0 -37 q-63 3 -137 3 q-54 0 -138 -2 q-6 18 0 36 l83 12 q4 38 4 117 l0 589 l-81 10 q-4 15 0 37 q55 -4 137 -4 q73 0 138 3 q6 -18 0 -36 l-83 -12 q-4 -38 -4 -117 l0 -196 l394 0 Z" /><glyph glyph-name="I" unicode="i" d="M240 633 l0 -589 l81 -10 q4 -15 0 -37 q-63 3 -137 3 q-54 0 -138 -2 q-6 18 0 36 l83 12 q4 38 4 117 l0 589 l-81 10 q-4 15 0 37 q55 -4 137 -4 q73 0 138 3 q6 -18 0 -36 l-83 -12 q-4 -38 -4 -117 Z" /><glyph glyph-name="J" unicode="j" d="M235 633 l0 -525 q0 -139 -55 -223 q-55 -84 -137 -84 q-70 0 -101.5 26.5 q-31.5 26.5 -32.5 89.5 q7 27 54 27 q22 0 49 -6 q5 -58 12.5 -77 q7.5 -19 27.5 -19 q44 0 60 57.5 q16 57.5 16 180.5 l0 672 l-91 10 q-4 15 0 37 q55 -3 124 -3 q89 0 161 3 q6 -18 0 -36 l-83 -13 q-4 -38 -4 -117 Z" /><glyph glyph-name="K" unicode="k" d="M366 453 l231 -306 q43 -61 84 -102 l78 -8 q4 -17 1 -37 q-150 3 -186 3 q-74 0 -119 -4 q-6 17 -1 36 l82 14 q-9 19 -71 106 l-168 231 l-57 0 l0 -342 l81 -10 q4 -15 0 -37 q-63 3 -137 3 q-54 0 -138 -2 q-6 18 0 36 l83 12 q4 38 4 117 l0 589 l-81 10 q-4 15 0 37 q55 -4 137 -4 q73 0 138 3 q6 -18 0 -36 l-83 -12 q-4 -38 -4 -117 l0 -196 l53 0 l253 315 l-81 10 q-4 15 0 37 q55 -4 115 -4 q52 0 116 3 q6 -18 0 -36 l-67 -12 q-46 -36 -91 -89 l-172 -208 Z" /><glyph glyph-name="L" unicode="l" d="M189 0 l-143 -3 q-6 18 0 36 l83 11 q4 51 4 118 l0 590 l-81 10 q-4 15 0 37 q55 -4 137 -4 q73 0 138 3 q6 -18 0 -36 l-83 -12 q-4 -38 -4 -117 l0 -582 l330 0 l47 181 q15 4 37 0 l-1 -232 l-464 0 Z" /><glyph glyph-name="M" unicode="m" d="M808 163 l0 575 l-302 -768 l-26 0 l-291 743 l0 -550 q0 -79 4 -117 l93 -12 q6 -18 0 -36 q-86 2 -122 2 q-60 0 -121 -3 q-4 22 0 37 l91 10 l0 589 q0 79 -4 117 l-83 12 q-6 17 0 34 l220 0 l251 -658 l257 658 q23 -1 70 -1 q10 0 157 3 q6 -18 0 -36 l-83 -12 q-4 -38 -4 -117 l0 -589 l81 -10 q4 -15 0 -37 q-63 3 -137 3 q-54 0 -138 -2 q-6 25 0 36 l83 12 q4 38 4 117 Z" /><glyph glyph-name="N" unicode="n" d="M697 268 l0 362 q0 79 -4 117 l-93 12 q-6 18 0 36 q63 -3 122 -3 q65 0 121 4 q4 -22 0 -37 l-91 -10 l0 -749 l-53 0 l-441 597 q-31 41 -73 107 q5 -46 5 -111 l0 -430 q0 -79 4 -117 l93 -12 q6 -18 0 -36 q-86 2 -122 2 q-59 0 -121 -3 q-4 22 0 37 l91 10 l0 589 q0 79 -4 117 l-83 12 q-6 17 0 34 l196 0 l401 -546 q8 -11 17.5 -26 q9.5 -15 21 -36 q11.5 -21 18.5 -32 q-5 60 -5 112 Z" /><glyph glyph-name="O" unicode="o" d="M452 816 q98 0 176 -35 q78 -35 126 -93.5 q48 -58.5 73.5 -130 q25.5 -71.5 25.5 -149.5 q0 -180 -113 -304 q-113 -124 -288 -124 q-97 0 -175 35 q-78 35 -126 93.5 q-48 58.5 -73.5 129.5 q-25.5 71 -25.5 148 q0 115 50.5 213 q50.5 98 143 157.5 q92.5 59.5 206.5 59.5 ZM451 35 q94 0 159.5 54.5 q65.5 54.5 94 137.5 q28.5 83 28.5 185 q0 97 -28.5 173.5 q-28.5 76.5 -93.5 126 q-65 49.5 -160 49.5 q-137 0 -208 -100 q-71 -100 -71 -250 q0 -103 28 -185.5 q28 -82.5 93 -136.5 q65 -54 158 -54 Z" /><glyph glyph-name="P" unicode="p" d="M52 799 q41 0 130.5 4 q89.5 4 162.5 4 q155 0 221 -60.5 q66 -60.5 66 -168.5 q0 -96 -85.5 -161 q-85.5 -65 -203.5 -65 q-61 0 -103 6 l0 -314 l91 -10 q4 -15 0 -37 q-63 3 -142 3 q-59 0 -143 -2 q-6 18 0 36 l83 12 q4 38 4 117 l0 589 l-81 10 q-4 15 0 37 ZM240 633 l0 -234 q31 -4 90 -4 q52 0 89.5 17.5 q37.5 17.5 56.5 47 q19 29.5 27 59.5 q8 30 8 64 q0 87 -44 134.5 q-44 47.5 -147 47.5 q-37 0 -74 -7 q-6 -57 -6 -125 Z" /><glyph glyph-name="Q" unicode="q" d="M189 -117 q21 29 50.5 48 q29.5 19 115.5 59 q-145 30 -224 143 q-79 113 -79 253 q0 115 50.5 213 q50.5 98 143 157.5 q92.5 59.5 206.5 59.5 q98 0 176 -35 q78 -35 126 -93.5 q48 -58.5 73.5 -130 q25.5 -71.5 25.5 -149.5 q0 -180 -113 -304 q-113 -124 -288 -124 q-9 0 -19 -2.5 q-10 -2.5 -15.5 -5 q-5.5 -2.5 -17 -7.5 q-11.5 -5 -14.5 -7 q25 -5 61 -20 l176 -74 q58 -25 113 -25 q50 0 96 32 q14 -7 31 -27 q-62 -79 -173 -79 q-50 0 -106 23 l-177 85 q-49 20 -82 20 q-52 0 -105 -38 q-19 10 -31 28 ZM451 35 q94 0 159.5 54.5 q65.5 54.5 94 137.5 q28.5 83 28.5 185 q0 97 -28.5 173.5 q-28.5 76.5 -93.5 126 q-65 49.5 -160 49.5 q-137 0 -208 -100 q-71 -100 -71 -250 q0 -103 28 -185.5 q28 -82.5 93 -136.5 q65 -54 158 -54 Z" /><glyph glyph-name="R" unicode="r" d="M52 799 q41 0 130.5 4 q89.5 4 162.5 4 q152 0 217 -60.5 q65 -60.5 65 -168.5 q0 -65 -45 -117 q-45 -52 -118 -78 q43 -73 80.5 -137 q37.5 -64 54.5 -95 q17 -31 31 -55.5 q14 -24.5 20.5 -33.5 q6.5 -9 12.5 -15 l72 -10 q4 -15 0 -37 l-170 0 l-151 274 q-30 57 -57 88 l-14 0 q-51 0 -103 6 l0 -324 l91 -10 q4 -15 0 -37 q-63 3 -142 3 q-59 0 -143 -2 q-6 18 0 36 l83 12 q4 38 4 117 l0 589 l-81 10 q-4 15 0 37 ZM240 633 l0 -224 q31 -4 90 -4 q51 0 87.5 16.5 q36.5 16.5 54.5 44 q18 27.5 26 56.5 q8 29 8 61 q0 86 -43 134 q-43 48 -143 48 q-37 0 -74 -7 q-6 -57 -6 -125 Z" /><glyph glyph-name="S" unicode="s" d="M163 69 q58 -40 163 -40 q71 0 106.5 41 q35.5 41 35.5 98 q0 30 -5 50.5 q-5 20.5 -21.5 46.5 q-16.5 26 -52.5 52 q-36 26 -94 55 q-68 34 -110 64 q-42 30 -63 62 q-21 32 -28 61 q-7 29 -7 72 q0 88 70.5 136.5 q70.5 48.5 166.5 48.5 q119 0 230 -60 l0 -192 q-34 -6 -57 0 l-32 173 q-64 35 -143 35 q-53 0 -89.5 -31.5 q-36.5 -31.5 -36.5 -88.5 q0 -32 4 -50 q4 -18 20 -42.5 q16 -24.5 53 -49 q37 -24.5 99 -54.5 q214 -104 214 -248 q0 -102 -78 -165 q-78 -63 -204 -63 q-125 0 -230 59 l0 192 q34 6 57 0 l32 -162 Z" /><glyph glyph-name="T" unicode="t" d="M27 796 l691 0 l1 -232 q-22 -4 -37 0 l-47 181 l-208 0 l0 -701 l101 -10 q4 -15 0 -37 q-63 3 -152 3 q-69 0 -153 -2 q-6 18 0 36 l93 12 q4 38 4 117 l0 582 l-210 0 l-47 -181 q-15 -4 -37 0 l1 232 Z" /><glyph glyph-name="U" unicode="u" d="M644 254 l0 498 l-81 10 l0 37 q55 -4 101 -4 q38 0 102 3 l0 -36 l-63 -12 q-4 -38 -4 -117 l0 -373 q-4 -142 -67 -211 q-63 -69 -221 -69 q-298 0 -298 271 l0 501 l-81 10 q-4 15 0 37 q55 -4 137 -4 q73 0 138 3 q6 -18 0 -36 l-83 -12 q-4 -38 -4 -117 l0 -382 q0 -112 52 -159.5 q52 -47.5 172 -47.5 q113 0 156.5 49.5 q43.5 49.5 43.5 160.5 Z" /><glyph glyph-name="V" unicode="v" d="M399 122 l1 0 q12 47 39 123 l182 507 l-81 10 q-4 15 0 37 q55 -4 106 -4 q44 0 108 3 q6 -18 0 -36 l-66 -12 q-16 -24 -40 -89 l-258 -691 l-35 0 l-296 782 l-81 10 q-4 15 0 37 q55 -4 142 -4 q78 0 143 3 q6 -18 0 -36 l-83 -12 l183 -505 q21 -61 36 -123 Z" /><glyph glyph-name="W" unicode="w" d="M788 146 l2 0 q10 41 48 166 l139 440 l-81 10 l0 37 q55 -4 106 -4 q44 0 108 3 l0 -36 l-66 -12 q-16 -24 -40 -89 l-227 -691 l-26 0 l-192 560 l-210 -561 l-27 1 l-259 782 l-81 10 q-4 15 0 37 q55 -4 143 -4 q81 0 145 3 q6 -18 0 -36 l-83 -12 l132 -443 q25 -90 43 -169 l2 0 q20 66 58 169 l110 304 l-48 141 l-81 10 q-4 15 0 37 q55 -4 139 -4 q76 0 141 3 q6 -18 0 -36 l-83 -12 l142 -435 q33 -108 46 -169 Z" /><glyph glyph-name="X" unicode="x" d="M724 43 l83 -8 q4 -17 1 -37 q-150 3 -205 3 q-84 0 -129 -4 q-6 17 -1 36 l102 14 q-17 37 -68 108 l-133 192 l-228 -303 l81 -10 q4 -15 0 -37 q-63 3 -114 3 q-32 0 -116 -2 q-6 18 0 36 l73 12 q52 50 81 89 l192 258 l-247 359 l-81 10 q-4 15 0 37 q55 -4 161 -4 q98 0 162 3 q6 -18 0 -36 l-99 -19 q18 -33 39 -61 l134 -193 l197 263 l-81 10 q-4 15 0 37 q55 -4 115 -4 q51 0 116 3 q6 -18 0 -36 l-63 -12 q-50 -35 -91 -89 l-163 -215 l282 -403 Z" /><glyph glyph-name="Y" unicode="y" d="M246 625 l132 -226 l209 353 l-81 10 q-4 15 0 37 q55 -4 110 -4 q48 0 112 3 q6 -18 0 -36 l-62 -12 q-43 -49 -66 -89 l-196 -320 l0 -297 l81 -10 q4 -15 0 -37 q-63 3 -137 3 q-54 0 -138 -2 q-6 18 0 36 l83 12 q4 38 4 117 l0 181 l-239 408 l-71 10 q-4 15 0 37 q55 -4 150 -4 q87 0 152 3 q6 -18 0 -36 l-98 -19 q31 -77 55 -118 Z" /><glyph glyph-name="Z" unicode="z" d="M166 51 l375 0 l47 181 q15 4 37 0 l-1 -232 l-580 0 q-7 31 0 51 l451 694 l-345 0 l-47 -181 q-15 -4 -37 0 l1 232 l544 0 q7 -22 0 -51 l-445 -694 Z" /><glyph glyph-name="bracketleft" unicode="[" d="M89 900 l210 0 q2 -6 3 -12 q1 -6 1 -12 q0 -7 -1 -13.5 q-1 -6.5 -3 -13.5 l-123 0 l0 -980 l123 0 q2 -6 3 -12 q1 -6 1 -12 q0 -7 -1 -13.5 q-1 -6.5 -3 -13.5 l-210 0 l0 1082 Z" /><glyph glyph-name="backslash" unicode="\" d="M403 -85 l-395 884 q16 4 35 4 q19 0 35 -4 l395 -884 q-11 -4 -36 -4 q-22 0 -34 4 Z" /><glyph glyph-name="bracketright" unicode="]" d="M225 -182 l-210 0 q-2 7 -3 13.5 q-1 6.5 -1 13.5 q0 6 1 12 q1 6 3 12 l123 0 l0 980 l-123 0 q-2 7 -3 13.5 q-1 6.5 -1 13.5 q0 6 1 12 q1 6 3 12 l210 0 l0 -1082 Z" /><glyph glyph-name="asciicircum" unicode="^" d="M301 642 l-219 -214 q-8 2 -16.5 11 q-8.5 9 -10.5 17 l206 276 q19 3 40 3 q19 0 40 -3 l206 -276 q-2 -8 -10.5 -17 q-8.5 -9 -16.5 -11 l-219 214 Z" /><glyph glyph-name="underscore" unicode="_" d="M629 -50 l-631 0 q-9 30 0 50 l631 0 q8 -23 0 -50 Z" /><glyph glyph-name="grave" unicode="`" d="M73 570 l-128 154 q56 57 87 37 l84 -174 q-14 -9 -43 -17 Z" /><glyph glyph-name="a" unicode="a" d="M135 133 q0 -52 19 -73.5 q19 -21.5 60 -21.5 q30 0 66.5 18.5 q36.5 18.5 67.5 53.5 l0 156 q-103 -6 -158 -36.5 q-55 -30.5 -55 -96.5 ZM348 302 l0 51 q0 85 -19.5 123.5 q-19.5 38.5 -64.5 38.5 q-46 0 -74 -29.5 q-28 -29.5 -38 -100.5 q-32 -7 -47 -7 q-39 0 -46 28 q0 68 59 108 q59 40 147 40 q97 0 137.5 -39.5 q40.5 -39.5 40.5 -141.5 l0 -282 q0 -25 3 -43 l79 -10 q4 -15 0 -38 q-71 -3 -151 -14 q-8 8 -10 20 l-5 69 q-83 -95 -185 -95 q-63 0 -98.5 36 q-35.5 36 -35.5 97 q0 92 83.5 139 q83.5 47 224.5 50 Z" /><glyph glyph-name="b" unicode="b" d="M172 471 q83 83 181 83 q97 0 151.5 -73 q54.5 -73 54.5 -197 q0 -141 -76 -222.5 q-76 -81.5 -189 -81.5 q-98 0 -154 70 l-21 -68 q-19 -3 -32 0 l-10 110 l0 655 l-82 10 q-4 15 0 38 q69 5 172 21 q9 -10 10 -20 q-5 -26 -5 -162 l0 -163 ZM316 35 q62 0 102.5 57.5 q40.5 57.5 40.5 162.5 q0 21 -1 32 q0 99 -39.5 153 q-39.5 54 -99.5 54 q-35 0 -76 -22.5 q-41 -22.5 -71 -61.5 l0 -306 q34 -39 65 -54 q31 -15 79 -15 Z" /><glyph glyph-name="c" unicode="c" d="M478 406 q-21 -22 -99 -21 q-16 126 -91 126 q-59 0 -100 -68 q-41 -68 -41 -179 q0 -114 36 -175.5 q36 -61.5 108 -61.5 q76 0 149 62 q15 -9 23 -31 q-73 -78 -183 -78 q-105 0 -172 72.5 q-67 72.5 -67 213.5 q0 135 74.5 211.5 q74.5 76.5 170.5 76.5 q76 0 134 -38 q58 -38 58 -110 Z" /><glyph glyph-name="d" unicode="d" d="M526 142 q0 -67 3 -94 l79 -10 q3 -16 0 -38 q-73 -3 -152 -14 q-7 7 -10 19 l-5 64 q-35 -41 -87 -65.5 q-52 -24.5 -109 -24.5 q-87 0 -144 72.5 q-57 72.5 -57 193.5 q0 140 74.5 224.5 q74.5 84.5 178.5 84.5 q82 0 134 -39 l0 134 q0 66 -3 98 l-79 10 q-4 15 0 38 q69 5 172 21 q9 -10 10 -20 q-5 -26 -5 -162 l0 -492 ZM289 500 q-65 0 -104 -68.5 q-39 -68.5 -39 -189.5 q0 -99 36.5 -151 q36.5 -52 96.5 -52 q36 0 79 22.5 q43 22.5 73 62.5 l0 320 q-49 56 -142 56 Z" /><glyph glyph-name="e" unicode="e" d="M461 282 l-314 0 q-9 -255 153 -255 q69 0 141 61 q15 -9 23 -31 q-69 -77 -175 -77 q-244 0 -244 287 q0 136 72 211.5 q72 75.5 168 75.5 q105 0 151 -73 q46 -73 46 -190 q-10 -8 -21 -9 ZM283 514 q-52 0 -88.5 -54 q-36.5 -54 -44.5 -138 l124 0 q74 0 106 9 q0 82 -25 132.5 q-25 50.5 -72 50.5 Z" /><glyph glyph-name="f" unicode="f" d="M277 816 q149 0 149 -118 q-21 -22 -100 -21 q-10 105 -51 105 q-38 0 -53.5 -60.5 q-15.5 -60.5 -15.5 -220.5 l141 0 q6 -19 0 -39 l-141 -21 l0 -385 l121 -20 q6 -20 0 -40 q-63 3 -155 3 q-54 0 -138 -2 q-8 18 0 39 l73 16 q4 53 4 122 l0 277 l-71 11 q-6 20 0 39 l71 0 l0 68 q0 60 17 114.5 q17 54.5 56.5 93.5 q39.5 39 92.5 39 Z" /><glyph glyph-name="g" unicode="g" d="M120 -11 q9 -4 15 -17 q-33 -27 -33 -81 q0 -48 44 -77 q44 -29 114 -29 q72 0 120 26.5 q48 26.5 48 74.5 q0 52 -19 76.5 q-19 24.5 -76 29.5 l-187 17 q-31 4 -51.5 32.5 q-20.5 28.5 -20.5 55.5 l67 111 q-46 26 -69.5 69 q-23.5 43 -23.5 88 q0 85 63 137 q63 52 145 52 q79 0 139 -42 q5 137 102 142 q26 -6 26 -43 q0 -20 -4 -44 q-39 -3 -64 -25.5 q-25 -22.5 -36 -51.5 q50 -50 50 -125 q0 -79 -64 -131.5 q-64 -52.5 -149 -52.5 q-45 0 -81 12 l-34 -89 l249 -25 q58 -7 88.5 -42.5 q30.5 -35.5 30.5 -92.5 q0 -100 -72 -153.5 q-72 -53.5 -195 -53.5 q-102 0 -159 37 q-57 37 -57 99 q0 42 27 74.5 q27 32.5 67 41.5 ZM138 365 q0 -58 32.5 -99 q32.5 -41 86.5 -41 q53 0 87 40.5 q34 40.5 34 99.5 q0 64 -33.5 106.5 q-33.5 42.5 -87.5 42.5 q-51 0 -85 -43 q-34 -43 -34 -106 Z" /><glyph glyph-name="h" unicode="h" d="M102 649 q0 66 -3 98 l-79 10 q-4 15 0 38 q67 5 171 21 q9 -10 10 -20 q-5 -26 -5 -162 l0 -189 q74 102 178 102 q62 0 106 -31 q44 -31 44 -106 l0 -359 l81 -15 q4 -16 0 -40 q-63 3 -128 3 q-46 0 -130 -2 q-6 19 0 39 l79 11 q4 55 4 127 l0 186 q0 70 -17.5 101 q-17.5 31 -63.5 31 q-38 0 -79.5 -28 q-41.5 -28 -73.5 -81 l0 -332 l81 -15 q4 -16 0 -40 q-63 3 -128 3 q-46 0 -130 -2 q-6 19 0 39 l79 11 q4 55 4 127 l0 475 Z" /><glyph glyph-name="i" unicode="i" d="M208 372 l0 -321 l81 -15 q1 -5 1.5 -9 q0.5 -4 0.5 -9 q0 -5 -0.5 -10.5 q-0.5 -5.5 -1.5 -11.5 q-63 3 -129 3 q-23 0 -55.5 -0.5 q-32.5 -0.5 -74.5 -1.5 q-3 9 -3 19 q0 9 3 20 l79 11 q2 28 3 59.5 q1 31.5 1 67.5 l0 213 q0 66 -3 98 l-79 10 q-2 5 -2 17 q0 5 0 10 q0 5 2 11 q68 4 172 21 q9 -10 10 -20 q-5 -28 -5 -162 ZM62 729 q-2 5 -2 10.5 q0 5.5 0 10.5 q0 27 22.5 43.5 q22.5 16.5 55.5 16.5 q31 0 50.5 -18.5 q19.5 -18.5 19.5 -50.5 q0 -26 -22.5 -42 q-22.5 -16 -57.5 -16 q-24 0 -42.5 12 q-18.5 12 -23.5 34 Z" /><glyph glyph-name="j" unicode="j" d="M104 -43 l0 430 q0 66 -3 98 l-89 10 q-4 15 0 38 q88 6 182 21 q9 -10 10 -20 q-5 -26 -5 -162 l0 -362 q0 -81 -14.5 -146 q-14.5 -65 -51 -109.5 q-36.5 -44.5 -90.5 -44.5 q-60 0 -85.5 18 q-25.5 18 -25.5 57 q24 34 68 34 q14 0 29 -3 q11 -71 31 -71 q24 0 34 48 q10 48 10 164 ZM53 729 q-2 5 -2 10.5 q0 5.5 0 10.5 q0 27 22.5 43.5 q22.5 16.5 55.5 16.5 q31 0 50.5 -18.5 q19.5 -18.5 19.5 -50.5 q0 -26 -22.5 -42 q-22.5 -16 -57.5 -16 q-24 0 -42.5 12 q-18.5 12 -23.5 34 Z" /><glyph glyph-name="k" unicode="k" d="M207 288 l209 202 l-66 8 q-4 16 0 39 q55 -4 103 -4 q39 0 104 3 q6 -18 0 -38 l-79 -14 l-177 -166 l218 -261 l78 -20 q4 -16 0 -40 q-63 3 -126 3 q-43 0 -127 -2 q-6 20 0 39 l66 9 l-203 242 ZM196 634 l0 -583 l81 -15 q4 -16 0 -40 q-63 3 -128 3 q-46 0 -130 -2 q-6 19 0 39 l79 11 q4 55 4 127 l0 573 l-82 10 q-4 15 0 38 q67 5 171 21 q9 -10 10 -20 q-5 -26 -5 -162 Z" /><glyph glyph-name="l" unicode="l" d="M197 634 l0 -583 l81 -15 q4 -16 0 -40 q-63 3 -129 3 q-46 0 -130 -2 q-6 19 0 39 l79 11 q4 55 4 127 l0 573 l-82 10 q-4 15 0 38 q69 5 172 21 q9 -10 10 -20 q-5 -26 -5 -162 Z" /><glyph glyph-name="m" unicode="m" d="M772 357 q0 139 -89 139 q-76 0 -144 -105 l0 -340 l81 -15 q4 -16 0 -40 q-63 3 -128 3 q-46 0 -130 -2 q-6 19 0 39 l79 11 q4 55 4 127 l0 183 q0 139 -89 139 q-45 0 -79 -27.5 q-34 -27.5 -70 -85.5 l0 -332 l81 -15 q4 -16 0 -40 q-63 3 -128 3 q-46 0 -130 -2 q-6 19 0 39 l79 11 q4 55 4 127 l0 274 q0 20 -3 37 l-79 10 q-4 15 0 38 q67 5 171 21 q9 -10 10 -20 q-5 -26 -5 -89 q79 109 178 109 q52 0 95 -26.5 q43 -26.5 55 -81.5 q80 108 177 108 q61 0 107.5 -36 q46.5 -36 46.5 -111 l0 -356 l81 -15 q4 -16 0 -40 q-63 3 -128 3 q-46 0 -130 -2 q-6 19 0 39 l79 11 q4 55 4 127 l0 183 Z" /><glyph glyph-name="n" unicode="n" d="M446 357 q0 77 -20.5 108 q-20.5 31 -68.5 31 q-74 0 -149 -111 l0 -334 l81 -15 q4 -16 0 -40 q-63 3 -129 3 q-46 0 -130 -2 q-6 19 0 39 l79 11 q4 55 4 127 l0 274 q0 20 -3 37 l-79 10 q-4 15 0 38 q69 5 172 21 q9 -10 10 -20 q-5 -26 -5 -89 q79 109 178 109 q155 0 155 -147 l0 -356 l81 -15 q4 -16 0 -40 q-63 3 -129 3 q-46 0 -130 -2 q-6 19 0 39 l79 11 q4 55 4 127 l0 183 Z" /><glyph glyph-name="o" unicode="o" d="M43 266 q0 60 17.5 112.5 q17.5 52.5 50.5 91.5 q33 39 79.5 61.5 q46.5 22.5 104.5 22.5 q57 0 104 -22.5 q47 -22.5 80.5 -61.5 q33.5 -39 51.5 -91.5 q18 -52.5 18 -112.5 q0 -62 -18.5 -114 q-18.5 -52 -52 -90.5 q-33.5 -38.5 -80.5 -60 q-47 -21.5 -103 -21.5 q-59 0 -105.5 21 q-46.5 21 -79 59 q-32.5 38 -50 90.5 q-17.5 52.5 -17.5 115.5 ZM189 450 q-43 -61 -43 -184 q0 -61 11.5 -107 q11.5 -46 31.5 -76.5 q20 -30.5 47 -45.5 q27 -15 59 -15 q31 0 59 15 q28 15 48 45.5 q20 30.5 32 76.5 q12 46 12 107 q0 61 -12 107.5 q-12 46.5 -32.5 77 q-20.5 30.5 -48 46 q-27.5 15.5 -58.5 15.5 q-62 0 -106 -62 Z" /><glyph glyph-name="p" unicode="p" d="M338 34 q66 0 104.5 64 q38.5 64 38.5 193 q0 99 -36.5 151 q-36.5 52 -96.5 52 q-88 0 -152 -85 l0 -311 q56 -64 142 -64 ZM101 391 q0 67 -3 94 l-79 10 q-3 16 0 38 q70 5 172 21 q9 -9 10 -20 q-5 -35 -5 -74 q81 94 186 94 q88 0 146.5 -73 q58.5 -73 58.5 -193 q0 -139 -76.5 -223.5 q-76.5 -84.5 -180.5 -84.5 q-73 0 -134 47 l0 -245 l101 -15 q4 -16 0 -40 q-63 3 -139 3 q-56 0 -140 -2 q-6 20 0 39 l79 11 q4 55 4 127 l0 486 Z" /><glyph glyph-name="q" unicode="q" d="M531 -218 l81 -15 q4 -16 0 -40 q-63 3 -134 3 q-51 0 -135 -2 q-6 20 0 39 l89 11 q4 55 4 140 l0 145 q-83 -83 -181 -83 q-88 0 -149.5 78.5 q-61.5 78.5 -61.5 199.5 q0 139 78 217.5 q78 78.5 191 78.5 q45 0 87.5 -21.5 q42.5 -21.5 67.5 -61.5 l34 83 q34 0 54 -9 q-18 -62 -25 -182 l0 -581 ZM299 500 q-66 0 -107.5 -65 q-41.5 -65 -41.5 -180 q0 -99 40 -157 q40 -58 99 -58 q35 0 76 22.5 q41 22.5 71 61.5 l0 306 q-54 70 -137 70 Z" /><glyph glyph-name="r" unicode="r" d="M213 534 l-2 -103 q25 46 69.5 84.5 q44.5 38.5 84.5 38.5 q31 0 55 -7 q8 -13 8 -34 q0 -33 -14 -66 q-36 10 -69 10 q-82 0 -135 -80 l-2 -175 l0 -151 l111 -15 q4 -16 0 -40 q-63 3 -144 3 q-61 0 -145 -2 q-6 19 0 39 l79 11 q4 55 4 127 l0 274 q0 20 -3 37 l-79 10 q-4 15 0 38 q69 5 172 21 q9 -10 10 -20 Z" /><glyph glyph-name="s" unicode="s" d="M222 24 q54 0 80 25 q26 25 26 58 q0 19 -6 35 q-6 16 -19.5 31 q-13.5 15 -35.5 29.5 q-22 14.5 -55 31.5 q-41 21 -70.5 40 q-29.5 19 -48.5 40 q-19 21 -28.5 45 q-9.5 24 -9.5 54 q0 36 13 62.5 q13 26.5 36.5 44 q23.5 17.5 55.5 26 q32 8.5 71 8.5 q78 0 152 -38 l0 -128 l-47 0 l-22 108 q-44 21 -93 21 q-82 0 -82 -67 q0 -36 27 -66 q27 -30 87 -60 q41 -21 72 -40 q31 -19 51.5 -40 q20.5 -21 31 -45.5 q10.5 -24.5 10.5 -55.5 q0 -35 -15 -65 q-15 -30 -42 -51.5 q-27 -21.5 -65 -34 q-38 -12.5 -84 -12.5 q-89 0 -167 38 l0 128 l47 0 l22 -99 q51 -23 108 -23 Z" /><glyph glyph-name="t" unicode="t" d="M190 654 l0 -143 l141 0 q2 -12 2 -18 q0 -9 -2 -21 l-141 -21 l0 -275 q0 -74 13.5 -104.5 q13.5 -30.5 42.5 -30.5 q26 0 81 21 q10 -9 14 -34 q-30 -18 -45.5 -26.5 q-15.5 -8.5 -39 -15 q-23.5 -6.5 -49.5 -6.5 q-50 0 -81.5 38.5 q-31.5 38.5 -31.5 117.5 l0 327 l-70 9 q-2 10 -2 17 q0 8 2 22 q28 5 48.5 17.5 q20.5 12.5 34.5 35 q14 22.5 21.5 40 q7.5 17.5 18.5 50.5 q9 3 22 3 q12 0 21 -3 Z" /><glyph glyph-name="u" unicode="u" d="M516 534 l0 -392 q0 -67 3 -94 l79 -10 q3 -16 0 -38 q-73 -3 -152 -14 q-7 7 -10 19 l-5 89 q-42 -54 -86.5 -84 q-44.5 -30 -104.5 -30 q-61 0 -102.5 31 q-41.5 31 -41.5 106 l0 222 q0 114 -3 146 l-79 10 q-4 15 0 38 q69 5 172 21 q9 -10 10 -20 q-5 -26 -5 -367 q0 -70 16.5 -99.5 q16.5 -29.5 61.5 -29.5 q84 0 152 100 l0 202 q0 113 -3 145 l-79 10 q-4 15 0 38 q60 4 167 21 q9 -10 10 -20 Z" /><glyph glyph-name="v" unicode="v" d="M287 -44 l-21 0 l-207 529 l-63 12 q-4 16 0 40 q55 -4 119 -4 q57 0 121 3 q6 -20 0 -39 l-63 -12 l81 -230 q35 -100 46 -145 l2 0 q24 86 47 140 l86 239 l-78 8 q-4 16 0 40 q55 -4 105 -4 q42 0 107 3 q6 -20 0 -39 l-75 -11 l-207 -530 Z" /><glyph glyph-name="w" unicode="w" d="M562 -44 l-21 0 l-132 367 l-137 -367 l-21 0 l-192 529 l-63 12 q-4 16 0 40 q55 -4 119 -4 q57 0 121 3 q6 -20 0 -39 l-77 -12 l80 -227 q35 -100 46 -145 l2 0 q24 86 47 140 l51 137 l-34 95 l-63 12 q-4 16 0 40 q55 -4 119 -4 q57 0 121 3 q6 -20 0 -39 l-77 -12 l77 -227 q35 -100 46 -145 l2 0 q24 86 47 140 l87 236 l-78 8 q-4 16 0 40 q55 -4 103 -4 q41 0 105 3 q6 -20 0 -39 l-75 -11 l-203 -530 Z" /><glyph glyph-name="x" unicode="x" d="M516 486 l-167 -207 l174 -226 l84 -16 q4 -16 0 -40 q-63 3 -133 3 q-50 0 -134 -2 q-6 20 0 39 l73 11 l-126 165 l-132 -168 l68 -8 q4 -16 0 -40 q-63 3 -103 3 q-20 0 -104 -2 q-6 20 0 39 l75 11 l165 205 l-177 232 l-61 14 q-4 16 0 39 q55 -4 122 -4 q58 0 123 3 q6 -18 0 -38 l-72 -13 l130 -170 l136 173 l-68 8 q-4 16 0 40 q55 -4 100 -4 q37 0 102 3 q6 -20 0 -39 l-75 -11 Z" /><glyph glyph-name="y" unicode="y" d="M207 -148 l64 151 l-194 478 l-78 16 q-5 20 0 40 q55 -4 134 -4 q71 0 135 3 q6 -20 0 -39 l-86 -14 l95 -225 q20 -49 42 -137 l2 0 q17 60 47 132 l87 233 l-78 11 q-4 16 0 40 q55 -4 107 -4 q44 0 109 3 q6 -20 0 -39 l-79 -11 l-264 -646 q-21 -50 -47 -75 q-26 -25 -69 -25 q-34 0 -52.5 8.5 q-18.5 8.5 -37.5 32.5 q6 55 57 88 q41 -46 70 -46 q25 0 36 29 Z" /><glyph glyph-name="z" unicode="z" d="M46 34 l289 454 l-205 0 l-41 -129 q-15 -4 -37 0 l3 175 l392 0 q4 -21 0 -37 l-278 -447 l201 0 l39 125 q15 4 37 0 l-3 -175 l-397 0 q-5 15 0 34 Z" /><glyph glyph-name="braceleft" unicode="{" d="M243 172 l0 -147 q0 -96 20.5 -120.5 q20.5 -24.5 102.5 -24.5 q10 -26 0 -51 q-93 0 -136.5 16 q-43.5 16 -58.5 54.5 q-15 38.5 -15 122.5 l0 147 q0 98 -17 131 q-17 33 -79 34 l-7 0 q-6 17 0 31 q67 0 85 32.5 q18 32.5 18 132.5 l0 147 q0 84 15 122.5 q15 38.5 58.5 54.5 q43.5 16 136.5 16 q10 -24 0 -51 q-82 0 -102.5 -24.5 q-20.5 -24.5 -20.5 -120.5 l0 -147 q0 -83 -13.5 -122.5 q-13.5 -39.5 -52.5 -55.5 q40 -16 53 -55 q13 -39 13 -122 Z" /><glyph glyph-name="bar" unicode="|" d="M147 913 l0 -1051 q-26 -9 -57 0 l0 1051 q30 7 57 0 Z" /><glyph glyph-name="braceright" unicode="}" d="M216 172 q0 83 13 122 q13 39 53 55 q-39 16 -52.5 55.5 q-13.5 39.5 -13.5 122.5 l0 147 q0 96 -20.5 120.5 q-20.5 24.5 -102.5 24.5 q-10 27 0 51 q93 0 136.5 -16 q43.5 -16 58.5 -54.5 q15 -38.5 15 -122.5 l0 -147 q0 -100 18 -132.5 q18 -32.5 85 -32.5 q6 -14 0 -31 l-7 0 q-62 -1 -79 -34 q-17 -33 -17 -131 l0 -147 q0 -84 -15 -122.5 q-15 -38.5 -58.5 -54.5 q-43.5 -16 -136.5 -16 q-10 25 0 51 q82 0 102.5 24.5 q20.5 24.5 20.5 120.5 l0 147 l0 0 Z" /><glyph glyph-name="asciitilde" unicode="~" d="M475 461 q30 0 53 11 q23 11 66 47 q28 -6 38 -29 q-79 -107 -182 -107 q-45 0 -81.5 16 q-36.5 16 -56 35 q-19.5 19 -49.5 35 q-30 16 -63 16 q-28 0 -51.5 -16 q-23.5 -16 -65.5 -58 q-28 11 -41 36 q88 116 185 116 q44 0 79.5 -16 q35.5 -16 56 -35 q20.5 -19 50 -35 q29.5 -16 62.5 -16 Z" /><glyph glyph-name="nonbreakingspace" unicode=" " d="" /><glyph glyph-name="cent" unicode="¢" d="M366 668 l-11 -118 q67 -11 111 -47.5 q44 -36.5 44 -96.5 q-21 -23 -103 -21 q-12 81 -56 112 l-42 -472 l1 0 q74 0 162 64 q15 -9 23 -31 q-75 -73 -190 -78 l-9 -108 q-24 -8 -50 0 l9 111 q-97 12 -150 85 q-53 73 -53 200 q0 91 39 158 q39 67 95.5 97.5 q56.5 30.5 118.5 30.5 l1 0 l10 114 q25 10 50 0 ZM159 266 q0 -88 26.5 -148.5 q26.5 -60.5 74.5 -82.5 l42 479 l-2 0 q-61 0 -101 -67.5 q-40 -67.5 -40 -180.5 Z" /><glyph glyph-name="sterling" unicode="£" d="M488 57 q30 0 53 11 q23 11 66 47 q27 -6 38 -29 q-79 -107 -182 -107 q-48 0 -87.5 16 q-39.5 16 -61 35 q-21.5 19 -53.5 35 q-32 16 -68 16 q-26 0 -51.5 -17 q-25.5 -17 -65.5 -57 q-28 11 -41 36 q42 57 89 86 l84 68 q26 22 26 70 q0 37 -15 92 l-97 0 q-10 25 0 50 l82 0 q-8 25 -25.5 72 q-17.5 47 -23.5 66 q-19 59 -19 102 q0 78 54 122.5 q54 44.5 161 44.5 q109 0 210 -60 l0 -162 l-57 0 l-32 140 q-49 39 -123 39 q-47 0 -70.5 -26.5 q-23.5 -26.5 -23.5 -70.5 q0 -28 7 -53 q7 -31 34.5 -106 q27.5 -75 36.5 -108 l140 0 q12 -25 0 -50 l-131 0 q1 -4 1 -12 q0 -64 -16.5 -98.5 q-16.5 -34.5 -68.5 -73.5 l-22 -17 q43 -2 78 -18.5 q35 -16.5 55 -34.5 q20 -18 51 -33 q31 -15 68 -15 Z" /><glyph glyph-name="currency" unicode="¤" d="M503 359 q0 -73 -45 -131 l60 -60 q-4 -25 -35 -36 l-61 61 q-59 -45 -129 -45 q-74 0 -130 44 l-61 -61 q-29 15 -36 36 l61 61 q-45 58 -45 131 q0 73 45 129 l-62 63 q8 21 36 35 l62 -62 q58 44 130 44 q70 0 129 -45 l64 64 q22 -11 35 -36 l-63 -63 q45 -59 45 -129 ZM293 513 q-32 0 -60.5 -12 q-28.5 -12 -49.5 -33 q-21 -21 -33.5 -49 q-12.5 -28 -12.5 -60 q0 -32 12.5 -60.5 q12.5 -28.5 33.5 -49.5 q21 -21 49.5 -33 q28.5 -12 60.5 -12 q32 0 60.5 12.5 q28.5 12.5 49.5 34 q21 21.5 33 49.5 q12 28 12 59 q0 31 -12.5 59 q-12.5 28 -33.5 49 q-21 21 -49 33.5 q-28 12.5 -60 12.5 Z" /><glyph glyph-name="yen" unicode="¥" d="M598 257 l-189 0 l0 -213 l81 -10 q2 -10 2 -17 q0 -5 -0.5 -10 q-0.5 -5 -1.5 -10 q-63 3 -137 3 q-27 0 -61.5 -0.5 q-34.5 -0.5 -76.5 -1.5 q-3 9 -3 18 q0 9 3 18 l83 12 q2 19 3 48 q1 29 1 69 l0 94 l-165 0 q-6 13 -6 26 q0 12 6 24 l165 0 l0 37 l-8 13 l-157 0 q-7 11 -7 25 q0 12 7 25 l128 0 l-202 345 l-71 10 q-2 5 -2 16 q0 5 0 10 q0 5 2 11 q28 -2 65 -3 q37 -1 85 -1 q87 0 152 3 q3 -9 3 -18 q0 -9 -3 -18 l-98 -19 q18 -55 55 -118 l132 -226 l209 353 l-81 10 q-2 5 -2 16 q0 5 0 10 q0 5 2 11 q28 -2 55 -3 q27 -1 55 -1 q47 0 112 3 q3 -9 3 -18 q0 -9 -3 -18 l-62 -12 q-22 -25 -38.5 -47 q-16.5 -22 -27.5 -42 l-156 -254 l149 0 q5 -15 5 -25 q0 -12 -5 -25 l-179 0 l-10 -16 l0 -34 l189 0 q6 -14 6 -25 q0 -13 -6 -25 Z" /><glyph glyph-name="brokenbar" unicode="¦" d="M151 783 l0 -336 q-26 -9 -57 0 l0 336 q30 7 57 0 ZM151 324 l0 -336 q-26 -9 -57 0 l0 336 q30 7 57 0 Z" /><glyph glyph-name="section" unicode="§" d="M412 476 q62 -50 62 -134 q0 -95 -71 -161 q51 -51 51 -106 q0 -90 -55.5 -135.5 q-55.5 -45.5 -154.5 -45.5 q-47 0 -92 15.5 q-45 15.5 -78.5 51 q-33.5 35.5 -33.5 84.5 q22 24 75 24 q17 0 38 -3 q9 -69 42 -101 q33 -32 74 -32 q49 0 78.5 24 q29.5 24 29.5 71 q0 47 -59 94 l-165 118 q-80 64 -80 161 q0 85 72 149 q-50 51 -50 115 q0 81 56.5 126.5 q56.5 45.5 145.5 45.5 q73 0 129 -39 q56 -39 56 -112 q-24 -24 -76 -24 q-19 0 -37 3 q-17 129 -97 129 q-43 0 -71.5 -22.5 q-28.5 -22.5 -28.5 -68.5 q0 -54 59 -100 l181 -127 ZM210 322 l155 -109 l8 -7 q37 33 37 79 q0 30 -18.5 61.5 q-18.5 31.5 -52.5 55.5 l-155 116 q-3 1 -7 5 q-38 -36 -38 -87 q0 -61 71 -114 Z" /><glyph glyph-name="dieresis" unicode="¨" d="M108 731 q26 0 43.5 -17.5 q17.5 -17.5 17.5 -44.5 q0 -27 -17.5 -45 q-17.5 -18 -43.5 -18 q-27 0 -46 18 q-19 18 -19 45 q0 27 19 44.5 q19 17.5 46 17.5 ZM300 731 q26 0 44 -17.5 q18 -17.5 18 -44.5 q0 -27 -18 -45 q-18 -18 -44 -18 q-27 0 -45.5 18 q-18.5 18 -18.5 45 q0 27 18.5 44.5 q18.5 17.5 45.5 17.5 Z" /><glyph glyph-name="copyright" unicode="©" d="M586 245 q20 -15 26 -32 q-82 -74 -162 -74 q-54 0 -95.5 19.5 q-41.5 19.5 -69 52 q-27.5 32.5 -42 75.5 q-14.5 43 -14.5 90 q0 47 16.5 90.5 q16.5 43.5 47 77 q30.5 33.5 73.5 53.5 q43 20 97 20 q73 0 137 -34 l0 -110 q-11 -3 -21 -3 q-11 0 -21 3 l-19 82 q-34 23 -83 23 q-30 0 -55 -14.5 q-25 -14.5 -43 -40 q-18 -25.5 -28 -60.5 q-10 -35 -10 -77 q0 -96 35 -147.5 q35 -51.5 95 -51.5 q74 0 136 58 ZM842 379 q0 -108 -55 -199 q-55 -91 -145.5 -143 q-90.5 -52 -194.5 -52 q-108 0 -199 54.5 q-91 54.5 -143 145.5 q-52 91 -52 194 q0 164 117.5 279 q117.5 115 276.5 115 q164 0 279.5 -117.5 q115.5 -117.5 115.5 -276.5 ZM791 379 q0 139 -100.5 241.5 q-100.5 102.5 -243.5 102.5 q-139 0 -241 -100.5 q-102 -100.5 -102 -243.5 q0 -139 100 -241.5 q100 -102.5 243 -102.5 q138 0 241 100.5 q103 100.5 103 243.5 Z" /><glyph glyph-name="ordfeminine" unicode="ª" d="M133 466 q0 -39 10.5 -54 q10.5 -15 38.5 -15 q23 0 53.5 18.5 q30.5 18.5 56.5 47.5 l0 110 q-75 -4 -117 -34 q-42 -30 -42 -73 ZM292 607 l0 40 q0 67 -15.5 98 q-15.5 31 -51.5 31 q-75 0 -89 -103 q-22 -6 -38 -6 q-30 0 -36 22 q0 54 47 86 q47 32 117 32 q77 0 109 -31 q32 -31 32 -113 l0 -224 q0 -21 3 -34 l63 -8 q2 -11 0 -30 q-62 -3 -120 -12 q-7 7 -8 16 l-4 55 q-66 -75 -147 -75 q-50 0 -78.5 29.5 q-28.5 29.5 -28.5 77.5 q0 73 66 109.5 q66 36.5 179 39.5 Z" /><glyph glyph-name="guillemotleft" unicode="«" d="M137 247 l133 -186 q-4 -16 -22 -21 l-208 197 l0 20 l208 197 q18 -5 22 -21 l-133 -186 ZM338 247 l126 -177 q-5 -16 -21 -20 l-197 187 l0 19 l197 188 q16 -4 21 -20 l-126 -177 Z" /><glyph glyph-name="logicalnot" unicode="¬" d="M571 415 l0 -261 q-22 -14 -50 0 l0 211 l-441 0 q-9 30 0 50 l491 0 Z" /><glyph glyph-name="uni00AD" unicode="­" d="M367 325 l-297 0 q-9 30 0 50 l297 0 q8 -23 0 -50 Z" /><glyph glyph-name="registered" unicode="®" d="M842 379 q0 -108 -55 -199 q-55 -91 -145.5 -143 q-90.5 -52 -194.5 -52 q-108 0 -199 54.5 q-91 54.5 -143 145.5 q-52 91 -52 194 q0 164 117.5 279 q117.5 115 276.5 115 q164 0 279.5 -117.5 q115.5 -117.5 115.5 -276.5 ZM791 379 q0 139 -100.5 241.5 q-100.5 102.5 -243.5 102.5 q-139 0 -241 -100.5 q-102 -100.5 -102 -243.5 q0 -139 100 -241.5 q100 -102.5 243 -102.5 q138 0 241 100.5 q103 100.5 103 243.5 ZM251 616 q25 0 84 2 q59 2 99 2 q169 0 169 -129 q0 -38 -28.5 -68.5 q-28.5 -30.5 -72.5 -46.5 l114 -192 l41 -5 q2 -8 0 -22 l-110 0 l-87 157 q-18 33 -32 51 q-8 0 -17 0.5 q-9 0.5 -20 1.5 q-11 1 -18 1 l0 -185 l53 -6 q2 -8 0 -22 q-26 2 -99 2 q-58 0 -80 -1 q-3 10 0 21 l47 7 q3 21 3 67 l0 337 l-46 6 q-3 11 0 22 ZM373 516 l0 -116 q13 -3 53 -3 q55 0 77.5 27 q22.5 27 22.5 67 q0 50 -24 75.5 q-24 25.5 -83 25.5 q-6 0 -42 -4 q-4 -31 -4 -72 Z" /><glyph glyph-name="macron" unicode="¯" d="M637 728 l-631 0 q-9 30 0 50 l631 0 q8 -23 0 -50 Z" /><glyph glyph-name="degree" unicode="°" d="M367 617 q0 -36 -14 -68.5 q-14 -32.5 -37.5 -56.5 q-23.5 -24 -55.5 -38.5 q-32 -14.5 -68 -14.5 q-36 0 -68.5 14 q-32.5 14 -56.5 38 q-24 24 -38 56.5 q-14 32.5 -14 68.5 q0 37 14.5 69 q14.5 32 38.5 55.5 q24 23.5 56 37 q32 13.5 67 13.5 q36 0 68 -14 q32 -14 56 -38 q24 -24 38 -55.5 q14 -31.5 14 -66.5 ZM303 618 q0 22 -9 43 q-9 21 -24 37 q-15 16 -35.5 25.5 q-20.5 9.5 -43.5 9.5 q-22 0 -42 -9.5 q-20 -9.5 -35.5 -25.5 q-15.5 -16 -25 -37.5 q-9.5 -21.5 -9.5 -44.5 q0 -23 9 -44 q9 -21 24 -38 q15 -17 35.5 -27 q20.5 -10 44.5 -10 q23 0 43.5 10 q20.5 10 35.5 27 q15 17 23.5 38.5 q8.5 21.5 8.5 45.5 Z" /><glyph glyph-name="plusminus" unicode="±" d="M346 585 l0 -170 l221 0 q8 -23 0 -50 l-221 0 l0 -171 q-22 -14 -50 0 l0 171 l-220 0 q-9 30 0 50 l220 0 l0 170 q23 10 50 0 ZM567 95 l-491 0 q-9 30 0 50 l491 0 q8 -23 0 -50 Z" /><glyph glyph-name="twosuperior" unicode="²" d="M356 321 l-289 0 q-12 20 -10 46 q116 110 162.5 176.5 q46.5 66.5 46.5 135.5 q0 89 -64 89 q-28 0 -42 -23.5 q-14 -23.5 -20 -73.5 q-71 -2 -84 17 q3 56 44 87.5 q41 31.5 97 31.5 q70 0 112 -33 q42 -33 42 -96 q0 -22 -4 -40.5 q-4 -18.5 -15 -40 q-11 -21.5 -22 -37.5 q-11 -16 -34.5 -40 q-23.5 -24 -34.5 -34.5 q-11 -10.5 -46 -42.5 q-35 -32 -48 -44 l144 0 q10 0 66 13 q-1 -20 -1 -91 Z" /><glyph glyph-name="threesuperior" unicode="³" d="M197 351 q74 0 74 101 q0 103 -97 103 l-12 0 q-4 4 -4 26 q0 24 4 28 l11 0 q45 0 59.5 21.5 q14.5 21.5 14.5 66.5 q0 36 -10 55 q-10 19 -40 19 q-30 0 -44.5 -22.5 q-14.5 -22.5 -19.5 -71.5 q-29 0 -46 3.5 q-17 3.5 -25 14.5 q0 51 34.5 81.5 q34.5 30.5 97.5 30.5 q63 0 98.5 -30 q35.5 -30 35.5 -81 q0 -79 -95 -108 l0 -2 q58 -7 86.5 -39.5 q28.5 -32.5 28.5 -83.5 q0 -69 -44 -111.5 q-44 -42.5 -120 -42.5 q-26 0 -49 6.5 q-23 6.5 -41 19.5 q-18 13 -28.5 32 q-10.5 19 -10.5 45 q38 20 66 20 l7 0 q13 -81 69 -81 Z" /><glyph glyph-name="acute" unicode="´" d="M240 724 l-128 -154 q-29 8 -43 17 l84 174 q31 20 87 -37 Z" /><glyph glyph-name="mu" unicode="µ&#x3bc;" d="M416 94 q-44 -57 -83 -85.5 q-39 -28.5 -98 -28.5 q-51 0 -89 30 l0 -53 q0 -212 64 -212 q20 0 31 71 q17 4 37 4 q37 0 60 -19 q0 -41 -26.5 -66 q-26.5 -25 -84.5 -25 q-41 0 -70.5 25 q-29.5 25 -45.5 69 q-16 44 -23 94.5 q-7 50.5 -7 111.5 l0 329 q0 114 -3 202 q62 8 93 13 q9 -10 10 -20 q-5 -26 -5 -367 q0 -60 21 -94.5 q21 -34.5 57 -34.5 q84 0 152 100 l0 201 q0 114 -3 202 q62 8 93 13 q9 -10 10 -20 q-5 -24 -5 -186 l0 -206 q0 -76 13 -141 q-62 -8 -93 -13 q-9 10 -10 20 q5 24 5 86 Z" /><glyph glyph-name="paragraph" unicode="¶" d="M544 756 l0 -593 q0 -79 4 -117 l63 -12 q4 -14 0 -36 q-104 2 -149 2 q-96 0 -205 -3 q-4 22 0 37 l91 10 l0 313 q-28 -5 -63 -5 q-102 0 -175.5 65 q-73.5 65 -73.5 161 q0 229 247 229 q5 0 163 -7 q21 -1 60 -1 q62 0 109 4 q4 -22 0 -37 l-71 -10 ZM298 395 q31 0 50 3 l0 235 q0 81 -5 128 q-11 4 -35 4 q-151 0 -151 -182 q0 -97 34.5 -142.5 q34.5 -45.5 106.5 -45.5 ZM416 163 q0 -81 4 -119 l56 0 l0 593 q0 81 -4 119 l-56 0 l0 -593 Z" /><glyph glyph-name="periodcentered" unicode="·" d="M123 361 q27 0 45.5 -17.5 q18.5 -17.5 18.5 -43.5 q0 -26 -18.5 -44.5 q-18.5 -18.5 -44.5 -18.5 q-26 0 -44.5 18.5 q-18.5 18.5 -18.5 44.5 q0 26 18 43.5 q18 17.5 44 17.5 Z" /><glyph glyph-name="cedilla" unicode="¸" d="M61 -173 q38 -8 62 -8 q29 0 45.5 14.5 q16.5 14.5 16.5 39.5 q0 53 -73 58 l16 78 l53 0 l-6 -43 q50 -2 77.5 -27 q27.5 -25 27.5 -65 q0 -104 -142 -104 q-24 0 -77 11 q-8 21 0 46 Z" /><glyph glyph-name="onesuperior" unicode="¹" d="M217 650 l0 -268 l81 -15 q4 -16 0 -40 q-63 3 -122 3 q-40 0 -124 -2 q-6 20 0 39 l79 11 q4 55 4 127 l0 145 q0 61 -3 93 l-85 -13 q-9 20 -2 43 l167 44 q9 -10 10 -20 q-5 -26 -5 -147 Z" /><glyph glyph-name="ordmasculine" unicode="º" d="M25 579 q0 47 14 88.5 q14 41.5 40.5 72.5 q26.5 31 63.5 49 q37 18 82 18 q45 0 82.5 -18 q37.5 -18 64 -49.5 q26.5 -31.5 41 -73 q14.5 -41.5 14.5 -87.5 q0 -49 -15 -91 q-15 -42 -42 -72.5 q-27 -30.5 -64 -47.5 q-37 -17 -81 -17 q-47 0 -84.5 17 q-37.5 17 -63 47 q-25.5 30 -39 72 q-13.5 42 -13.5 92 ZM344 579 q0 97 -34 146 q-34 49 -85 49 q-51 0 -84 -48 q-33 -48 -33 -147 q0 -99 33 -147 q33 -48 84 -48 q50 0 84.5 48.5 q34.5 48.5 34.5 146.5 Z" /><glyph glyph-name="guillemotright" unicode="»" d="M245 433 q4 16 22 21 l208 -197 l0 -20 l-208 -197 q-18 5 -22 21 l133 186 l-133 186 ZM51 424 q5 16 21 20 l197 -188 l0 -19 l-197 -187 q-16 4 -21 20 l126 177 l-126 177 Z" /><glyph glyph-name="AE" unicode="æ" d="M464 293 l-259 0 l-140 -249 l81 -10 q4 -15 0 -37 q-63 3 -111 3 q-29 0 -113 -2 q-6 18 0 36 l76 12 l438 750 l478 0 l1 -232 q-22 -4 -37 0 l-47 181 l-270 0 l0 -300 l160 3 l23 98 q15 4 37 0 q-4 -56 -4 -129 q0 -67 3 -130 q-18 -6 -36 0 l-22 104 l-161 4 l0 -344 l300 0 l47 181 q15 4 37 0 l-1 -232 l-480 0 l0 293 ZM464 751 l-231 -408 l231 0 l0 408 Z" /><glyph glyph-name="Ccedilla" unicode="ç" d="M332 -199 q38 -8 62 -8 q29 0 45.5 14.5 q16.5 14.5 16.5 39.5 q0 53 -73 58 l15 77 q-86 7 -153.5 45.5 q-67.5 38.5 -108.5 97 q-41 58.5 -62 127.5 q-21 69 -21 143 q0 78 27 152.5 q27 74.5 76.5 135 q49.5 60.5 129 97 q79.5 36.5 176.5 36.5 q129 0 240 -60 l0 -192 q-34 -6 -57 0 l-32 167 q-61 40 -163 40 q-125 0 -199 -103.5 q-74 -103.5 -74 -255.5 q0 -161 72 -263.5 q72 -102.5 190 -102.5 q71 0 139 28 q68 28 118 74 q17 -11 26 -38 q-134 -125 -271 -130 l-5 -40 q50 -2 77.5 -27 q27.5 -25 27.5 -65 q0 -104 -142 -104 q-24 0 -77 11 q-8 21 0 46 Z" /><glyph glyph-name="Eth" unicode="ð" d="M447 437 q6 -12 6 -24 q0 -13 -6 -26 l-207 0 l0 -340 q4 0 20.5 -0.5 q16.5 -0.5 37.5 -1 q21 -0.5 43.5 -1 q22.5 -0.5 38.5 -0.5 q282 0 282 368 q0 174 -83 262 q-83 88 -239 88 q-50 0 -96 -8 q-2 -19 -3 -49 q-1 -30 -1 -72 l0 -196 l207 0 ZM46 -2 q-3 9 -3 18 q0 9 3 18 l83 12 q2 19 3 48 q1 29 1 69 l0 224 l-87 0 q-5 11 -5 26 q0 14 5 24 l87 0 l0 315 l-81 10 q-2 5 -2 16 q0 5 0 10 q0 5 2 11 q8 -1 19.5 -1 q11.5 0 27.5 0 q18 0 45.5 1 q27.5 1 58.5 2 q31 1 62 2.5 q31 1.5 56.5 2.5 q25.5 1 42 2 q16.5 1 17.5 1 q99 0 173.5 -28 q74.5 -28 124.5 -79 q50 -51 75 -123.5 q25 -72.5 25 -160.5 q0 -89 -24 -166 q-24 -77 -70 -134 q-46 -57 -113.5 -89.5 q-67.5 -32.5 -153.5 -32.5 q-24 0 -66 0.5 q-42 0.5 -85.5 1 q-43.5 0.5 -81 1 q-37.5 0.5 -53.5 0.5 q-29 0 -50.5 0 q-21.5 0 -35.5 -1 Z" /><glyph glyph-name="multiply" unicode="×" d="M97 581 l155 -155 l157 156 q21 -10 35 -36 l-156 -156 l156 -156 q-5 -25 -35 -36 l-157 156 l-155 -155 q-29 15 -36 36 l155 155 l-155 156 q9 22 36 35 Z" /><glyph glyph-name="Oslash" unicode="ø" d="M746 881 q17 5 27 5 q10 0 28 -5 l-97 -147 q73 -57 111 -143.5 q38 -86.5 38 -182.5 q0 -89 -30 -167 q-30 -78 -83 -136 q-53 -58 -126.5 -91.5 q-73.5 -33.5 -161.5 -33.5 q-118 0 -209 52 l-76 -116 q-15 -3 -28 -3 q-15 0 -27 3 l93 141 q-78 60 -115.5 149 q-37.5 89 -37.5 189 q0 85 30.5 161.5 q30.5 76.5 84.5 134 q54 57.5 127 91.5 q73 34 158 34 q120 0 215 -56 l79 121 ZM172 411 q0 -179 80 -282 l375 570 q-70 62 -176 62 q-137 0 -208 -100 q-71 -100 -71 -250 ZM451 35 q94 0 159.5 54.5 q65.5 54.5 94 137.5 q28.5 83 28.5 185 q0 157 -74 253 l-375 -570 q68 -60 167 -60 Z" /><glyph glyph-name="Thorn" unicode="þ" d="M133 520 l0 232 l-81 10 q-4 15 0 37 q55 -4 137 -4 q73 0 138 3 q6 -18 0 -36 l-83 -12 q-4 -34 -4 -105 q50 2 86 2 q155 0 221 -60.5 q66 -60.5 66 -168.5 q0 -96 -85.5 -161 q-85.5 -65 -203.5 -65 q-45 0 -84 4 l0 -152 l81 -10 q4 -15 0 -37 q-63 3 -137 3 q-54 0 -138 -2 q-6 18 0 36 l83 12 q4 38 4 117 l0 357 ZM240 237 q25 -2 71 -2 q52 0 89.5 17.5 q37.5 17.5 56.5 47 q19 29.5 27 59.5 q8 30 8 64 q0 87 -44 134.5 q-44 47.5 -147 47.5 q-19 0 -61 -5 l0 -363 Z" /><glyph glyph-name="germandbls" unicode="ß" d="M27 -3 q-4 8 -4 19 q0 11 4 20 l73 16 q2 26 3 56.5 q1 30.5 1 65.5 l0 395 q0 125 57 186 q57 61 152 61 q41 0 77.5 -12 q36.5 -12 64.5 -34.5 q28 -22.5 44 -54 q16 -31.5 16 -71.5 q0 -36 -9.5 -70 q-9.5 -34 -28 -61 q-18.5 -27 -46 -44.5 q-27.5 -17.5 -63.5 -21.5 l0 -4 q46 -4 83 -21.5 q37 -17.5 62.5 -46 q25.5 -28.5 39 -67 q13.5 -38.5 13.5 -83.5 q0 -63 -14.5 -109 q-14.5 -46 -40 -75.5 q-25.5 -29.5 -59.5 -43.5 q-34 -14 -73 -14 q-54 0 -87 22 q-33 22 -33 67 q28 21 67 21 l10 0 q4 -40 22 -58 q18 -18 35 -18 q42 0 55.5 50 q13.5 50 13.5 153 q0 94 -39.5 140 q-39.5 46 -120.5 60 q-6 9 -6 22 q0 12 6 27 q57 2 86.5 45 q29.5 43 29.5 119 q0 78 -29.5 110.5 q-29.5 32.5 -86.5 32.5 q-27 0 -46.5 -13 q-19.5 -13 -32 -44.5 q-12.5 -31.5 -18.5 -84.5 q-6 -53 -6 -133 l0 -360 q0 -38 3 -73 q3 -35 10 -67 q-31 0 -76.5 -1 q-45.5 -1 -108.5 -3 Z" /><glyph glyph-name="ae" unicode="æ" d="M348 302 l0 51 q0 85 -19.5 123.5 q-19.5 38.5 -64.5 38.5 q-46 0 -74 -29.5 q-28 -29.5 -38 -100.5 q-32 -7 -47 -7 q-39 0 -46 28 q0 68 59 108 q59 40 147 40 q119 0 154 -62 q65 62 163 62 q111 0 160 -73 q49 -73 49 -190 q-8 -7 -21 -9 l-326 0 q-8 -254 158 -254 q68 0 152 61 q15 -9 23 -31 q-80 -78 -191 -78 q-139 0 -203 98 q-74 -98 -209 -98 q-63 0 -98.5 36 q-35.5 36 -35.5 97 q0 92 83.5 139 q83.5 47 224.5 50 ZM135 133 q0 -52 19 -73.5 q19 -21.5 60 -21.5 q51 0 92.5 37.5 q41.5 37.5 41.5 77.5 l0 113 q-103 -6 -158 -36.5 q-55 -30.5 -55 -96.5 ZM573 508 q-49 0 -83.5 -51.5 q-34.5 -51.5 -42.5 -134.5 l124 0 q80 0 116 9 q0 177 -114 177 Z" /><glyph glyph-name="ccedilla" unicode="ç" d="M178 -183 q38 -8 62 -8 q29 0 45.5 14.5 q16.5 14.5 16.5 39.5 q0 53 -73 58 l12 62 q-90 13 -145 84 q-55 71 -55 199 q0 135 74.5 211.5 q74.5 76.5 170.5 76.5 q76 0 134 -38 q58 -38 58 -110 q-21 -22 -99 -21 q-16 126 -91 126 q-59 0 -100 -68 q-41 -68 -41 -179 q0 -114 36 -175.5 q36 -61.5 108 -61.5 q76 0 149 62 q15 -9 23 -31 q-68 -73 -168 -77 l-3 -25 q50 -2 77.5 -27 q27.5 -25 27.5 -65 q0 -104 -142 -104 q-24 0 -77 11 q-8 21 0 46 Z" /><glyph glyph-name="eth" unicode="ð" d="M190 646 l75 80 q-32 20 -67.5 33.5 q-35.5 13.5 -73.5 18.5 q-4 8 -4 19 q0 11 4 20 q94 -3 176 -54 l78 82 q26 -3 34 -32 l-74 -76 q51 -41 91.5 -93.5 q40.5 -52.5 69 -113.5 q28.5 -61 43.5 -128 q15 -67 15 -136 q0 -61 -19 -113.5 q-19 -52.5 -53 -90.5 q-34 -38 -81.5 -60 q-47.5 -22 -103.5 -22 q-59 0 -106.5 21 q-47.5 21 -80.5 59 q-33 38 -50.5 90.5 q-17.5 52.5 -17.5 115.5 q0 54 16.5 101 q16.5 47 48 82 q31.5 35 77 55 q45.5 20 103.5 20 q74 0 147 -49 q-41 144 -136 224 l-77 -80 q-11 0 -21.5 9 q-10.5 9 -12.5 18 ZM151 266 q0 -62 11.5 -107.5 q11.5 -45.5 31.5 -76 q20 -30.5 47 -45.5 q27 -15 59 -15 q31 0 59 15 q28 15 48 45.5 q20 30.5 32 76 q12 45.5 12 107.5 q0 54 -12 94.5 q-12 40.5 -32 67.5 q-20 27 -48 40.5 q-28 13.5 -59 13.5 q-32 0 -59 -13.5 q-27 -13.5 -47 -40.5 q-20 -27 -31.5 -67.5 q-11.5 -40.5 -11.5 -94.5 Z" /><glyph glyph-name="divide" unicode="÷" d="M555 365 l-491 0 q-5 17 -5 27 q0 11 5 23 l491 0 q2 -6 3 -12 q1 -6 1 -12 q0 -7 -1 -13 q-1 -6 -3 -13 ZM307 265 q27 0 45.5 -17.5 q18.5 -17.5 18.5 -43.5 q0 -26 -18.5 -44.5 q-18.5 -18.5 -44.5 -18.5 q-26 0 -44.5 18.5 q-18.5 18.5 -18.5 44.5 q0 26 18 43.5 q18 17.5 44 17.5 ZM307 639 q27 0 45.5 -17.5 q18.5 -17.5 18.5 -43.5 q0 -26 -18.5 -44.5 q-18.5 -18.5 -44.5 -18.5 q-26 0 -44.5 18.5 q-18.5 18.5 -18.5 44.5 q0 26 18 43.5 q18 17.5 44 17.5 Z" /><glyph glyph-name="oslash" unicode="ø" d="M403 594 q13 5 24 5 q9 0 26 -5 l-28 -74 q61 -37 95.5 -105 q34.5 -68 34.5 -149 q0 -61 -19 -113.5 q-19 -52.5 -53 -90.5 q-34 -38 -81.5 -60 q-47.5 -22 -103.5 -22 q-45 0 -82 12 l-17 -45 q-12 -3 -23 -3 q-14 0 -27 3 l23 64 q-63 34 -96 100.5 q-33 66.5 -33 154.5 q0 60 18 112.5 q18 52.5 51.5 91.5 q33.5 39 80.5 61.5 q47 22.5 105 22.5 q42 0 84 -14 l21 54 ZM149 266 q0 -132 51 -195 l160 423 q-28 18 -62 18 q-63 0 -106 -61.5 q-43 -61.5 -43 -184.5 ZM449 266 q0 126 -51 194 l-160 -422 q28 -16 60 -16 q63 0 107 60.5 q44 60.5 44 183.5 Z" /><glyph glyph-name="thorn" unicode="þ" d="M316 34 q71 0 112 64 q41 64 41 193 q0 99 -39.5 151 q-39.5 52 -103.5 52 q-88 0 -152 -85 l0 -311 q56 -64 142 -64 ZM79 653 q0 67 -3 94 l-79 10 q-3 16 0 38 q70 5 172 21 q9 -9 10 -20 q-5 -38 -5 -58 l0 -278 q81 94 186 94 q92 0 153.5 -73 q61.5 -73 61.5 -193 q0 -139 -79.5 -223.5 q-79.5 -84.5 -187.5 -84.5 q-73 0 -134 47 l0 -245 l101 -15 q4 -16 0 -40 q-63 3 -139 3 q-56 0 -140 -2 q-6 20 0 39 l79 11 q4 55 4 127 l0 748 Z" /><glyph glyph-name="dotlessi" unicode="&#x131;" d="M208 372 l0 -321 l81 -15 q1 -5 1.5 -9 q0.5 -4 0.5 -9 q0 -5 -0.5 -10.5 q-0.5 -5.5 -1.5 -11.5 q-63 3 -129 3 q-23 0 -55.5 -0.5 q-32.5 -0.5 -74.5 -1.5 q-3 9 -3 19 q0 9 3 20 l79 11 q2 28 3 59.5 q1 31.5 1 67.5 l0 213 q0 66 -3 98 l-79 10 q-2 5 -2 17 q0 5 0 10 q0 5 2 11 q68 4 172 21 q9 -10 10 -20 q-5 -28 -5 -162 Z" /><glyph glyph-name="OE" unicode="&#x152;" d="M452 816 q185 0 294 -133 l0 113 l450 0 l1 -232 q-22 -4 -37 0 l-47 181 l-270 0 l0 -300 l160 3 l23 98 q15 4 37 0 q-4 -56 -4 -129 q0 -67 3 -130 q-18 -6 -36 0 l-22 104 l-161 3 l0 -343 l300 0 l47 181 q15 4 37 0 l-1 -232 l-480 0 l0 124 q-115 -144 -294 -144 q-97 0 -175 35 q-78 35 -126 93.5 q-48 58.5 -73.5 129.5 q-25.5 71 -25.5 148 q0 115 50.5 213 q50.5 98 143 157.5 q92.5 59.5 206.5 59.5 ZM451 35 q74 0 132 31 q58 31 93 84.5 q35 53.5 52.5 119.5 q17.5 66 17.5 142 q0 72 -17.5 133.5 q-17.5 61.5 -52.5 110.5 q-35 49 -92.5 77 q-57.5 28 -132.5 28 q-137 0 -208 -100 q-71 -100 -71 -250 q0 -103 28 -185.5 q28 -82.5 93 -136.5 q65 -54 158 -54 Z" /><glyph glyph-name="oe" unicode="&#x153;" d="M192 450 q-43 -61 -43 -184 q0 -61 11.5 -107 q11.5 -46 31.5 -76.5 q20 -30.5 47 -45.5 q27 -15 59 -15 q31 0 59 15 q28 15 48 45.5 q20 30.5 32 76.5 q12 46 12 107 q0 61 -12 107.5 q-12 46.5 -32.5 77 q-20.5 30.5 -48 46 q-27.5 15.5 -58.5 15.5 q-62 0 -106 -62 ZM43 266 q0 120 69.5 204 q69.5 84 185.5 84 q121 0 195 -94 q67 94 190 94 q111 0 160 -73 q49 -73 49 -190 q-8 -7 -21 -9 l-326 0 q-8 -254 158 -254 q68 0 152 61 q15 -9 23 -31 q-80 -78 -191 -78 q-131 0 -196 90 q-74 -90 -193 -90 q-118 0 -186.5 80 q-68.5 80 -68.5 206 ZM674 508 q-49 0 -83.5 -51.5 q-34.5 -51.5 -42.5 -134.5 l124 0 q80 0 116 9 q0 177 -114 177 Z" /><glyph glyph-name="circumflex" unicode="&#x2c6;" d="M43 587 l99 174 q21 7 28 7 q5 0 28 -7 l99 -174 q-14 -10 -45 -17 l-82 112 l-81 -112 q-32 7 -46 17 Z" /><glyph glyph-name="caron" unicode="&#x2c7;" d="M142 579 l-99 174 q14 10 46 17 l81 -112 l82 112 q31 -7 45 -17 l-99 -174 q-18 -7 -28 -7 q-11 0 -28 7 Z" /><glyph glyph-name="ring" unicode="&#x2da;" d="M51 593 q-16 16 -23.5 36 q-7.5 20 -7.5 41 q0 22 8.5 42 q8.5 20 23.5 35 q15 15 34.5 23.5 q19.5 8.5 41.5 8.5 q22 0 41.5 -9 q19.5 -9 34.5 -24 q15 -15 24 -34.5 q9 -19.5 9 -41.5 q0 -22 -8.5 -41.5 q-8.5 -19.5 -23.5 -34.5 q-15 -15 -35 -23.5 q-20 -8.5 -42 -8.5 q-21 0 -41 7.5 q-20 7.5 -36 23.5 ZM87 711 q-17 -17 -17 -41 q0 -23 17.5 -40.5 q17.5 -17.5 40.5 -17.5 q23 0 41 17.5 q18 17.5 18 40.5 q0 23 -18 41 q-18 18 -41 18 q-25 0 -41 -18 Z" /><glyph glyph-name="tilde" unicode="&#x2dc;" d="M276 669 q16 0 28 6 q12 6 35 25 q19 0 37 -16 q-2 -3 -5 -9 q-3 -6 -13.5 -20.5 q-10.5 -14.5 -22.5 -25.5 q-12 -11 -31.5 -20 q-19.5 -9 -40.5 -9 q-38 0 -73 27 q-35 27 -59 27 q-15 0 -27.5 -8.5 q-12.5 -8.5 -34.5 -30.5 q-21 2 -39 20 q2 4 5.5 9.5 q3.5 5.5 15 21 q11.5 15.5 24 27 q12.5 11.5 32 21 q19.5 9.5 38.5 9.5 q37 0 72 -27 q35 -27 59 -27 Z" /><glyph glyph-name="endash" unicode="&#x2013;" d="M501 357 l-431 0 q-9 30 0 50 l431 0 q8 -23 0 -50 Z" /><glyph glyph-name="emdash" unicode="&#x2014;" d="M821 357 l-751 0 q-9 30 0 50 l751 0 q8 -23 0 -50 Z" /><glyph glyph-name="quoteleft" unicode="&#x2018;" d="M183 851 q20 -5 26 -32 q-29 -16 -59 -48 q-30 -32 -42 -70 l3 0 q38 0 59.5 -19.5 q21.5 -19.5 21.5 -50.5 q0 -29 -21.5 -49 q-21.5 -20 -51.5 -20 q-36 0 -57 25.5 q-21 25.5 -21 61.5 q0 61 39 109 q39 48 103 93 Z" /><glyph glyph-name="quoteright" unicode="&#x2019;" d="M74 562 q-20 5 -26 32 q29 16 59 48 q30 32 42 70 l-3 0 q-38 0 -59.5 19.5 q-21.5 19.5 -21.5 50.5 q0 29 21.5 49 q21.5 20 51.5 20 q36 0 57 -25.5 q21 -25.5 21 -61.5 q0 -61 -39 -109 q-39 -48 -103 -93 Z" /><glyph glyph-name="quotesinglbase" unicode="&#x201a;" d="M57 -148 q-20 5 -26 32 q29 16 59 48 q30 32 42 70 l-3 0 q-38 0 -59.5 19.5 q-21.5 19.5 -21.5 50.5 q0 29 21.5 49 q21.5 20 51.5 20 q36 0 57 -25.5 q21 -25.5 21 -61.5 q0 -61 -39 -109 q-39 -48 -103 -93 Z" /><glyph glyph-name="quotedblleft" unicode="&#x201c;" d="M183 851 q20 -5 26 -32 q-29 -16 -59 -48 q-30 -32 -42 -70 l3 0 q38 0 59.5 -19.5 q21.5 -19.5 21.5 -50.5 q0 -29 -21.5 -49 q-21.5 -20 -51.5 -20 q-36 0 -57 25.5 q-21 25.5 -21 61.5 q0 61 39 109 q39 48 103 93 ZM383 851 q20 -5 26 -32 q-29 -16 -59 -48 q-30 -32 -42 -70 l3 0 q38 0 59.5 -19.5 q21.5 -19.5 21.5 -50.5 q0 -29 -21.5 -49 q-21.5 -20 -51.5 -20 q-36 0 -57 25.5 q-21 25.5 -21 61.5 q0 61 39 109 q39 48 103 93 Z" /><glyph glyph-name="quotedblright" unicode="&#x201d;" d="M74 562 q-20 5 -26 32 q29 16 59 48 q30 32 42 70 l-3 0 q-38 0 -59.5 19.5 q-21.5 19.5 -21.5 50.5 q0 29 21.5 49 q21.5 20 51.5 20 q36 0 57 -25.5 q21 -25.5 21 -61.5 q0 -61 -39 -109 q-39 -48 -103 -93 ZM274 562 q-20 5 -26 32 q29 16 59 48 q30 32 42 70 l-3 0 q-38 0 -59.5 19.5 q-21.5 19.5 -21.5 50.5 q0 29 21.5 49 q21.5 20 51.5 20 q36 0 57 -25.5 q21 -25.5 21 -61.5 q0 -61 -39 -109 q-39 -48 -103 -93 Z" /><glyph glyph-name="quotedblbase" unicode="&#x201e;" d="M57 -148 q-20 5 -26 32 q29 16 59 48 q30 32 42 70 l-3 0 q-38 0 -59.5 19.5 q-21.5 19.5 -21.5 50.5 q0 29 21.5 49 q21.5 20 51.5 20 q36 0 57 -25.5 q21 -25.5 21 -61.5 q0 -61 -39 -109 q-39 -48 -103 -93 ZM257 -148 q-20 5 -26 32 q29 16 59 48 q30 32 42 70 l-3 0 q-38 0 -59.5 19.5 q-21.5 19.5 -21.5 50.5 q0 29 21.5 49 q21.5 20 51.5 20 q36 0 57 -25.5 q21 -25.5 21 -61.5 q0 -61 -39 -109 q-39 -48 -103 -93 Z" /><glyph glyph-name="bullet" unicode="&#x2022;" d="M237 492 q56 0 94.5 -36.5 q38.5 -36.5 38.5 -90.5 q0 -54 -38.5 -92.5 q-38.5 -38.5 -92.5 -38.5 q-54 0 -92.5 38.5 q-38.5 38.5 -38.5 92.5 q0 54 37.5 90.5 q37.5 36.5 91.5 36.5 Z" /><glyph glyph-name="guilsinglleft" unicode="&#x2039;" d="M137 247 l133 -186 q-4 -16 -22 -21 l-208 197 l0 20 l208 197 q18 -5 22 -21 l-133 -186 Z" /><glyph glyph-name="guilsinglright" unicode="&#x203a;" d="M181 247 l-133 186 q4 16 22 21 l208 -197 l0 -20 l-208 -197 q-18 5 -22 21 l133 186 Z" /><glyph glyph-name="fraction" unicode="&#x2044;" d="M422 796 l-356 -821 q-11 -4 -29 -4 q-19 0 -31 4 l356 821 q25 7 60 0 Z" /><glyph glyph-name="foursuperior" unicode="&#x2074;" d="M220 364 q3 39 3 77 l0 13 l-180 0 q-9 15 -7 47 l210 318 l52 2 q4 0 12 -3 q-5 -30 -5 -101 l0 -216 l9 0 q29 1 63 9 q-1 -20 -1 -56 l-71 0 l0 -85 l71 -12 q4 -16 0 -40 q-54 4 -123 4 q-22 0 -103 -3 q-6 20 0 39 l70 7 ZM202 672 l-115 -173 l136 1 l0 157 l2 45 l-2 0 l-21 -30 Z" /><glyph glyph-name="Euro" unicode="&#x20ac;" d="M29 467 l56 0 q10 75 41.5 138 q31.5 63 78.5 109.5 q47 46.5 108 72.5 q61 26 131 26 q100 0 205 -47 l-70 -192 q-7 -1 -15 -1.5 q-8 -0.5 -17 -0.5 q-8 0 -14 0.5 q-6 0.5 -11 1.5 l38 167 q-63 25 -129 25 q-48 0 -87 -21 q-39 -21 -68 -60 q-29 -39 -47 -94.5 q-18 -55.5 -23 -123.5 l244 0 l0 -7 q0 -21 -14 -43 l-232 0 l0 -5 q0 -19 0 -33 q0 -14 1 -22 l215 0 q0 -3 0.5 -6 q0.5 -3 0.5 -6 q0 -23 -15 -38 l-197 0 q15 -129 66.5 -195 q51.5 -66 130.5 -66 q105 0 176 61 q23 -9 26 -38 q-43 -49 -91.5 -69 q-48.5 -20 -117.5 -20 q-71 0 -125.5 23.5 q-54.5 23.5 -93.5 66.5 q-39 43 -62.5 103 q-23.5 60 -32.5 134 l-70 0 q-1 4 -1 11 q0 21 15 39 l51 0 l0 60 l-65 0 q-1 3 -1 10 q0 20 15 40 Z" /><glyph glyph-name="minus" unicode="&#x2212;" d="M572 365 l-491 0 q-9 30 0 50 l491 0 q8 -23 0 -50 Z" /></font>
</defs>
</svg>
